<svg xmlns="http://www.w3.org/2000/svg" xmlns:xlink="http://www.w3.org/1999/xlink" width="91" height="91" viewBox="0 0 91 91">
  <defs>
    <filter id="Ellipse_11513" x="0" y="0" width="91" height="91" filterUnits="userSpaceOnUse">
      <feOffset dy="3" input="SourceAlpha"/>
      <feGaussianBlur stdDeviation="3" result="blur"/>
      <feFlood flood-opacity="0.161"/>
      <feComposite operator="in" in2="blur"/>
      <feComposite in="SourceGraphic"/>
    </filter>
  </defs>
  <g id="Group_1146652" data-name="Group 1146652" transform="translate(-597 -661)">
    <g id="Group_1145615" data-name="Group 1145615">
      <g id="Group_1144318" data-name="Group 1144318" transform="translate(0 -64)">
        <g id="Group_1143812" data-name="Group 1143812" transform="translate(0 -199)">
          <g id="Group_1143703" data-name="Group 1143703" transform="translate(605.919 930)">
            <g id="Group_1143465" data-name="Group 1143465">
              <g transform="matrix(1, 0, 0, 1, -8.92, -6)" filter="url(#Ellipse_11513)">
                <g id="Ellipse_11513-2" data-name="Ellipse 11513" transform="translate(9 6)" fill="#f7eafc" stroke="#652180" stroke-width="3">
                  <circle cx="36.5" cy="36.5" r="36.5" stroke="none"/>
                  <circle cx="36.5" cy="36.5" r="35" fill="none"/>
                </g>
              </g>
            </g>
          </g>
        </g>
      </g>
      <g id="idea" transform="translate(616.801 678.888)">
        <g id="Group_1145613" data-name="Group 1145613" transform="translate(0.721 0.744)">
          <path id="Path_979760" data-name="Path 979760" d="M306.345,9.41H305.6l-2.081.846-2.667,1.729-1.591,3.074-.544,2.465,1.929,4.89,2.377,2.641,1.465,1.081v1.3h2.937l.646-.425a3.388,3.388,0,0,1,1.42-2.737A8.306,8.306,0,0,0,306.345,9.41Z" transform="translate(-270.742 -9.229)" fill="#ffe02f"/>
          <path id="Path_979761" data-name="Path 979761" d="M243.319,279.032c-.941-1.966-3.108-1.037-3.29-.969l-8.817,2.608a.238.238,0,0,1-.3-.257,2,2,0,0,0-1.356-2.242c-5.286-2.11-5.916-2.467-7.254-2.488h0a30.247,30.247,0,0,0-4.606.2l-1.15.557-.744,3.194.264,2.641,1.8,2.881,2.021.7a6.818,6.818,0,0,1,2.518.45l3.411,1.362a5.453,5.453,0,0,0,4.236-.254h0l11.908-5.268C242.318,281.966,244.131,280.879,243.319,279.032Z" transform="translate(-195.791 -249.929)" fill="#ffcebe"/>
          <g id="Group_1145612" data-name="Group 1145612" transform="translate(14.715 25.954)">
            <path id="Path_979762" data-name="Path 979762" d="M166.516,281.809a6.649,6.649,0,0,1,1.38-4.065,9.233,9.233,0,0,0-2.333.77,18.33,18.33,0,0,0-3.053,1.737,6.7,6.7,0,0,1-1.6.831l-.195.758,3.074,7.011.825.306,2.472-.938a9.744,9.744,0,0,1,3.007-.5A6.678,6.678,0,0,1,166.516,281.809Z" transform="translate(-160.712 -277.744)" fill="#ffb1a0"/>
          </g>
          <path id="Path_979763" data-name="Path 979763" d="M112.562,307.387l.425-.648v-.561l-2.639-5.753a1.208,1.208,0,0,0-1.6-.594l-3.363,1.543-.337,1.022,3.186,6.846Z" transform="translate(-95.678 -271.655)" fill="#dbedff"/>
          <path id="Path_979764" data-name="Path 979764" d="M142.373,370.909l-1.815-3.957a1.375,1.375,0,0,1-.77.958l-3.839,1.761-.4-.207,1.9,4.093.963.5,3.363-1.543A1.208,1.208,0,0,0,142.373,370.909Z" transform="translate(-123.249 -332.43)" fill="#b5dcff"/>
          <path id="Path_979765" data-name="Path 979765" d="M282,25.31a3.388,3.388,0,0,0-1.42-2.737,8.306,8.306,0,0,1,3.141-14.867,8.308,8.308,0,0,0-6.585,14.867,3.388,3.388,0,0,1,1.42,2.737l.3.425H282.3Z" transform="translate(-248.115 -7.525)" fill="#fbc700"/>
          <path id="Path_979766" data-name="Path 979766" d="M12.089,310.1l.864-.171,7.335-3.38.339-.378-.025-.586-4.01-8.742a1.1,1.1,0,0,0-1.454-.54l-6.992,3.207a1.1,1.1,0,0,0-.54,1.454l4.033,8.794Z" transform="translate(-7.507 -268.478)" fill="#bf7fe3"/>
          <path id="Path_979767" data-name="Path 979767" d="M62.193,399.749l-2.69-5.865a1.135,1.135,0,0,1-.655.907L51.6,398.115a1.136,1.136,0,0,1-1.059-.059l2.666,5.814a1.1,1.1,0,0,0,1.454.54l6.992-3.207A1.1,1.1,0,0,0,62.193,399.749Z" transform="translate(-46.408 -356.775)" fill="#b166db"/>
          <path id="Path_979768" data-name="Path 979768" d="M364.222,192.362l-.177.426v3.93l1.121,1.625h.508a3.438,3.438,0,0,0,1.45-2.807v-3.142c0-.011,0-.021,0-.032h-2.9Z" transform="translate(-329.8 -174.609)" fill="#dbedff"/>
          <path id="Path_979769" data-name="Path 979769" d="M328.379,195.537v-3.142c0-.011,0-.021,0-.032h-3.986c0,.011,0,.021,0,.032v3.142a3.442,3.442,0,0,0,5.436,2.807A3.438,3.438,0,0,1,328.379,195.537Z" transform="translate(-293.956 -174.61)" fill="#b5dcff"/>
        </g>
        <g id="Group_1145614" data-name="Group 1145614" transform="translate(0 0.024)">
          <path id="Path_979770" data-name="Path 979770" d="M48.9,271.94c-.738-1.542-2.337-2.055-4.173-1.34l-8.155,2.413a2.679,2.679,0,0,0-1.823-2.289c-.875-.349-1.622-.65-2.266-.91-3.291-1.326-3.988-1.607-5.227-1.629h-.031c-4.18.014-5.036.048-7.231,1.03a19.1,19.1,0,0,0-3.173,1.8,6.016,6.016,0,0,1-.831.489,1.929,1.929,0,0,0-2.5-.84L10.78,271.91l-.319-.7a1.816,1.816,0,0,0-2.409-.894L1.06,273.527a1.816,1.816,0,0,0-.894,2.41l6.7,14.607a1.82,1.82,0,0,0,2.409.894l1.921-.881a.72.72,0,1,0-.6-1.31l-1.921.881a.377.377,0,0,1-.5-.185l-6.7-14.607a.377.377,0,0,1,.185-.5l6.992-3.207a.376.376,0,0,1,.5.185l6.7,14.607a.377.377,0,0,1-.185.5l-2.014.924a.72.72,0,0,0,.6,1.31l2.014-.924a1.816,1.816,0,0,0,.894-2.41l-.319-.7,2.708-1.242a1.931,1.931,0,0,0,.949-2.557l-.189-.412,1.735-.659a7.6,7.6,0,0,1,5.018-.056l3.411,1.362.032.012a6.175,6.175,0,0,0,4.78-.284c.028-.013,11.9-5.264,11.929-5.278a3.117,3.117,0,0,0,1.692-4.051l-.01-.021ZM18.949,282.574l-2.708,1.242-4.86-10.6,2.708-1.242a.487.487,0,0,1,.646.24l4.453,9.71A.487.487,0,0,1,18.949,282.574Zm27.626-7.853L34.7,279.976l-.01,0-.036.017a4.766,4.766,0,0,1-3.657.219L27.6,278.862a8.927,8.927,0,0,0-6.015.03l-.032.011-1.842.7L16.6,272.816a7.458,7.458,0,0,0,1.053-.618,17.655,17.655,0,0,1,2.933-1.668c1.91-.855,2.513-.891,6.631-.9h0c.982.016,1.554.246,4.728,1.525.645.26,1.394.562,2.27.912a1.291,1.291,0,0,1,.9.986,1.723,1.723,0,0,1-.039.725l0,.006-.005.015a.933.933,0,0,1-1.187.687c-1.568-.384-5.3-1.284-5.342-1.293a.72.72,0,1,0-.337,1.4c.038.009,3.771.908,5.337,1.292a2.728,2.728,0,0,0,.65.082,2.357,2.357,0,0,0,2.1-1.365c9.2-2.723,8.866-2.62,8.951-2.653.788-.308,1.833-.451,2.348.608C48.138,273.81,46.88,274.561,46.576,274.721Z" transform="translate(0 -242.427)"/>
          <path id="Path_979771" data-name="Path 979771" d="M473,57.2l2.4-.813a.72.72,0,0,0-.463-1.364l-2.4.813A.72.72,0,1,0,473,57.2Z" transform="translate(-426.705 -49.708)"/>
          <path id="Path_979772" data-name="Path 979772" d="M472.533,102.336l2.4.813a.72.72,0,0,0,.463-1.364l-2.4-.813a.72.72,0,0,0-.463,1.364Z" transform="translate(-426.705 -91.242)"/>
          <path id="Path_979773" data-name="Path 979773" d="M211.846,55.838l-2.4-.813a.72.72,0,1,0-.463,1.364l2.4.813a.72.72,0,0,0,.463-1.364Z" transform="translate(-188.472 -49.708)"/>
          <path id="Path_979774" data-name="Path 979774" d="M211.384,100.972l-2.4.813a.72.72,0,0,0,.463,1.364l2.4-.813a.72.72,0,0,0-.463-1.364Z" transform="translate(-188.472 -91.242)"/>
          <path id="Path_979775" data-name="Path 979775" d="M280.5,16.376a9.023,9.023,0,0,0,3.6-5.679.72.72,0,1,0-1.417-.262,7.588,7.588,0,0,1-3.028,4.775,4.157,4.157,0,0,0-1.645,2.568h-2.075V12.454L278.8,9.375a.72.72,0,0,0-1.055-.981l-2.527,2.719-2.527-2.719a.72.72,0,0,0-1.056.981l2.862,3.079v5.323h-2.075a4.158,4.158,0,0,0-1.644-2.568,7.587,7.587,0,0,1,4.44-13.745,7.661,7.661,0,0,1,7.4,5.9.72.72,0,0,0,1.4-.323,9.034,9.034,0,1,0-14.093,9.333,2.683,2.683,0,0,1,1.122,2.125s0,0,0,0,0,.024,0,.036v3.131a4.164,4.164,0,1,0,8.327,0V18.51s0,0,0-.005a2.682,2.682,0,0,1,1.122-2.129Zm-2.563,5.3a2.723,2.723,0,1,1-5.446,0V19.218h5.446v2.453Z" transform="translate(-240.614 -0.024)"/>
        </g>
      </g>
    </g>
  </g>
</svg>
