<svg xmlns="http://www.w3.org/2000/svg" xmlns:xlink="http://www.w3.org/1999/xlink" width="91" height="91" viewBox="0 0 91 91">
  <defs>
    <filter id="Ellipse_11513" x="0" y="0" width="91" height="91" filterUnits="userSpaceOnUse">
      <feOffset dy="3" input="SourceAlpha"/>
      <feGaussianBlur stdDeviation="3" result="blur"/>
      <feFlood flood-opacity="0.161"/>
      <feComposite operator="in" in2="blur"/>
      <feComposite in="SourceGraphic"/>
    </filter>
  </defs>
  <g id="Group_1145621" data-name="Group 1145621" transform="translate(-912 -660)">
    <g id="Group_1144320" data-name="Group 1144320" transform="translate(0 -65)">
      <g id="Group_1143813" data-name="Group 1143813" transform="translate(0 -199)">
        <g id="Group_1143702" data-name="Group 1143702" transform="translate(920.972 930)">
          <g id="Group_1143465" data-name="Group 1143465">
            <g transform="matrix(1, 0, 0, 1, -8.97, -6)" filter="url(#Ellipse_11513)">
              <g id="Ellipse_11513-2" data-name="Ellipse 11513" transform="translate(9 6)" fill="#f7eafc" stroke="#652180" stroke-width="3">
                <circle cx="36.5" cy="36.5" r="36.5" stroke="none"/>
                <circle cx="36.5" cy="36.5" r="35" fill="none"/>
              </g>
            </g>
          </g>
        </g>
      </g>
    </g>
    <g id="search_3281329_3_" data-name="search_3281329 (3)" transform="translate(939.063 680.505)">
      <g id="Group_1145720" data-name="Group 1145720" transform="translate(0.686 0.687)">
        <path id="Path_980932" data-name="Path 980932" d="M0,0H3.446V4.889H0Z" transform="translate(31.465 30.815) rotate(-45)" fill="#e6e2e6"/>
        <path id="Path_980933" data-name="Path 980933" d="M0,0H3.446V4.889H0Z" transform="translate(31.465 30.815) rotate(-45)" fill="#ecdaec"/>
        <path id="Path_980934" data-name="Path 980934" d="M0,0H1.64V4.889H0Z" transform="translate(31.465 30.815) rotate(-45)" fill="#e2cbe2"/>
        <path id="Path_980935" data-name="Path 980935" d="M8,9.289A1.289,1.289,0,0,1,9.289,8H30.978l7.985,7.985V49.326a1.289,1.289,0,0,1-1.289,1.289H9.289A1.289,1.289,0,0,1,8,49.326Z" transform="translate(-8 -8)" fill="#f9f6f6"/>
        <path id="Path_980936" data-name="Path 980936" d="M37.674,472.289H9.289A1.289,1.289,0,0,1,8,471v1.546a1.289,1.289,0,0,0,1.289,1.289H37.674a1.289,1.289,0,0,0,1.289-1.289V471A1.289,1.289,0,0,1,37.674,472.289Z" transform="translate(-8 -431.221)" fill="#ecdaec"/>
        <g id="Group_1145718" data-name="Group 1145718" transform="translate(15.59)">
          <path id="Path_980937" data-name="Path 980937" d="M276.734,15.985h6.7L275.445,8v6.7A1.289,1.289,0,0,0,276.734,15.985Z" transform="translate(-268.057 -8)" fill="#e2cbe2"/>
          <path id="Path_980938" data-name="Path 980938" d="M276.734,15.985h6.7L275.445,8v6.7A1.289,1.289,0,0,0,276.734,15.985Z" transform="translate(-268.057 -8)" fill="#e2cbe2"/>
          <circle id="Ellipse_11654" data-name="Ellipse 11654" cx="10.695" cy="10.695" r="10.695" transform="translate(0 12.497)" fill="#e2cbe2"/>
        </g>
        <path id="Path_980939" data-name="Path 980939" d="M207.712,275.727a10.7,10.7,0,0,1-18.23-6.789,10.7,10.7,0,1,0,21.335,0A10.654,10.654,0,0,1,207.712,275.727Z" transform="translate(-173.864 -246.519)" fill="#dab9d8"/>
        <circle id="Ellipse_11655" data-name="Ellipse 11655" cx="7.744" cy="7.744" r="7.744" transform="translate(18.541 15.448)" fill="#ffe27a"/>
        <path id="Path_980940" data-name="Path 980940" d="M237.033,273.639a7.743,7.743,0,0,1-13.18-4.7,7.743,7.743,0,1,0,15.409,0A7.711,7.711,0,0,1,237.033,273.639Z" transform="translate(-205.272 -246.518)" fill="#f9cf58"/>
        <path id="Path_980941" data-name="Path 980941" d="M272.561,249.437a1.349,1.349,0,0,1-.944-.383l-1.777-1.728a1.354,1.354,0,1,1,1.888-1.942l.808.785,2.426-2.488a1.354,1.354,0,1,1,1.939,1.891l-3.37,3.456A1.35,1.35,0,0,1,272.561,249.437Z" transform="translate(-246.969 -223.059)" fill="#98db7c"/>
        <path id="Path_980942" data-name="Path 980942" d="M276.911,250.2l-3.37,3.456a1.354,1.354,0,0,1-1.913.025l-1.777-1.728a1.357,1.357,0,0,1-.166-.2,1.353,1.353,0,0,0,.166,1.743l1.777,1.728a1.354,1.354,0,0,0,1.913-.025l3.37-3.456a1.354,1.354,0,0,0,.141-1.719,1.364,1.364,0,0,1-.141.173Z" transform="translate(-246.979 -229.23)" fill="#82d361"/>
        <path id="Path_980943" data-name="Path 980943" d="M412.344,372.946l-3.4,3.4,4.065,4.065a2.4,2.4,0,0,0,3.4-3.4Z" transform="translate(-374.498 -341.591)" fill="#ff4755"/>
        <path id="Path_980944" data-name="Path 980944" d="M414.17,403.057l-4.064-4.064-1.16,1.16,4.065,4.065a2.4,2.4,0,0,0,3.877-.684A2.4,2.4,0,0,1,414.17,403.057Z" transform="translate(-374.498 -365.4)" fill="#fc2b3a"/>
        <g id="Group_1145719" data-name="Group 1145719" transform="translate(4.406 11.86)">
          <path id="Path_980945" data-name="Path 980945" d="M62.9,150.452H60.083a.8.8,0,0,1-.8-.8v-2.819a.8.8,0,0,1,.8-.8H62.9a.8.8,0,0,1,.8.8v2.819A.8.8,0,0,1,62.9,150.452Z" transform="translate(-59.286 -146.039)" fill="#98db7c"/>
          <path id="Path_980946" data-name="Path 980946" d="M62.9,255.614H60.083a.8.8,0,0,1-.8-.8V252a.8.8,0,0,1,.8-.8H62.9a.8.8,0,0,1,.8.8v2.819A.8.8,0,0,1,62.9,255.614Z" transform="translate(-59.286 -242.166)" fill="#98db7c"/>
          <path id="Path_980947" data-name="Path 980947" d="M62.9,362.911H60.083a.8.8,0,0,1-.8-.8v-2.819a.8.8,0,0,1,.8-.8H62.9a.8.8,0,0,1,.8.8v2.819A.8.8,0,0,1,62.9,362.911Z" transform="translate(-59.286 -340.244)" fill="#98db7c"/>
        </g>
        <path id="Path_980948" data-name="Path 980948" d="M62.9,170.925H60.083a.8.8,0,0,1-.8-.8v1.546a.8.8,0,0,0,.8.8H62.9a.8.8,0,0,0,.8-.8v-1.546A.8.8,0,0,1,62.9,170.925Z" transform="translate(-54.88 -156.199)" fill="#82d361"/>
        <path id="Path_980949" data-name="Path 980949" d="M62.9,276.086H60.083a.8.8,0,0,1-.8-.8v1.547a.8.8,0,0,0,.8.8H62.9a.8.8,0,0,0,.8-.8v-1.547A.8.8,0,0,1,62.9,276.086Z" transform="translate(-54.88 -252.324)" fill="#82d361"/>
        <path id="Path_980950" data-name="Path 980950" d="M62.9,383.383H60.083a.8.8,0,0,1-.8-.8v1.547a.8.8,0,0,0,.8.8H62.9a.8.8,0,0,0,.8-.8v-1.547A.8.8,0,0,1,62.9,383.383Z" transform="translate(-54.88 -350.403)" fill="#82d361"/>
        <path id="Path_980951" data-name="Path 980951" d="M275.445,85.937v1.547a1.289,1.289,0,0,0,1.289,1.289h6.7V87.226h-6.7A1.289,1.289,0,0,1,275.445,85.937Z" transform="translate(-252.467 -79.241)" fill="#ecdaec"/>
      </g>
      <g id="Group_1145721" data-name="Group 1145721" transform="translate(-0.001 0)">
        <path id="Path_980952" data-name="Path 980952" d="M265.77,243.211a1.988,1.988,0,0,0,1.434-.6l3.377-3.463a2,2,0,0,0-2.867-2.8l-1.981,2.031-.347-.337a2,2,0,1,0-2.792,2.871l1.781,1.731A1.992,1.992,0,0,0,265.77,243.211Zm-2.29-4.229a.712.712,0,0,1,1.006-.014l.809.787a.646.646,0,0,0,.912-.012l2.431-2.493a.711.711,0,0,1,1.018.993l-3.377,3.463a.715.715,0,0,1-1,.013l-1.781-1.731A.712.712,0,0,1,263.479,238.981Z" transform="translate(-239.479 -215.49)"/>
        <path id="Path_980953" data-name="Path 980953" d="M218.935,192.882a.646.646,0,0,0-1.031.778,8.508,8.508,0,0,0,.773.888,8.4,8.4,0,1,0-2.063-3.38.646.646,0,0,0,1.23-.393,7.12,7.12,0,1,1,1.746,2.86A7.231,7.231,0,0,1,218.935,192.882Z" transform="translate(-197.635 -164.722)"/>
        <path id="Path_980954" data-name="Path 980954" d="M43.1,35.679l-4.074-4.073a.646.646,0,0,0-.913,0l-.025.025L36.52,30.063A11.343,11.343,0,0,0,38.325,24.6a.646.646,0,0,0-1.289-.081,10.063,10.063,0,0,1-10.042,9.428h-.061A10.066,10.066,0,1,1,36.9,22.1a.646.646,0,0,0,1.271-.228,11.37,11.37,0,0,0-5.851-8.02v-5.2a.654.654,0,0,0-.189-.457l-8-8A.654.654,0,0,0,23.671,0H1.936A1.939,1.939,0,0,0,0,1.937V7.364a.646.646,0,0,0,1.291,0V1.937a.646.646,0,0,1,.646-.646H23.025V7.355a1.939,1.939,0,0,0,1.937,1.937h6.064v3.973a11.41,11.41,0,0,0-3.919-.737l-.019,0H12.672a.646.646,0,1,0,0,1.291h9.041a11.318,11.318,0,0,0-2.576,1.849H12.672a.646.646,0,1,0,0,1.291h5.3a11.239,11.239,0,0,0-2.119,4.616H12.672a.646.646,0,1,0,0,1.291h2.995q-.045.5-.045,1.018,0,.421.03.836h-2.98a.646.646,0,1,0,0,1.291H15.82a11.238,11.238,0,0,0,2.157,4.8h-5.3a.646.646,0,1,0,0,1.291H19.14a11.317,11.317,0,0,0,2.572,1.846H12.672a.646.646,0,1,0,0,1.291H26.985a11.417,11.417,0,0,0,4.042-.739v7.551a.646.646,0,0,1-.646.646H1.936a.646.646,0,0,1-.646-.646V9.947A.646.646,0,0,0,0,9.947V42.053a1.939,1.939,0,0,0,1.937,1.937H30.381a1.939,1.939,0,0,0,1.937-1.937V33.916q.432-.229.848-.5l1.567,1.567a.651.651,0,0,0-.025.938L38.782,40A3.053,3.053,0,0,0,43.1,35.679ZM24.962,8a.646.646,0,0,1-.646-.646V2.2l5.8,5.8Zm9.257,24.644q.413-.342.8-.728t.728-.8l1.427,1.427-1.528,1.528Zm7.968,6.438a1.77,1.77,0,0,1-2.492,0l-3.617-3.617,2.492-2.491,3.617,3.617A1.77,1.77,0,0,1,42.187,39.083Z" transform="translate(0.001 0)"/>
        <path id="Path_980955" data-name="Path 980955" d="M52.837,144.023h2.825a1.446,1.446,0,0,0,1.444-1.444v-2.825a1.446,1.446,0,0,0-1.444-1.444H52.837a1.446,1.446,0,0,0-1.444,1.444v2.825A1.446,1.446,0,0,0,52.837,144.023Zm-.153-4.269a.153.153,0,0,1,.153-.153h2.825a.153.153,0,0,1,.153.153v2.825a.153.153,0,0,1-.153.153H52.837a.153.153,0,0,1-.153-.153Z" transform="translate(-46.977 -126.427)"/>
        <path id="Path_980956" data-name="Path 980956" d="M51.393,247.947a1.446,1.446,0,0,0,1.444,1.444h2.825a1.446,1.446,0,0,0,1.444-1.444v-2.825a1.446,1.446,0,0,0-1.444-1.444H52.837a1.446,1.446,0,0,0-1.444,1.444Zm1.291-2.825a.153.153,0,0,1,.153-.153h2.825a.153.153,0,0,1,.153.153v2.825a.153.153,0,0,1-.153.153H52.837a.153.153,0,0,1-.153-.153Z" transform="translate(-46.977 -222.742)"/>
        <path id="Path_980957" data-name="Path 980957" d="M51.393,355.454a1.446,1.446,0,0,0,1.444,1.444h2.825a1.446,1.446,0,0,0,1.444-1.444v-2.825a1.446,1.446,0,0,0-1.444-1.444H52.837a1.446,1.446,0,0,0-1.444,1.444Zm1.291-2.825a.153.153,0,0,1,.153-.153h2.825a.153.153,0,0,1,.153.153v2.825a.153.153,0,0,1-.153.153H52.837a.153.153,0,0,1-.153-.153Z" transform="translate(-46.977 -321.012)"/>
      </g>
    </g>
  </g>
</svg>
