<svg xmlns="http://www.w3.org/2000/svg" xmlns:xlink="http://www.w3.org/1999/xlink" width="86" height="86" viewBox="0 0 86 86">
  <defs>
    <filter id="Ellipse_11513" x="0" y="0" width="86" height="86" filterUnits="userSpaceOnUse">
      <feOffset dy="3" input="SourceAlpha"/>
      <feGaussianBlur stdDeviation="3" result="blur"/>
      <feFlood flood-opacity="0.161"/>
      <feComposite operator="in" in2="blur"/>
      <feComposite in="SourceGraphic"/>
    </filter>
  </defs>
  <g id="Group_1144403" data-name="Group 1144403" transform="translate(-819.81 -4027.591)">
    <g id="Group_1144288" data-name="Group 1144288" transform="translate(633.183 -551.409)">
      <g id="Group_1143702" data-name="Group 1143702" transform="translate(-630.373 4129)">
        <g id="Group_1143465" data-name="Group 1143465" transform="translate(630 -707)">
          <g transform="matrix(1, 0, 0, 1, 187, 1157)" filter="url(#Ellipse_11513)">
            <g id="Ellipse_11513-2" data-name="Ellipse 11513" transform="translate(9 6)" fill="#f7eafc" stroke="#652180" stroke-width="3">
              <circle cx="34" cy="34" r="34" stroke="none"/>
              <circle cx="34" cy="34" r="32.5" fill="none"/>
            </g>
          </g>
        </g>
      </g>
    </g>
    <g id="Page-1" transform="translate(844.159 4045.21)">
      <g id="_125---Python-Files" data-name="125---Python-Files" transform="translate(0)">
        <g id="Icons" transform="translate(0.746 0.746)">
          <path id="Shape" d="M32.825,2.984V37.3a2.984,2.984,0,0,1-2.984,2.984H2.984A2.984,2.984,0,0,1,0,37.3V9.7H6.714A2.984,2.984,0,0,0,9.7,6.714V0H29.841A2.984,2.984,0,0,1,32.825,2.984Z" transform="translate(0)" fill="#00bcd4"/>
          <path id="Shape-2" data-name="Shape" d="M39.238,0H37a2.984,2.984,0,0,1,2.984,2.984V37.3A2.984,2.984,0,0,1,37,40.285h2.238A2.984,2.984,0,0,0,42.222,37.3V2.984A2.984,2.984,0,0,0,39.238,0Z" transform="translate(-9.397 0)" fill="#00838f"/>
          <path id="Shape-3" data-name="Shape" d="M36.825,6.984V41.3a2.984,2.984,0,0,1-2.984,2.984H6.984A2.984,2.984,0,0,1,4,41.3H30.857a2.984,2.984,0,0,0,2.984-2.984V4A2.984,2.984,0,0,1,36.825,6.984Z" transform="translate(-1.016 -1.016)" fill="#3f51b5"/>
          <path id="Shape-4" data-name="Shape" d="M32.159,23.984V28.46a2.984,2.984,0,0,1-2.984,2.984h-3.73v3.73a2.984,2.984,0,0,1-2.984,2.984H17.984A2.984,2.984,0,0,1,15,35.174V29.206a2.984,2.984,0,0,1,2.984-2.984H22.46a2.984,2.984,0,0,0,2.984-2.984V21h3.73A2.984,2.984,0,0,1,32.159,23.984Z" transform="translate(-3.81 -5.334)" fill="#ffdc00"/>
          <path id="Shape-5" data-name="Shape" d="M24.984,38.73A2.984,2.984,0,0,1,22,41.714h2.238a2.984,2.984,0,0,0,2.984-2.984V35H24.984Z" transform="translate(-5.587 -8.889)" fill="#fec108"/>
          <path id="Shape-6" data-name="Shape" d="M33.238,21H31a2.984,2.984,0,0,1,2.984,2.984V28.46A2.984,2.984,0,0,1,31,31.444h2.238a2.984,2.984,0,0,0,2.984-2.984V23.984A2.984,2.984,0,0,0,33.238,21Z" transform="translate(-7.873 -5.334)" fill="#fec108"/>
          <path id="Shape-7" data-name="Shape" d="M23.159,14.984v5.968a2.984,2.984,0,0,1-2.984,2.984H15.7a2.984,2.984,0,0,0-2.984,2.984v2.238H8.984A2.984,2.984,0,0,1,6,26.174V21.7a2.984,2.984,0,0,1,2.984-2.984h3.73v-3.73A2.984,2.984,0,0,1,15.7,12h4.476A2.984,2.984,0,0,1,23.159,14.984Z" transform="translate(-1.524 -3.048)" fill="#3f51b5"/>
          <path id="Shape-8" data-name="Shape" d="M24.238,12H22a2.984,2.984,0,0,1,2.984,2.984v5.968A2.984,2.984,0,0,1,22,23.936h2.238a2.984,2.984,0,0,0,2.984-2.984V14.984A2.984,2.984,0,0,0,24.238,12Z" transform="translate(-5.587 -3.048)" fill="#283593"/>
          <path id="Shape-9" data-name="Shape" d="M12,30.984v2.238h2.238V30.984A2.984,2.984,0,0,1,17.222,28H14.984A2.984,2.984,0,0,0,12,30.984Z" transform="translate(-3.048 -7.111)" fill="#283593"/>
          <path id="Shape-10" data-name="Shape" d="M9.7,0V6.714A2.984,2.984,0,0,1,6.714,9.7H0Z" transform="translate(0)" fill="#00695c"/>
          <g id="Group_1144402" data-name="Group 1144402" transform="translate(20.143 2.238)">
            <path id="Shape-11" data-name="Shape" d="M32.222,4.492H27.746a.746.746,0,0,1,0-1.492h4.476a.746.746,0,1,1,0,1.492Z" transform="translate(-27 -3)" fill="#f5f5f5"/>
            <path id="Shape-12" data-name="Shape" d="M39.238,4.492H37.746a.746.746,0,1,1,0-1.492h1.492a.746.746,0,1,1,0,1.492Z" transform="translate(-29.54 -3)" fill="#f5f5f5"/>
          </g>
        </g>
        <g id="Layer_2">
          <path id="Shape-13" data-name="Shape" d="M6.714,44.761H33.571a3.735,3.735,0,0,0,3.73-3.73V6.714a3.73,3.73,0,0,0-3.053-3.661A3.73,3.73,0,0,0,30.587,0H10.444a.746.746,0,0,0-.527.219l-9.7,9.7A.746.746,0,0,0,0,10.444v27.6a3.73,3.73,0,0,0,3.053,3.661A3.73,3.73,0,0,0,6.714,44.761ZM35.809,6.714V41.031a2.238,2.238,0,0,1-2.238,2.238H6.714a2.238,2.238,0,0,1-2.1-1.492H30.587a3.735,3.735,0,0,0,3.73-3.73V4.613a2.238,2.238,0,0,1,1.492,2.1ZM9.7,2.547V7.46A2.238,2.238,0,0,1,7.46,9.7H2.547Zm-8.206,35.5V11.19H7.46a3.735,3.735,0,0,0,3.73-3.73V1.492h19.4A2.238,2.238,0,0,1,32.825,3.73V38.047a2.238,2.238,0,0,1-2.238,2.238H3.73A2.238,2.238,0,0,1,1.492,38.047Z" transform="translate(0)"/>
          <path id="Shape-14" data-name="Shape" d="M5.746,50.492h.746a.746.746,0,1,0,0-1.492H5.746a.746.746,0,1,0,0,1.492Z" transform="translate(-1.27 -12.445)"/>
          <path id="Shape-15" data-name="Shape" d="M30.746,49a.746.746,0,1,0,0,1.492H37.46a.746.746,0,0,0,0-1.492Z" transform="translate(-7.619 -12.445)"/>
          <path id="Shape-16" data-name="Shape" d="M21.936,49H10.746a.746.746,0,1,0,0,1.492h11.19a.746.746,0,1,0,0-1.492Z" transform="translate(-2.54 -12.445)"/>
          <path id="Shape-17" data-name="Shape" d="M9.73,30.651h2.984v2.984a3.735,3.735,0,0,0,3.73,3.73H20.92a3.735,3.735,0,0,0,3.73-3.73V30.651h2.984a3.735,3.735,0,0,0,3.73-3.73V22.444a3.735,3.735,0,0,0-3.73-3.73H24.651V15.73A3.735,3.735,0,0,0,20.92,12H16.444a3.735,3.735,0,0,0-3.73,3.73v2.984H9.73A3.735,3.735,0,0,0,6,22.444V26.92A3.735,3.735,0,0,0,9.73,30.651Zm17.9-10.444a2.238,2.238,0,0,1,2.238,2.238V26.92a2.238,2.238,0,0,1-2.238,2.238H18.682a.746.746,0,1,0,0,1.492h4.476v2.984a2.238,2.238,0,0,1-2.238,2.238H16.444a2.238,2.238,0,0,1-2.238-2.238V27.667a2.238,2.238,0,0,1,2.238-2.238H20.92a3.735,3.735,0,0,0,3.73-3.73V20.206ZM7.492,22.444A2.238,2.238,0,0,1,9.73,20.206h8.952a.746.746,0,1,0,0-1.492H14.206V15.73a2.238,2.238,0,0,1,2.238-2.238H20.92a2.238,2.238,0,0,1,2.238,2.238V21.7a2.238,2.238,0,0,1-2.238,2.238H16.444a3.735,3.735,0,0,0-3.73,3.73v1.492H9.73A2.238,2.238,0,0,1,7.492,26.92Z" transform="translate(-1.524 -3.048)"/>
          <circle id="Oval" cx="0.914" cy="0.914" r="0.914" transform="translate(14.993 12.323)"/>
          <circle id="Oval-2" data-name="Oval" cx="0.914" cy="0.914" r="0.914" transform="translate(17.736 28.781)"/>
        </g>
      </g>
    </g>
  </g>
</svg>
