<svg xmlns="http://www.w3.org/2000/svg" xmlns:xlink="http://www.w3.org/1999/xlink" width="86" height="86" viewBox="0 0 86 86">
  <defs>
    <filter id="Ellipse_11513" x="0" y="0" width="86" height="86" filterUnits="userSpaceOnUse">
      <feOffset dy="3" input="SourceAlpha"/>
      <feGaussianBlur stdDeviation="3" result="blur"/>
      <feFlood flood-opacity="0.161"/>
      <feComposite operator="in" in2="blur"/>
      <feComposite in="SourceGraphic"/>
    </filter>
  </defs>
  <g id="Group_1144401" data-name="Group 1144401" transform="translate(-189.81 -4033)">
    <g id="Group_1144286" data-name="Group 1144286" transform="translate(3.183 -363)">
      <g id="Group_1143699" data-name="Group 1143699" transform="translate(-0.373 3946)">
        <g id="Group_1143465" data-name="Group 1143465" transform="translate(0 -707)">
          <g transform="matrix(1, 0, 0, 1, 187, 1157)" filter="url(#Ellipse_11513)">
            <g id="Ellipse_11513-2" data-name="Ellipse 11513" transform="translate(9 6)" fill="#f7eafc" stroke="#361245" stroke-width="3">
              <circle cx="34" cy="34" r="34" stroke="none"/>
              <circle cx="34" cy="34" r="32.5" fill="none"/>
            </g>
          </g>
        </g>
      </g>
    </g>
    <g id="Layer_24" data-name="Layer 24" transform="translate(203.977 4044.167)">
      <path id="Path_979416" data-name="Path 979416" d="M72,16h35.618V56.322H72Z" transform="translate(-58.624 -7.328)" fill="#306f49"/>
      <path id="Path_979417" data-name="Path 979417" d="M98.688,16A2.688,2.688,0,0,0,96,18.688V53.634a2.688,2.688,0,0,0,2.688,2.688H129.6V16Z" transform="translate(-80.608 -7.328)" fill="#469c65"/>
      <path id="Path_979418" data-name="Path 979418" d="M16,368H32.129v8.064H16Z" transform="translate(-7.328 -329.758)" fill="#e6b25e"/>
      <path id="Path_979419" data-name="Path 979419" d="M42.016,368A2.016,2.016,0,0,0,40,370.016v4.032a2.016,2.016,0,0,0,2.016,2.016h12.1V368Z" transform="translate(-29.312 -329.758)" fill="#f3d16e"/>
      <path id="Path_979420" data-name="Path 979420" d="M48,56h4.032v6.72H48Z" transform="translate(-36.64 -43.968)" fill="#e6b25e"/>
      <path id="Path_979421" data-name="Path 979421" d="M65.344,56A1.344,1.344,0,0,0,64,57.344v4.032a1.344,1.344,0,0,0,1.344,1.344h1.344V56Z" transform="translate(-51.296 -43.968)" fill="#f3d16e"/>
      <path id="Path_979422" data-name="Path 979422" d="M16,72h2.688v4.032H16Z" transform="translate(-7.328 -58.624)" fill="#c8cded"/>
      <path id="Path_979423" data-name="Path 979423" d="M32,73.344v1.344a1.344,1.344,0,0,0,1.344,1.344V72A1.344,1.344,0,0,0,32,73.344Z" transform="translate(-21.984 -58.624)" fill="#e2e7f6"/>
      <path id="Path_979424" data-name="Path 979424" d="M368,240h2.688v18.817H368Z" transform="translate(-329.758 -212.511)" fill="#e6b25e"/>
      <path id="Path_979425" data-name="Path 979425" d="M384,241.344v16.129a1.344,1.344,0,0,0,1.344,1.344V240A1.344,1.344,0,0,0,384,241.344Z" transform="translate(-344.414 -212.511)" fill="#f3d16e"/>
      <path id="Path_979426" data-name="Path 979426" d="M432,240h2.688v18.817H432Z" transform="translate(-388.382 -212.511)" fill="#e6b25e"/>
      <path id="Path_979427" data-name="Path 979427" d="M448,241.344v16.129a1.344,1.344,0,0,0,1.344,1.344V240A1.344,1.344,0,0,0,448,241.344Z" transform="translate(-403.038 -212.511)" fill="#f3d16e"/>
      <ellipse id="Ellipse_11639" data-name="Ellipse 11639" cx="1.5" cy="1" rx="1.5" ry="1" transform="translate(43.833 16.833)" fill="#e6b25e"/>
      <ellipse id="Ellipse_11640" data-name="Ellipse 11640" cx="0.672" cy="1.158" rx="0.672" ry="1.158" transform="translate(44.962 16.923)" fill="#f3d16e"/>
      <circle id="Ellipse_11641" data-name="Ellipse 11641" cx="1.5" cy="1.5" r="1.5" transform="translate(43.833 21.833)" fill="#e6b25e"/>
      <ellipse id="Ellipse_11642" data-name="Ellipse 11642" cx="0.672" cy="1.158" rx="0.672" ry="1.158" transform="translate(44.962 22.299)" fill="#f3d16e"/>
      <path id="Path_979428" data-name="Path 979428" d="M240,368h2.688v2.688H240Z" transform="translate(-212.511 -329.758)" fill="#c8cded"/>
      <path id="Path_979429" data-name="Path 979429" d="M256.672,368a.672.672,0,0,0-.672.672v1.344a.672.672,0,0,0,.672.672h.672V368Z" transform="translate(-227.167 -329.758)" fill="#e2e7f6"/>
      <path id="Path_979430" data-name="Path 979430" d="M304,432h2.688v2.688H304Z" transform="translate(-271.134 -388.382)" fill="#c8cded"/>
      <path id="Path_979431" data-name="Path 979431" d="M320.672,432a.672.672,0,0,0-.672.672v1.344a.672.672,0,0,0,.672.672h.672V432Z" transform="translate(-285.79 -388.382)" fill="#e2e7f6"/>
      <path id="Path_979432" data-name="Path 979432" d="M304,368h2.688v2.688H304Z" transform="translate(-271.134 -329.758)" fill="#c8cded"/>
      <path id="Path_979433" data-name="Path 979433" d="M320.672,368a.672.672,0,0,0-.672.672v1.344a.672.672,0,0,0,.672.672h.672V368Z" transform="translate(-285.79 -329.758)" fill="#e2e7f6"/>
      <path id="Path_979434" data-name="Path 979434" d="M48,168h4.032v6.72H48Z" transform="translate(-36.64 -146.559)" fill="#e6b25e"/>
      <path id="Path_979435" data-name="Path 979435" d="M65.344,168A1.344,1.344,0,0,0,64,169.344v4.032a1.344,1.344,0,0,0,1.344,1.344h1.344V168Z" transform="translate(-51.296 -146.559)" fill="#f3d16e"/>
      <path id="Path_979436" data-name="Path 979436" d="M16,184h2.688v4.032H16Z" transform="translate(-7.328 -161.215)" fill="#c8cded"/>
      <path id="Path_979437" data-name="Path 979437" d="M32,185.344v1.344a1.344,1.344,0,0,0,1.344,1.344V184A1.344,1.344,0,0,0,32,185.344Z" transform="translate(-21.984 -161.215)" fill="#e2e7f6"/>
      <path id="Path_979438" data-name="Path 979438" d="M240,432h2.688v2.688H240Z" transform="translate(-212.511 -388.382)" fill="#c8cded"/>
      <path id="Path_979439" data-name="Path 979439" d="M256.672,432a.672.672,0,0,0-.672.672v1.344a.672.672,0,0,0,.672.672h.672V432Z" transform="translate(-227.167 -388.382)" fill="#e2e7f6"/>
      <path id="Path_979440" data-name="Path 979440" d="M168,72h13.441V85.441H168Z" transform="translate(-146.559 -58.624)" fill="#e6b25e"/>
      <path id="Path_979441" data-name="Path 979441" d="M216,120h5.376v5.376H216Z" transform="translate(-190.527 -102.591)" fill="#f3d16e"/>
      <path id="Path_979442" data-name="Path 979442" d="M368,48h2.688v2.688H368Z" transform="translate(-329.758 -36.64)" fill="#c8cded"/>
      <path id="Path_979443" data-name="Path 979443" d="M384.672,48a.672.672,0,0,0-.672.672v1.344a.672.672,0,0,0,.672.672h.672V48Z" transform="translate(-344.414 -36.64)" fill="#e2e7f6"/>
      <path id="Path_979444" data-name="Path 979444" d="M432,48h2.688v2.688H432Z" transform="translate(-388.382 -36.64)" fill="#c8cded"/>
      <path id="Path_979445" data-name="Path 979445" d="M448.672,48a.672.672,0,0,0-.672.672v1.344a.672.672,0,0,0,.672.672h.672V48Z" transform="translate(-403.038 -36.64)" fill="#e2e7f6"/>
      <path id="Path_979446" data-name="Path 979446" d="M44.29,48.322H14.048V46.978H24.8a.672.672,0,0,0,.672-.672V38.242a.672.672,0,0,0-.672-.672h-6.72a.672.672,0,0,0,0,1.344h6.048v1.344H9.344V38.914h6.048a.672.672,0,1,0,0-1.344H14.048V28.833h1.344a.672.672,0,0,0,.672-.672v-6.72a.672.672,0,0,0-.672-.672H14.048V19.425h1.344a.672.672,0,0,0,.672-.672v-6.72a.672.672,0,0,0-.672-.672H14.048V9.344h1.344a.672.672,0,1,0,0-1.344H13.376a.672.672,0,0,0-.672.672V11.36H11.36a.672.672,0,0,0-.672.672V12.7H8.672A.672.672,0,0,0,8,13.376v4.032a.672.672,0,0,0,.672.672h2.016v.672a.672.672,0,0,0,.672.672H12.7v1.344H11.36a.672.672,0,0,0-.672.672v.672H8.672A.672.672,0,0,0,8,22.785v4.032a.672.672,0,0,0,.672.672h2.016v.672a.672.672,0,0,0,.672.672H12.7V37.57H8.672A.672.672,0,0,0,8,38.242v8.064a.672.672,0,0,0,.672.672H12.7v2.016a.672.672,0,0,0,.672.672H44.29a.672.672,0,0,0,0-1.344ZM9.344,16.737V14.048h1.344v2.688ZM12.032,12.7H14.72v5.376H12.032ZM9.344,26.145V23.457h1.344v2.688Zm2.688-4.032H14.72v5.376H12.032ZM24.129,41.6v1.344H9.344V41.6ZM9.344,44.29H24.129v1.344H9.344Z"/>
      <path id="Path_979447" data-name="Path 979447" d="M151.579,8H120.664a.672.672,0,1,0,0,1.344h30.242V48.322h-1.344a.672.672,0,1,0,0,1.344h2.016a.672.672,0,0,0,.672-.672V8.672A.672.672,0,0,0,151.579,8Z" transform="translate(-102.584)"/>
      <path id="Path_979448" data-name="Path 979448" d="M136.672,52.769a.672.672,0,1,0,0,1.344h1.344v2.016a.672.672,0,0,0,.672.672H140.7v1.344a.672.672,0,1,0,1.344,0V56.8h1.344v1.344a.672.672,0,1,0,1.344,0V56.8h1.344v1.344a.672.672,0,1,0,1.344,0V56.8h1.344v1.344a.672.672,0,1,0,1.344,0V56.8h2.016a.672.672,0,0,0,.672-.672V54.113h1.344a.672.672,0,1,0,0-1.344H152.8V51.425h1.344a.672.672,0,1,0,0-1.344H152.8V48.737h1.344a.672.672,0,1,0,0-1.344H152.8V46.048h1.344a.672.672,0,1,0,0-1.344H152.8V42.688a.672.672,0,0,0-.672-.672h-2.016V40.672a.672.672,0,1,0-1.344,0v1.344h-1.344V40.672a.672.672,0,0,0-1.344,0v1.344h-1.344V40.672a.672.672,0,0,0-1.344,0v1.344h-1.344V40.672a.672.672,0,1,0-1.344,0v1.344h-2.016a.672.672,0,0,0-.672.672V44.7h-1.344a.672.672,0,1,0,0,1.344h1.344v1.344h-1.344a.672.672,0,1,0,0,1.344h1.344v1.344h-1.344a.672.672,0,1,0,0,1.344h1.344v1.344Zm2.688-9.409h12.1v12.1h-12.1Z" transform="translate(-117.247 -29.312)"/>
      <path id="Path_979449" data-name="Path 979449" d="M208.672,118.72h5.376a.672.672,0,0,0,.672-.672v-5.376a.672.672,0,0,0-.672-.672H212.7a.672.672,0,0,0,0,1.344h.672v4.032h-4.032v-4.032h.672a.672.672,0,0,0,0-1.344h-1.344a.672.672,0,0,0-.672.672v5.376A.672.672,0,0,0,208.672,118.72Z" transform="translate(-183.199 -95.263)"/>
      <path id="Path_979450" data-name="Path 979450" d="M360,234.688a.672.672,0,1,0,1.344,0v-1.344h1.344v17.473h-1.344V237.376a.672.672,0,1,0-1.344,0v14.113a.672.672,0,0,0,.672.672h2.688a.672.672,0,0,0,.672-.672V232.672a.672.672,0,0,0-.672-.672h-2.688a.672.672,0,0,0-.672.672Z" transform="translate(-322.43 -205.183)"/>
      <path id="Path_979451" data-name="Path 979451" d="M424,251.489a.672.672,0,0,0,.672.672h2.688a.672.672,0,0,0,.672-.672V232.672a.672.672,0,0,0-.672-.672h-2.688a.672.672,0,0,0-.672.672Zm1.344-18.145h1.344v17.473h-1.344Z" transform="translate(-381.054 -205.183)"/>
      <path id="Path_979452" data-name="Path 979452" d="M360.672,44.032h2.688a.672.672,0,0,0,.672-.672V40.672A.672.672,0,0,0,363.36,40h-2.688a.672.672,0,0,0-.672.672V43.36A.672.672,0,0,0,360.672,44.032Zm.672-2.688h1.344v1.344h-1.344Z" transform="translate(-322.43 -29.312)"/>
      <path id="Path_979453" data-name="Path 979453" d="M427.36,44.032a.672.672,0,0,0,.672-.672V40.672A.672.672,0,0,0,427.36,40h-2.688a.672.672,0,0,0-.672.672V43.36a.672.672,0,0,0,.672.672Zm-2.016-2.688h1.344v1.344h-1.344Z" transform="translate(-381.054 -29.312)"/>
      <path id="Path_979454" data-name="Path 979454" d="M426.016,108.032A2.016,2.016,0,1,0,424,106.016,2.016,2.016,0,0,0,426.016,108.032Zm0-2.688a.672.672,0,1,1-.672.672A.672.672,0,0,1,426.016,105.344Z" transform="translate(-381.054 -87.936)"/>
      <path id="Path_979455" data-name="Path 979455" d="M426.016,172.032a2.016,2.016,0,1,0,0-4.032.672.672,0,1,0,0,1.344.672.672,0,1,1-.672.672.672.672,0,1,0-1.344,0,2.018,2.018,0,0,0,2.016,2.016Z" transform="translate(-381.054 -146.559)"/>
      <path id="Path_979456" data-name="Path 979456" d="M98.016,320H96.672a.672.672,0,0,0,0,1.344h1.344a.672.672,0,0,0,0-1.344Z" transform="translate(-80.608 -285.79)"/>
      <path id="Path_979457" data-name="Path 979457" d="M98.016,288H96.672a.672.672,0,0,0,0,1.344h1.344a.672.672,0,0,0,0-1.344Z" transform="translate(-80.608 -256.479)"/>
      <path id="Path_979458" data-name="Path 979458" d="M146.016,288h-1.344a.672.672,0,1,0,0,1.344h1.344a.672.672,0,1,0,0-1.344Z" transform="translate(-124.575 -256.479)"/>
      <path id="Path_979459" data-name="Path 979459" d="M146.016,320h-1.344a.672.672,0,1,0,0,1.344h1.344a.672.672,0,1,0,0-1.344Z" transform="translate(-124.575 -285.79)"/>
      <path id="Path_979460" data-name="Path 979460" d="M235.36,424h-2.688a.672.672,0,0,0-.672.672v2.688a.672.672,0,0,0,.672.672h2.688a.672.672,0,0,0,.672-.672v-2.688A.672.672,0,0,0,235.36,424Zm-.672,2.688h-1.344v-1.344h1.344Z" transform="translate(-205.183 -381.054)"/>
      <path id="Path_979461" data-name="Path 979461" d="M236.032,360.672a.672.672,0,0,0-.672-.672h-2.688a.672.672,0,0,0-.672.672v2.688a.672.672,0,0,0,.672.672h2.688a.672.672,0,0,0,.672-.672Zm-1.344,2.016h-1.344v-1.344h1.344Z" transform="translate(-205.183 -322.43)"/>
      <path id="Path_979462" data-name="Path 979462" d="M299.36,424h-2.688a.672.672,0,0,0-.672.672v2.688a.672.672,0,0,0,.672.672h2.688a.672.672,0,0,0,.672-.672v-2.688A.672.672,0,0,0,299.36,424Zm-.672,2.688h-1.344v-1.344h1.344Z" transform="translate(-263.807 -381.054)"/>
      <path id="Path_979463" data-name="Path 979463" d="M300.032,360.672a.672.672,0,0,0-.672-.672h-2.688a.672.672,0,0,0-.672.672v2.688a.672.672,0,0,0,.672.672h2.688a.672.672,0,0,0,.672-.672Zm-1.344,2.016h-1.344v-1.344h1.344Z" transform="translate(-263.807 -322.43)"/>
    </g>
  </g>
</svg>
