<svg xmlns="http://www.w3.org/2000/svg" xmlns:xlink="http://www.w3.org/1999/xlink" width="108" height="108" viewBox="0 0 108 108">
  <defs>
    <filter id="Ellipse_11513" x="0" y="0" width="108" height="108" filterUnits="userSpaceOnUse">
      <feOffset dy="3" input="SourceAlpha"/>
      <feGaussianBlur stdDeviation="3" result="blur"/>
      <feFlood flood-opacity="0.161"/>
      <feComposite operator="in" in2="blur"/>
      <feComposite in="SourceGraphic"/>
    </filter>
  </defs>
  <g id="Group_1144329" data-name="Group 1144329" transform="translate(-197.378 -1056.012)">
    <g id="Group_1143830" data-name="Group 1143830" transform="translate(4.184 714.012)">
      <g id="Group_1143731" data-name="Group 1143731" transform="translate(0.093 1)">
        <g id="Group_1143472" data-name="Group 1143472" transform="translate(6.202 -815.899)">
          <g transform="matrix(1, 0, 0, 1, 186.9, 1156.9)" filter="url(#Ellipse_11513)">
            <g id="Ellipse_11513-2" data-name="Ellipse 11513" transform="translate(9 6)" fill="#edf5fb" stroke="#2f5b79" stroke-width="3">
              <circle cx="45" cy="45" r="45" stroke="none"/>
              <circle cx="45" cy="45" r="43.5" fill="none"/>
            </g>
          </g>
        </g>
      </g>
    </g>
    <g id="Future_Technology" data-name="Future Technology" transform="translate(220.713 1080.391)">
      <path id="Path_978977" data-name="Path 978977" d="M55.45,49.192l-8.613,7.656a1.92,1.92,0,0,1,1.914,1.914v1.914H31.527v-.957L21,54.934V43.45l3.828-1.914V26.225a1.92,1.92,0,0,1,1.914-1.914h1.914v-13.4A1.92,1.92,0,0,1,30.57,9h1.914A1.92,1.92,0,0,1,34.4,10.914v8.613h3.828a1.92,1.92,0,0,1,1.914,1.914V22.4h3.828a1.92,1.92,0,0,1,1.914,1.914v.957h3.828a1.92,1.92,0,0,1,1.914,1.914V38.666l3.828,2.871Z" transform="translate(-0.861 -0.388)" fill="#7d8d9c"/>
      <path id="Path_978978" data-name="Path 978978" d="M38,38h5.742v4.785H38Z" transform="translate(-1.593 -1.636)" fill="#5f6e84"/>
      <path id="Path_978979" data-name="Path 978979" d="M52.742,27.914V37.1L47,33.656V26h3.828A1.92,1.92,0,0,1,52.742,27.914Z" transform="translate(-1.98 -1.119)" fill="#4a566b"/>
      <path id="Path_978980" data-name="Path 978980" d="M34.742,10.914v22.01l-3.828,2.3v-9A1.92,1.92,0,0,0,29,24.311v-13.4A1.92,1.92,0,0,1,30.914,9h1.914a1.92,1.92,0,0,1,1.914,1.914Z" transform="translate(-1.206 -0.388)" fill="#5f6e84"/>
      <path id="Path_978981" data-name="Path 978981" d="M30.742,26.914v2.871H25V26.914A1.92,1.92,0,0,1,26.914,25h1.914A1.92,1.92,0,0,1,30.742,26.914Z" transform="translate(-1.034 -1.076)" fill="#4a566b"/>
      <path id="Path_978982" data-name="Path 978982" d="M40.742,21.914V33.4H35V20h3.828a1.92,1.92,0,0,1,1.914,1.914Z" transform="translate(-1.464 -0.861)" fill="#4a566b"/>
      <path id="Path_978983" data-name="Path 978983" d="M46.742,24.914v8.613H41V23h3.828A1.92,1.92,0,0,1,46.742,24.914Z" transform="translate(-1.722 -0.99)" fill="#5f6e84"/>
      <path id="Path_978984" data-name="Path 978984" d="M52.742,27.914v2.871H47V26h3.828A1.92,1.92,0,0,1,52.742,27.914Z" transform="translate(-1.98 -1.119)" fill="#3e485b"/>
      <path id="Path_978985" data-name="Path 978985" d="M29,14h5.742v5.742H29Z" transform="translate(-1.206 -0.603)" fill="#4a566b"/>
      <circle id="Ellipse_11611" data-name="Ellipse 11611" cx="2.871" cy="2.871" r="2.871" transform="translate(49.804 7.656)" fill="#5f6e84"/>
      <circle id="Ellipse_11612" data-name="Ellipse 11612" cx="2.871" cy="2.871" r="2.871" transform="translate(54.589 1.914)" fill="#5f6e84"/>
      <circle id="Ellipse_11613" data-name="Ellipse 11613" cx="2.871" cy="2.871" r="2.871" transform="translate(54.589 13.397)" fill="#5f6e84"/>
      <circle id="Ellipse_11614" data-name="Ellipse 11614" cx="2.871" cy="2.871" r="2.871" transform="translate(5.784 7.656)" fill="#5f6e84"/>
      <circle id="Ellipse_11615" data-name="Ellipse 11615" cx="2.871" cy="2.871" r="2.871" transform="translate(0.999 1.914)" fill="#5f6e84"/>
      <circle id="Ellipse_11616" data-name="Ellipse 11616" cx="2.871" cy="2.871" r="2.871" transform="translate(0.999 13.397)" fill="#5f6e84"/>
      <path id="Path_978986" data-name="Path 978986" d="M34,49H47.4v9.57H34Z" transform="translate(-1.421 -2.109)" fill="#5f6e84"/>
      <path id="Path_978987" data-name="Path 978987" d="M41,49h6.7v9.57H41Z" transform="translate(-1.722 -2.109)" fill="#4a566b"/>
      <path id="Path_978988" data-name="Path 978988" d="M40.742,21.914v2.871H35V20h3.828a1.92,1.92,0,0,1,1.914,1.914Z" transform="translate(-1.464 -0.861)" fill="#3e485b"/>
      <path id="Path_978989" data-name="Path 978989" d="M46.742,24.914v2.871H41V23h3.828A1.92,1.92,0,0,1,46.742,24.914Z" transform="translate(-1.722 -0.99)" fill="#7d8d9c"/>
      <path id="Path_978990" data-name="Path 978990" d="M38,38h2.871v4.785H38Z" transform="translate(-1.593 -1.636)" fill="#4a566b"/>
      <circle id="Ellipse_11617" data-name="Ellipse 11617" cx="1.914" cy="1.914" r="1.914" transform="translate(37.364 44.977)" fill="#3e485b"/>
      <path id="Path_978991" data-name="Path 978991" d="M33.44,48.742v9.57a1.92,1.92,0,0,0-1.914,1.914v.957L21,56.4V44.914L24.828,43Z" transform="translate(-0.861 -1.851)" fill="#4a566b"/>
      <path id="Path_978992" data-name="Path 978992" d="M47.311,59h-13.4A1.914,1.914,0,0,0,32,60.914v1.914H49.225V60.914A1.914,1.914,0,0,0,47.311,59Z" transform="translate(-1.335 -2.54)" fill="#3e485b"/>
      <path id="Path_978993" data-name="Path 978993" d="M56.613,42.871v7.656L48,58.182v-9.57l4.785-5.742V40Z" transform="translate(-2.024 -1.722)" fill="#5f6e84"/>
      <g id="Group_1144337" data-name="Group 1144337" transform="translate(0.987 -0.003)">
        <path id="Path_978994" data-name="Path 978994" d="M52.537,38.144V27.139a2.874,2.874,0,0,0-2.871-2.871H46.795A2.874,2.874,0,0,0,43.924,21.4H41.053a2.874,2.874,0,0,0-2.871-2.871H35.311V10.871A2.874,2.874,0,0,0,32.44,8H30.527a2.874,2.874,0,0,0-2.871,2.871v12.44H26.7a2.874,2.874,0,0,0-2.871,2.871V40.9l-3.3,1.649a.957.957,0,0,0-.529.856V54.891a.956.956,0,0,0,.561.871l9.965,4.53v.341a.957.957,0,0,0,.957.957H48.709a.957.957,0,0,0,.957-.957V58.719a2.855,2.855,0,0,0-1.08-2.226l7.458-6.629a.957.957,0,0,0,.321-.715V41.493a.956.956,0,0,0-.383-.765Zm-18.182,17.7V48.192H37.4a2.866,2.866,0,0,0,1.738,1.738v5.918ZM40.1,48.192a.957.957,0,1,1,.957-.957.957.957,0,0,1-.957.957Zm.957,1.738a2.867,2.867,0,0,0,1.738-1.738h3.047v7.656H41.053Zm5.294-3.651H42.791a2.854,2.854,0,0,0-5.389,0H33.687l-7.945-5.3V30.01H29.57v6.7a.957.957,0,1,0,1.914,0V35.72l3.136-1.882H45.573l5.05,3.03v4.279Zm4.276-11.643-3.828-2.3V30.967h3.828Zm-5.742-2.712H41.053V28.1h3.828Zm-5.742,0H35.311v-6.7h3.828Zm-9.57-13.4V14.7H33.4v3.828Zm0,1.914H33.4v11.9l-1.914,1.149V26.182a2.866,2.866,0,0,0-1.914-2.695Zm20.1,5.742a.958.958,0,0,1,.957.957v1.914H46.795V26.182Zm-5.742-2.871a.958.958,0,0,1,.957.957v1.914H41.053V23.311ZM39.139,21.4v1.914H35.311V20.44h2.871a.958.958,0,0,1,.957.957ZM30.527,9.914H32.44a.958.958,0,0,1,.957.957v1.914H29.57V10.871a.958.958,0,0,1,.957-.957ZM26.7,25.225h1.914a.958.958,0,0,1,.957.957V28.1H25.742V26.182a.958.958,0,0,1,.957-.957ZM21.914,44l2.8-1.4,7.724,5.15v8.277a2.866,2.866,0,0,0-1.863,2.189l-8.664-3.938ZM47.752,59.676H32.44v-.957a.958.958,0,0,1,.957-.957h13.4a.958.958,0,0,1,.957.957Zm6.7-10.956-6.7,5.955V47.582l4.563-5.475a.957.957,0,0,0,.222-.613v-.957l1.914,1.435Z" transform="translate(-1.806 -0.341)" fill="#1b2028"/>
        <path id="Path_978995" data-name="Path 978995" d="M43.7,37H37.957a.957.957,0,0,0-.957.957v4.785a.957.957,0,0,0,.957.957H43.7a.957.957,0,0,0,.957-.957V37.957A.957.957,0,0,0,43.7,37Zm-4.785,1.914h.957v2.871h-.957Zm3.828,2.871h-.957V38.914h.957Z" transform="translate(-2.537 -1.59)" fill="#1b2028"/>
        <path id="Path_978996" data-name="Path 978996" d="M24.157,18.041A.957.957,0,1,0,25.5,16.676a8.612,8.612,0,1,1,14.64-6.15A8.443,8.443,0,0,1,38.877,15,.957.957,0,1,0,40.5,16.008a10.347,10.347,0,0,0,1.552-5.482,10.527,10.527,0,1,0-17.9,7.515Z" transform="translate(-1.849 0.003)" fill="#1b2028"/>
        <path id="Path_978997" data-name="Path 978997" d="M27.037,5.967A.957.957,0,1,0,28.4,7.315a4.773,4.773,0,0,1,6.756,0,.957.957,0,1,0,1.36-1.348,6.688,6.688,0,0,0-9.475,0Z" transform="translate(-2.097 -0.169)" fill="#1b2028"/>
        <path id="Path_978998" data-name="Path 978998" d="M44.829,10.537a12.372,12.372,0,0,1-1.918,6.636A.957.957,0,0,0,44.527,18.2,14.327,14.327,0,0,0,42.662.528.957.957,0,1,0,41.3,1.87a12.274,12.274,0,0,1,3.531,8.667Z" transform="translate(-2.711 -0.007)" fill="#1b2028"/>
        <path id="Path_978999" data-name="Path 978999" d="M20.537,18.494a.957.957,0,0,0,.3-1.32,12.418,12.418,0,0,1,1.613-15.3A.957.957,0,1,0,21.081.528,14.327,14.327,0,0,0,19.216,18.2a.957.957,0,0,0,1.32.3Z" transform="translate(-1.677 -0.007)" fill="#1b2028"/>
        <path id="Path_979000" data-name="Path 979000" d="M54.742,8a2.866,2.866,0,0,0-2.695,1.914h-2.09a.957.957,0,1,0,0,1.914h2.09A2.866,2.866,0,1,0,54.742,8Zm0,3.828a.957.957,0,1,1,.957-.957A.957.957,0,0,1,54.742,11.828Z" transform="translate(-3.054 -0.341)" fill="#1b2028"/>
        <path id="Path_979001" data-name="Path 979001" d="M47.957,5.828h8.789a2.871,2.871,0,1,0,0-1.914H47.957a.957.957,0,1,0,0,1.914ZM59.44,3.914a.957.957,0,1,1-.957.957.957.957,0,0,1,.957-.957Z" transform="translate(-2.968 -0.083)" fill="#1b2028"/>
        <path id="Path_979002" data-name="Path 979002" d="M59.44,14a2.866,2.866,0,0,0-2.695,1.914H47.957a.957.957,0,1,0,0,1.914h8.789A2.866,2.866,0,1,0,59.44,14Zm0,3.828a.957.957,0,1,1,.957-.957A.957.957,0,0,1,59.44,17.828Z" transform="translate(-2.968 -0.6)" fill="#1b2028"/>
        <path id="Path_979003" data-name="Path 979003" d="M11.565,9.914a2.871,2.871,0,1,0,0,1.914h2.09a.957.957,0,1,0,0-1.914ZM8.87,11.828a.957.957,0,1,1,.957-.957A.957.957,0,0,1,8.87,11.828Z" transform="translate(-1.203 -0.341)" fill="#1b2028"/>
        <path id="Path_979004" data-name="Path 979004" d="M3.871,7.742A2.866,2.866,0,0,0,6.565,5.828h8.789a.957.957,0,1,0,0-1.914H6.565A2.866,2.866,0,1,0,3.871,7.742Zm0-3.828a.957.957,0,1,1-.957.957.957.957,0,0,1,.957-.957Z" transform="translate(-0.988 -0.084)" fill="#1b2028"/>
        <path id="Path_979005" data-name="Path 979005" d="M15.354,15.914H6.565a2.871,2.871,0,1,0,0,1.914h8.789a.957.957,0,1,0,0-1.914ZM3.87,17.828a.957.957,0,1,1,.957-.957A.957.957,0,0,1,3.87,17.828Z" transform="translate(-0.987 -0.6)" fill="#1b2028"/>
      </g>
    </g>
  </g>
</svg>
