<svg xmlns="http://www.w3.org/2000/svg" xmlns:xlink="http://www.w3.org/1999/xlink" width="91" height="91" viewBox="0 0 91 91">
  <defs>
    <filter id="Ellipse_11513" x="0" y="0" width="91" height="91" filterUnits="userSpaceOnUse">
      <feOffset dy="3" input="SourceAlpha"/>
      <feGaussianBlur stdDeviation="3" result="blur"/>
      <feFlood flood-opacity="0.161"/>
      <feComposite operator="in" in2="blur"/>
      <feComposite in="SourceGraphic"/>
    </filter>
  </defs>
  <g id="Group_1144322" data-name="Group 1144322" transform="translate(-1227 -725)">
    <g id="Group_1143817" data-name="Group 1143817" transform="translate(0 -199)">
      <g id="Group_1143705" data-name="Group 1143705" transform="translate(1236.024 930)">
        <g id="Group_1143465" data-name="Group 1143465">
          <g transform="matrix(1, 0, 0, 1, -9.02, -6)" filter="url(#Ellipse_11513)">
            <g id="Ellipse_11513-2" data-name="Ellipse 11513" transform="translate(9 6)" fill="#f7eafc" stroke="#652180" stroke-width="3">
              <circle cx="36.5" cy="36.5" r="36.5" stroke="none"/>
              <circle cx="36.5" cy="36.5" r="35" fill="none"/>
            </g>
          </g>
        </g>
      </g>
    </g>
    <g id="robotic-hand_15443226" transform="translate(1187.031 728.913)">
      <path id="Path_978943" data-name="Path 978943" d="M236.737,305.179v9.755a9.763,9.763,0,0,0,9.752,9.751h5.484a9.764,9.764,0,0,0,9.755-9.751v-9.755Z" transform="translate(-155.267 -259.328)" fill="#d8ecfe"/>
      <path id="Path_978944" data-name="Path 978944" d="M108.244,45.85V39.164a1.771,1.771,0,0,0-1.769-1.769h-4.939a1.768,1.768,0,0,0-.2.012,1.939,1.939,0,0,0-1.725-1.059h-4.6a1.925,1.925,0,0,0-1.047.309,1.925,1.925,0,0,0-1.047-.309h-4.6c-.052,0-.1,0-.155.008V34.966a.892.892,0,0,0-.892-.892h-.307v-4.2h.307a.892.892,0,0,0,.892-.892V21.434a4.24,4.24,0,0,0-8.48,0V28.98a.892.892,0,0,0,.892.892h.307v4.2h-.3a.892.892,0,0,0-.892.892V47.788L77.969,46.5V41.944a5.271,5.271,0,0,0-5.264-5.267H72.47a2.416,2.416,0,0,0-2.415,2.411V50a.891.891,0,0,0,.262.632L81.444,61.718a11.627,11.627,0,0,0,2.478,2.812v5.752a.892.892,0,0,0,.892.892h18.3a.892.892,0,0,0,.892-.892v-5.75a11.516,11.516,0,0,0,4.239-8.926V45.85Zm-1.783-1.783h-4.91V39.179h4.91ZM95.013,38.132h4.6a.162.162,0,0,1,.155.155v5.78h-4.91v-5.78a.159.159,0,0,1,.155-.155Zm-6.693,0h4.6a.162.162,0,0,1,.156.155v5.78h-4.91v-5.78A.159.159,0,0,1,88.319,38.132Zm-6.853-16.7a2.457,2.457,0,0,1,4.914,0v6.654H81.467Zm1.2,8.437h2.517v4.2H82.665Zm-1.2,5.986h4.91v8.21H81.47Zm-9.632,3.231a.631.631,0,0,1,.632-.628H72.7a3.486,3.486,0,0,1,3.48,3.484v2.563H71.838Zm0,10.543V46.291h4.347v.657a.892.892,0,0,0,.357.714l3.145,2.354v5.59a11.552,11.552,0,0,0,.178,2.022l-8.027-8ZM102.223,69.39H85.705V65.733a11.464,11.464,0,0,0,5.517,1.407h5.484a11.469,11.469,0,0,0,5.517-1.406V69.39Zm4.239-13.784a9.764,9.764,0,0,1-9.755,9.752H91.222a9.763,9.763,0,0,1-9.752-9.752V45.851h24.991ZM97.153,49.57h5.177a.892.892,0,0,1,0,1.783H97.153a.892.892,0,0,1,0-1.783ZM61.816,24.676a3.009,3.009,0,0,0,2.868-2.112h3.964a15.3,15.3,0,0,0,.555,3.289H67.484a.892.892,0,0,0-.772.446l-1.781,3.085a3.014,3.014,0,1,0,1.566.854l1.5-2.6h1.832a15.321,15.321,0,0,0,4.2,5.713.892.892,0,0,0,1.153-1.36,13.523,13.523,0,0,1,0-20.638.891.891,0,1,0-1.153-1.36,15.32,15.32,0,0,0-4.2,5.713H68l-1.5-2.6a3,3,0,1,0-1.566.854l1.781,3.085a.892.892,0,0,0,.772.446H69.2a15.3,15.3,0,0,0-.556,3.293H64.685a3.005,3.005,0,1,0-2.869,3.9Zm2.527,8.882a1.224,1.224,0,1,1,1.224-1.224A1.226,1.226,0,0,1,64.343,33.558Zm-1.224-22.55a1.224,1.224,0,1,1,1.224,1.224A1.225,1.225,0,0,1,63.119,11.008Zm-1.3,9.441a1.222,1.222,0,1,1-1.224,1.224A1.224,1.224,0,0,1,61.816,20.449Zm44.219-1.783a3.012,3.012,0,0,0-2.872,2.116H99.2a15.3,15.3,0,0,0-.556-3.293h1.72a.892.892,0,0,0,.772-.446l1.781-3.085a3.014,3.014,0,1,0-1.566-.854l-1.5,2.6H98.015a15.32,15.32,0,0,0-4.2-5.713.891.891,0,1,0-1.153,1.36,13.523,13.523,0,0,1,0,20.638.892.892,0,1,0,1.153,1.36,15.32,15.32,0,0,0,4.2-5.713h1.832l1.5,2.6a3,3,0,1,0,1.566-.854L101.135,26.3a.891.891,0,0,0-.772-.446H98.644a15.283,15.283,0,0,0,.555-3.289h3.964a3.006,3.006,0,1,0,2.872-3.9ZM103.5,9.788a1.222,1.222,0,1,1-1.224,1.221A1.224,1.224,0,0,1,103.5,9.788Zm1.224,22.546A1.224,1.224,0,1,1,103.5,31.11,1.226,1.226,0,0,1,104.728,32.334Zm1.307-9.441a1.222,1.222,0,1,1,1.221-1.22A1.224,1.224,0,0,1,106.035,22.893ZM89.778,26.844a7.815,7.815,0,1,0-11.708,0,.891.891,0,1,1-1.335,1.181,9.6,9.6,0,1,1,14.379,0,.891.891,0,1,1-1.335-1.181Z" transform="translate(0)"/>
      <path id="Path_978945" data-name="Path 978945" d="M394.4,252.795h4.91v4.889H394.4Z" transform="translate(-292.848 -213.616)" fill="#8ac9fe"/>
      <path id="Path_978946" data-name="Path 978946" d="M165.456,250.638a3.486,3.486,0,0,0-3.48-3.484h-.235a.631.631,0,0,0-.632.628V253.2h4.347Z" transform="translate(-89.271 -208.694)" fill="#d8ecfe"/>
      <path id="Path_978947" data-name="Path 978947" d="M346.756,245.608v-.877a.162.162,0,0,0-.155-.155H342a.159.159,0,0,0-.155.155v5.78h4.91v-4.9Z" transform="translate(-246.989 -206.443)" fill="#8ac9fe"/>
      <path id="Path_978948" data-name="Path 978948" d="M168.958,312.362l-3.145-2.354a.891.891,0,0,1-.357-.714v-.657h-4.347v3.341l8.027,8a11.555,11.555,0,0,1-.178-2.022v-5.59Z" transform="translate(-89.271 -262.346)" fill="#8ac9fe"/>
      <path id="Path_978949" data-name="Path 978949" d="M401.349,24.473a1.222,1.222,0,1,0-1.224-1.224A1.225,1.225,0,0,0,401.349,24.473Z" transform="translate(-297.845 -12.24)" fill="#ffe177"/>
      <path id="Path_978950" data-name="Path 978950" d="M421.219,108.179a1.222,1.222,0,1,0-1.224-1.22A1.222,1.222,0,0,0,421.219,108.179Z" transform="translate(-315.184 -85.286)" fill="#6cf5c2"/>
      <path id="Path_978951" data-name="Path 978951" d="M401.349,191.889a1.224,1.224,0,1,0-1.224-1.224A1.226,1.226,0,0,0,401.349,191.889Z" transform="translate(-297.845 -158.331)" fill="#ffe177"/>
      <path id="Path_978952" data-name="Path 978952" d="M294.2,244.73a.162.162,0,0,0-.155-.155h-4.6a.159.159,0,0,0-.155.155v5.78h4.91Z" transform="translate(-201.127 -206.443)" fill="#8ac9fe"/>
      <path id="Path_978953" data-name="Path 978953" d="M93.877,22A1.224,1.224,0,1,0,95.1,23.224,1.226,1.226,0,0,0,93.877,22Z" transform="translate(-29.534 -12.216)" fill="#ffe177"/>
      <g id="Group_1144321" data-name="Group 1144321" transform="translate(81.467 18.979)">
        <path id="Path_978954" data-name="Path 978954" d="M275.5,462.7a11.464,11.464,0,0,1-5.517-1.407v3.657h16.517V461.29a11.471,11.471,0,0,1-5.517,1.406H275.5Z" transform="translate(-265.749 -414.535)" fill="#8ac9fe"/>
        <path id="Path_978955" data-name="Path 978955" d="M241.622,96.653a2.457,2.457,0,0,0-4.914,0v6.654h4.914Z" transform="translate(-236.708 -94.198)" fill="#8ac9fe"/>
        <path id="Path_978956" data-name="Path 978956" d="M236.737,234.926h4.91v-8.21h-4.91Z" transform="translate(-236.733 -209.838)" fill="#8ac9fe"/>
      </g>
      <path id="Path_978957" data-name="Path 978957" d="M246.12,179.718h2.517v4.2H246.12Z" transform="translate(-163.455 -149.847)" fill="#d8ecfe"/>
      <path id="Path_978958" data-name="Path 978958" d="M74.034,105.735a1.222,1.222,0,1,0,1.221,1.224A1.225,1.225,0,0,0,74.034,105.735Z" transform="translate(-12.218 -85.286)" fill="#6cf5c2"/>
      <path id="Path_978959" data-name="Path 978959" d="M93.877,189.441a1.224,1.224,0,1,0,1.224,1.224A1.226,1.226,0,0,0,93.877,189.441Z" transform="translate(-29.534 -158.331)" fill="#ffe177"/>
    </g>
  </g>
</svg>
