<svg xmlns="http://www.w3.org/2000/svg" xmlns:xlink="http://www.w3.org/1999/xlink" width="91" height="91" viewBox="0 0 91 91">
  <defs>
    <filter id="Ellipse_11513" x="0" y="0" width="91" height="91" filterUnits="userSpaceOnUse">
      <feOffset dy="3" input="SourceAlpha"/>
      <feGaussianBlur stdDeviation="3" result="blur"/>
      <feFlood flood-opacity="0.161"/>
      <feComposite operator="in" in2="blur"/>
      <feComposite in="SourceGraphic"/>
    </filter>
  </defs>
  <g id="Group_1144318" data-name="Group 1144318" transform="translate(-597 -725)">
    <g id="Group_1143812" data-name="Group 1143812" transform="translate(0 -199)">
      <g id="Group_1143703" data-name="Group 1143703" transform="translate(605.919 930)">
        <g id="Group_1143465" data-name="Group 1143465">
          <g transform="matrix(1, 0, 0, 1, -8.92, -6)" filter="url(#Ellipse_11513)">
            <g id="Ellipse_11513-2" data-name="Ellipse 11513" transform="translate(9 6)" fill="#f7eafc" stroke="#652180" stroke-width="3">
              <circle cx="36.5" cy="36.5" r="36.5" stroke="none"/>
              <circle cx="36.5" cy="36.5" r="35" fill="none"/>
            </g>
          </g>
        </g>
      </g>
    </g>
    <g id="settings_707400" transform="translate(612.279 737.279)">
      <path id="Path_978930" data-name="Path 978930" d="M64.552,41.567a1.43,1.43,0,0,0,1.414-1.274,29.119,29.119,0,0,0,0-6.915A1.43,1.43,0,0,0,64.552,32.1H60.981a24.465,24.465,0,0,0-3.725-9l2.524-2.524a1.43,1.43,0,0,0,.1-1.9,29.111,29.111,0,0,0-4.89-4.89,1.43,1.43,0,0,0-1.9.1l-2.524,2.524a24.467,24.467,0,0,0-9-3.725V9.12a1.43,1.43,0,0,0-1.274-1.414,29.109,29.109,0,0,0-6.915,0A1.43,1.43,0,0,0,32.1,9.12v3.571a24.465,24.465,0,0,0-9,3.725l-2.524-2.524a1.43,1.43,0,0,0-1.9-.1,29.112,29.112,0,0,0-4.89,4.89,1.43,1.43,0,0,0,.1,1.9l2.524,2.524a24.468,24.468,0,0,0-3.725,9H9.12a1.43,1.43,0,0,0-1.414,1.274,29.111,29.111,0,0,0,0,6.915A1.43,1.43,0,0,0,9.12,41.567h3.571a24.465,24.465,0,0,0,3.725,9l-2.524,2.524a1.43,1.43,0,0,0-.1,1.9,29.116,29.116,0,0,0,4.89,4.89,1.43,1.43,0,0,0,1.9-.1l2.524-2.524a24.466,24.466,0,0,0,9,3.725v3.571a1.43,1.43,0,0,0,1.274,1.414,29.118,29.118,0,0,0,6.915,0,1.43,1.43,0,0,0,1.274-1.414V60.981a24.465,24.465,0,0,0,9-3.725l2.524,2.524a1.43,1.43,0,0,0,1.9.1,29.117,29.117,0,0,0,4.89-4.89,1.43,1.43,0,0,0-.1-1.9l-2.524-2.524a24.466,24.466,0,0,0,3.725-9Z" transform="translate(-6.615 -6.615)" fill="#c0bcc1"/>
      <g id="Group_1144316" data-name="Group 1144316" transform="translate(0.885 6.864)">
        <circle id="Ellipse_11603" data-name="Ellipse 11603" cx="20.818" cy="20.818" r="20.818" transform="translate(8.517 2.482)" fill="#aea8af"/>
        <path id="Path_978931" data-name="Path 978931" d="M57.256,95.233a24.486,24.486,0,0,0,1.664-2.887,28.368,28.368,0,0,1-33-32.889,24.494,24.494,0,0,0-2.813,1.627l-2.524-2.524a1.43,1.43,0,0,0-1.9-.1,29.112,29.112,0,0,0-4.89,4.89,1.43,1.43,0,0,0,.1,1.9l2.524,2.524a24.468,24.468,0,0,0-3.725,9H9.12a1.43,1.43,0,0,0-1.414,1.274,29.119,29.119,0,0,0,0,6.915A1.43,1.43,0,0,0,9.12,86.236h3.571a24.465,24.465,0,0,0,3.725,9l-2.524,2.524a1.43,1.43,0,0,0-.1,1.9,29.116,29.116,0,0,0,4.89,4.89,1.43,1.43,0,0,0,1.9-.1l2.524-2.524a24.466,24.466,0,0,0,9,3.725v3.571a1.43,1.43,0,0,0,1.274,1.414,29.117,29.117,0,0,0,6.915,0,1.43,1.43,0,0,0,1.274-1.414v-3.571a24.465,24.465,0,0,0,9-3.725l2.524,2.524a1.431,1.431,0,0,0,1.9.1,29.116,29.116,0,0,0,4.89-4.89,1.43,1.43,0,0,0-.1-1.9Z" transform="translate(-7.5 -58.148)" fill="#aea8af"/>
      </g>
      <path id="Path_978932" data-name="Path 978932" d="M100.464,145.957a20.8,20.8,0,0,0,17.452-9.473c-.14,0-.278.01-.418.01a28.389,28.389,0,0,1-28.39-28.39c0-.14.007-.278.01-.418a20.817,20.817,0,0,0,11.346,38.271Z" transform="translate(-70.243 -94.973)" fill="#9c969e"/>
      <circle id="Ellipse_11604" data-name="Ellipse 11604" cx="17.98" cy="17.98" r="17.98" transform="translate(12.241 12.184)" fill="#87c37d"/>
      <circle id="Ellipse_11605" data-name="Ellipse 11605" cx="15.141" cy="15.141" r="15.141" transform="translate(15.08 15.023)" fill="#9bd278"/>
      <g id="Group_1144317" data-name="Group 1144317" transform="translate(17.919 19.755)">
        <circle id="Ellipse_11606" data-name="Ellipse 11606" cx="1.892" cy="1.892" r="1.892" transform="translate(1.892)" fill="#6f6571"/>
        <circle id="Ellipse_11607" data-name="Ellipse 11607" cx="1.892" cy="1.892" r="1.892" transform="translate(12.302 3.786)" fill="#6f6571"/>
        <circle id="Ellipse_11608" data-name="Ellipse 11608" cx="1.892" cy="1.892" r="1.892" transform="translate(6.625 12.302)" fill="#6f6571"/>
        <circle id="Ellipse_11609" data-name="Ellipse 11609" cx="1.892" cy="1.892" r="1.892" transform="translate(0 7.514)" fill="#6f6571"/>
      </g>
      <path id="Path_978933" data-name="Path 978933" d="M133.921,115.045a18.807,18.807,0,0,0-4.194-11.851.885.885,0,0,0-1.376,1.115c.107.132.21.265.313.4h-6.984a.061.061,0,0,1-.061-.061V99.269a17,17,0,0,1,4.185,2.493.885.885,0,0,0,1.115-1.376,18.867,18.867,0,0,0-26.534,26.534.885.885,0,1,0,1.376-1.115,17.1,17.1,0,0,1,12.45-27.822c.3-.015.6-.021.906-.02v4.008a1,1,0,0,1-.3.712l-2.676,2.677a1,1,0,0,1-.712.3h-2.261a2.778,2.778,0,1,0,0,1.771h2.261a2.76,2.76,0,0,0,1.964-.814l2.676-2.677a2.76,2.76,0,0,0,.814-1.964V98.06a17.088,17.088,0,0,1,2.961.585v6a1.834,1.834,0,0,0,1.832,1.832h8.166a16.994,16.994,0,0,1,1.359,2.961H119.582a2.778,2.778,0,1,0,0,1.771h12.134a17.125,17.125,0,0,1,.412,2.961h-9.663a2.76,2.76,0,0,0-1.965.814l-2.676,2.677a1,1,0,0,1-.712.3H113.9a2.778,2.778,0,1,0,0,1.771h3.208a2.76,2.76,0,0,0,1.964-.814l2.676-2.677a1,1,0,0,1,.712-.3h9.663a17.112,17.112,0,0,1-.414,2.961h-7.356a2.76,2.76,0,0,0-1.964.814l-5.516,5.516a2.76,2.76,0,0,0-.814,1.964v4.924l-.162.01a17.153,17.153,0,0,1-4.691-.415V127.2a2.76,2.76,0,0,0-.814-1.964l-4.569-4.569a1,1,0,0,1-.295-.712v-3.208a2.778,2.778,0,1,0-1.771,0v3.208a2.76,2.76,0,0,0,.814,1.964l4.569,4.569a1,1,0,0,1,.295.712v4.009a17,17,0,0,1-5.131-2.854.885.885,0,1,0-1.115,1.376,18.808,18.808,0,0,0,11.859,4.195q.467,0,.936-.023a18.866,18.866,0,0,0,17.91-17.91q.023-.462.022-.923s0-.006,0-.009A.114.114,0,0,0,133.921,115.045Zm-27.382-7.5a1.007,1.007,0,1,1,1.007-1.007A1.008,1.008,0,0,1,106.54,107.548Zm10.41,3.785a1.007,1.007,0,1,1,1.007-1.007A1.008,1.008,0,0,1,116.949,111.333Zm-5.678,8.517a1.007,1.007,0,1,1,1.007-1.007A1.008,1.008,0,0,1,111.271,119.85Zm-6.624-6.746a1.007,1.007,0,1,1-1.007,1.007A1.008,1.008,0,0,1,104.647,113.1Zm22.5,14.041a17.054,17.054,0,0,1-9.31,4.781V127.2a1,1,0,0,1,.3-.712l5.516-5.515a1,1,0,0,1,.712-.3H131.2A17.074,17.074,0,0,1,127.144,127.145Z" transform="translate(-84.835 -84.836)"/>
      <path id="Path_978934" data-name="Path 978934" d="M60.23,26.659A2.32,2.32,0,0,0,57.937,24.6H55.085a25.2,25.2,0,0,0-3.309-7.994l2.015-2.015a2.32,2.32,0,0,0,.168-3.075,29.99,29.99,0,0,0-5.037-5.037,2.32,2.32,0,0,0-3.075.168L43.832,8.667a25.2,25.2,0,0,0-7.994-3.309V2.506A2.32,2.32,0,0,0,33.783.212a29.995,29.995,0,0,0-7.124,0A2.32,2.32,0,0,0,24.6,2.506V5.357A25.2,25.2,0,0,0,16.61,8.667L14.6,6.652a2.319,2.319,0,0,0-3.075-.169A29.979,29.979,0,0,0,6.483,11.52a2.32,2.32,0,0,0,.168,3.075L8.667,16.61A25.2,25.2,0,0,0,5.358,24.6H2.506A2.32,2.32,0,0,0,.212,26.659a30,30,0,0,0,0,7.124,2.32,2.32,0,0,0,2.293,2.055H5.357a25.2,25.2,0,0,0,3.309,7.994L6.651,45.847a2.32,2.32,0,0,0-.168,3.075,29.991,29.991,0,0,0,5.037,5.037,2.32,2.32,0,0,0,3.075-.168l2.015-2.015A25.2,25.2,0,0,0,24.6,55.085v2.852a2.32,2.32,0,0,0,2.055,2.293,30,30,0,0,0,7.124,0,2.32,2.32,0,0,0,2.055-2.293V55.085a25.2,25.2,0,0,0,7.994-3.309l2.015,2.015a2.32,2.32,0,0,0,3.075.169,29.99,29.99,0,0,0,5.037-5.037,2.32,2.32,0,0,0-.168-3.075l-2.015-2.015a25.2,25.2,0,0,0,3.309-7.994h2.852a2.32,2.32,0,0,0,2.293-2.055,29.988,29.988,0,0,0,0-7.124Zm-1.758,6.915a.548.548,0,0,1-.535.493H54.366a.885.885,0,0,0-.869.716,23.47,23.47,0,0,1-3.59,8.672.886.886,0,0,0,.108,1.121L52.539,47.1a.548.548,0,0,1,.029.727,28.229,28.229,0,0,1-4.742,4.742.548.548,0,0,1-.727-.03l-2.524-2.524a.886.886,0,0,0-1.121-.108,23.474,23.474,0,0,1-8.672,3.59.885.885,0,0,0-.716.869v3.571a.548.548,0,0,1-.493.535,28.228,28.228,0,0,1-6.706,0,.548.548,0,0,1-.493-.535V54.366a.885.885,0,0,0-.716-.869,23.474,23.474,0,0,1-8.672-3.59.886.886,0,0,0-1.121.108l-2.524,2.524a.548.548,0,0,1-.727.029,28.236,28.236,0,0,1-4.742-4.742A.548.548,0,0,1,7.9,47.1l2.524-2.524a.886.886,0,0,0,.108-1.121,23.474,23.474,0,0,1-3.59-8.672.885.885,0,0,0-.869-.716H2.506a.548.548,0,0,1-.535-.493,28.234,28.234,0,0,1,0-6.706.548.548,0,0,1,.535-.493H6.076a.885.885,0,0,0,.869-.716,23.474,23.474,0,0,1,3.59-8.672.886.886,0,0,0-.108-1.121L7.9,13.343a.548.548,0,0,1-.029-.727,28.229,28.229,0,0,1,4.742-4.742.548.548,0,0,1,.727.03l2.524,2.524a.885.885,0,0,0,1.121.108,23.472,23.472,0,0,1,8.672-3.59.885.885,0,0,0,.716-.869V2.506a.548.548,0,0,1,.493-.535,28.227,28.227,0,0,1,6.706,0,.548.548,0,0,1,.493.535V6.076a.886.886,0,0,0,.716.869,23.472,23.472,0,0,1,8.672,3.59.885.885,0,0,0,1.121-.108L47.1,7.9a.548.548,0,0,1,.727-.029,28.231,28.231,0,0,1,4.742,4.742.548.548,0,0,1-.03.727l-2.524,2.524a.886.886,0,0,0-.108,1.121,23.472,23.472,0,0,1,3.59,8.672.885.885,0,0,0,.869.716h3.571a.548.548,0,0,1,.535.493,28.226,28.226,0,0,1,0,6.706Z"/>
    </g>
  </g>
</svg>
