<svg xmlns="http://www.w3.org/2000/svg" xmlns:xlink="http://www.w3.org/1999/xlink" width="86" height="86" viewBox="0 0 86 86">
  <defs>
    <filter id="Ellipse_11513" x="0" y="0" width="86" height="86" filterUnits="userSpaceOnUse">
      <feOffset dy="3" input="SourceAlpha"/>
      <feGaussianBlur stdDeviation="3" result="blur"/>
      <feFlood flood-opacity="0.161"/>
      <feComposite operator="in" in2="blur"/>
      <feComposite in="SourceGraphic"/>
    </filter>
  </defs>
  <g id="Group_1144414" data-name="Group 1144414" transform="translate(-189.81 -2162.944)">
    <g id="Group_1144336" data-name="Group 1144336" transform="translate(198.81 2168.944)">
      <g id="Group_1143702" data-name="Group 1143702">
        <g id="Group_1143465" data-name="Group 1143465">
          <g transform="matrix(1, 0, 0, 1, -9, -6)" filter="url(#Ellipse_11513)">
            <g id="Ellipse_11513-2" data-name="Ellipse 11513" transform="translate(9 6)" fill="#f7eafc" stroke="#7b3289" stroke-width="3">
              <circle cx="34" cy="34" r="34" stroke="none"/>
              <circle cx="34" cy="34" r="32.5" fill="none"/>
            </g>
          </g>
        </g>
      </g>
    </g>
    <g id="automation_2825930" transform="translate(208.903 2179.094)">
      <g id="Group_1144396" data-name="Group 1144396" transform="translate(1.739 1.739)">
        <g id="Group_1144372" data-name="Group 1144372" transform="translate(5.557 0)">
          <path id="Path_979389" data-name="Path 979389" d="M20.958,4.956a2.975,2.975,0,0,1-.14.9L20.16,7.911l-2.97,9.222a2.954,2.954,0,0,0-4.36,2.6l.007.059a5.1,5.1,0,0,0-2.926,1.456,4.423,4.423,0,0,0-.392.443L15.187,4.054A2.959,2.959,0,0,1,18,2a2.873,2.873,0,0,1,.9.14,2.955,2.955,0,0,1,2.054,2.815Z" transform="translate(-9.52 -2)" fill="#aab2bd"/>
        </g>
        <g id="Group_1144373" data-name="Group 1144373" transform="translate(16.197 2.956)">
          <path id="Path_979390" data-name="Path 979390" d="M32.846,6V8.956H23.92L24.578,6.9a2.975,2.975,0,0,0,.14-.9Z" transform="translate(-23.92 -6)" fill="#e6e9ed"/>
        </g>
        <g id="Group_1144374" data-name="Group 1144374" transform="translate(25.123 1.478)">
          <path id="Path_979391" data-name="Path 979391" d="M36,4h5.571a4.407,4.407,0,0,0,0,5.911H36V4Z" transform="translate(-36 -4)" fill="#ccd1d9"/>
        </g>
        <g id="Group_1144375" data-name="Group 1144375" transform="translate(29.556 0)">
          <path id="Path_979392" data-name="Path 979392" d="M46.433,2a4.438,4.438,0,1,1-3.3,7.389A4.433,4.433,0,0,1,46.433,2Z" transform="translate(-42 -2)" fill="#fcd770"/>
        </g>
        <g id="Group_1144376" data-name="Group 1144376" transform="translate(32.512 2.956)">
          <circle id="Ellipse_11636" data-name="Ellipse 11636" cx="1.5" cy="1.5" r="1.5" transform="translate(-0.345 0.212)" fill="#ccd1d9"/>
        </g>
        <g id="Group_1144377" data-name="Group 1144377" transform="translate(23.645 22.315)">
          <path id="Path_979393" data-name="Path 979393" d="M54.69,37.225v4.433l-1.9.48a8.8,8.8,0,0,1-.569,1.36l1,1.692-3.133,3.133-1.692-1a8.8,8.8,0,0,1-1.36.569l-.48,1.9H42.128l-.48-1.9a8.8,8.8,0,0,1-1.36-.569l-1.692,1L35.463,45.19l1-1.692a8.8,8.8,0,0,1-.569-1.36l-1.9-.48V37.225l1.9-.48a8.8,8.8,0,0,1,.569-1.36l-1-1.692L36.956,32.2v.591A5.147,5.147,0,0,0,39,36.907a5.913,5.913,0,1,0,10.685.007l-.007-.007a3.935,3.935,0,0,0,.539-.458,5.142,5.142,0,0,0,1.515-3.658V32.2l1.493,1.493-1,1.692a8.8,8.8,0,0,1,.569,1.36Z" transform="translate(-34 -32.2)" fill="#fcd770"/>
        </g>
        <g id="Group_1144378" data-name="Group 1144378" transform="translate(35.468 16.256)">
          <path id="Path_979394" data-name="Path 979394" d="M55.911,30.059v.591A5.142,5.142,0,0,1,54.4,34.308a3.935,3.935,0,0,1-.539.458,5.043,5.043,0,0,1-3.118,1.057V32.867a2.214,2.214,0,0,0,2.217-2.217V29.172a2.214,2.214,0,0,0-2.217-2.217H50V24h.739a5.169,5.169,0,0,1,5.172,5.172Z" transform="translate(-50 -24)" fill="#e6e9ed"/>
        </g>
        <g id="Group_1144379" data-name="Group 1144379" transform="translate(28.079 13.3)">
          <path id="Path_979395" data-name="Path 979395" d="M50.345,20a1.482,1.482,0,0,1,1.478,1.478,1.489,1.489,0,0,1-1.478,1.478H41.478A1.482,1.482,0,0,1,40,21.478,1.489,1.489,0,0,1,41.478,20h8.867Z" transform="translate(-40 -20)" fill="#ccd1d9"/>
        </g>
        <g id="Group_1144380" data-name="Group 1144380" transform="translate(32.512 16.256)">
          <path id="Path_979396" data-name="Path 979396" d="M48.956,26.956v1.478a1.482,1.482,0,0,1-1.478,1.478A1.489,1.489,0,0,1,46,28.433V24h2.956Z" transform="translate(-46 -24)" fill="#e6e9ed"/>
        </g>
        <g id="Group_1144381" data-name="Group 1144381" transform="translate(32.512 8.616)">
          <path id="Path_979397" data-name="Path 979397" d="M48.956,13.66v4.685H46V13.66a4.472,4.472,0,0,0,2.956,0Z" transform="translate(-46 -13.66)" fill="#e6e9ed"/>
        </g>
        <g id="Group_1144382" data-name="Group 1144382" transform="translate(26.601 16.256)">
          <path id="Path_979398" data-name="Path 979398" d="M43.911,24v2.956h-.739a2.214,2.214,0,0,0-2.217,2.217V30.65a2.22,2.22,0,0,0,2.217,2.217v2.956a5.094,5.094,0,0,1-3.126-1.057A5.147,5.147,0,0,1,38,30.65V29.172A5.169,5.169,0,0,1,43.172,24Z" transform="translate(-38 -24)" fill="#e6e9ed"/>
        </g>
        <g id="Group_1144383" data-name="Group 1144383" transform="translate(18.532 31.034)">
          <path id="Path_979399" data-name="Path 979399" d="M31.329,44.865a2.974,2.974,0,0,1,.865,2.091,2.963,2.963,0,0,1-2.956,2.956,2.989,2.989,0,0,1-.968-.163h-.007l.155-.924a4.091,4.091,0,0,0-1.337-3.887,2.955,2.955,0,0,1,4.249-.074Z" transform="translate(-27.08 -44)" fill="#ccd1d9"/>
        </g>
        <g id="Group_1144384" data-name="Group 1144384" transform="translate(18.473 36.547)">
          <path id="Path_979400" data-name="Path 979400" d="M30.695,51.46v7.788H27L28.241,51.7h.007a2.989,2.989,0,0,0,.968.163A2.948,2.948,0,0,0,30.695,51.46Z" transform="translate(-27 -51.46)" fill="#e6e9ed"/>
        </g>
        <g id="Group_1144385" data-name="Group 1144385" transform="translate(18.281 19.951)">
          <path id="Path_979401" data-name="Path 979401" d="M29.762,29.865a2.957,2.957,0,0,1-2.091,5.047H26.74a5.157,5.157,0,0,0,0-5.911h.931A2.974,2.974,0,0,1,29.762,29.865Z" transform="translate(-26.74 -29)" fill="#e6e9ed"/>
        </g>
        <g id="Group_1144386" data-name="Group 1144386" transform="translate(3.696 31.034)">
          <path id="Path_979402" data-name="Path 979402" d="M21.838,44.938a4.091,4.091,0,0,1,1.337,3.887l-.155.924L21.779,57.3H8.478L7.237,49.749l-.155-.924a4.074,4.074,0,0,1,1.345-3.887A5.173,5.173,0,0,1,9.978,44h2.195l.436.436a3.568,3.568,0,0,0,5.039,0L18.084,44h2.195A5.122,5.122,0,0,1,21.838,44.938Z" transform="translate(-7.003 -44)" fill="#ff826e"/>
        </g>
        <g id="Group_1144387" data-name="Group 1144387" transform="translate(4.433 17.734)">
          <path id="Path_979403" data-name="Path 979403" d="M21.847,28.217a5.157,5.157,0,0,1,0,5.911,4.825,4.825,0,0,1-.584.7,5.1,5.1,0,0,1-2.926,1.456,3.964,3.964,0,0,1-.732.059H13.172a3.964,3.964,0,0,1-.732-.059,5.162,5.162,0,0,1-3.51-8.069,2.13,2.13,0,0,1,.192-.259,4.423,4.423,0,0,1,.392-.443,5.1,5.1,0,0,1,2.926-1.456A3.964,3.964,0,0,1,13.172,26h4.433a3.964,3.964,0,0,1,.732.059,5.109,5.109,0,0,1,3.51,2.158Z" transform="translate(-8 -26)" fill="#e6e9ed"/>
        </g>
        <g id="Group_1144388" data-name="Group 1144388" transform="translate(7.389 35.468)">
          <path id="Path_979404" data-name="Path 979404" d="M12,50h8.867v5.911H12Z" transform="translate(-12 -50)" fill="#69d6f4"/>
        </g>
        <g id="Group_1144389" data-name="Group 1144389" transform="translate(13.3 21.428)">
          <circle id="Ellipse_11637" data-name="Ellipse 11637" cx="1.5" cy="1.5" r="1.5" transform="translate(-0.133 -0.261)" fill="#969faa"/>
        </g>
        <g id="Group_1144390" data-name="Group 1144390" transform="translate(8.867 28.02)">
          <path id="Path_979405" data-name="Path 979405" d="M19.911,39.979v2.956l-.436.436a3.568,3.568,0,0,1-5.039,0L14,42.935V39.979l.007-.059a3.964,3.964,0,0,0,.732.059h4.433a3.964,3.964,0,0,0,.732-.059Z" transform="translate(-14 -39.92)" fill="#e6e9ed"/>
        </g>
        <g id="Group_1144391" data-name="Group 1144391" transform="translate(8.867 14.778)">
          <path id="Path_979406" data-name="Path 979406" d="M19.911,24.956l-.007.059a3.964,3.964,0,0,0-.732-.059H14.739a3.964,3.964,0,0,0-.732.059L14,24.956a2.956,2.956,0,1,1,5.911,0Z" transform="translate(-14 -22)" fill="#ff826e"/>
        </g>
        <g id="Group_1144392" data-name="Group 1144392" transform="translate(7.389 21.428)">
          <circle id="Ellipse_11638" data-name="Ellipse 11638" cx="1.5" cy="1.5" r="1.5" transform="translate(-0.222 -0.261)" fill="#969faa"/>
        </g>
        <g id="Group_1144393" data-name="Group 1144393" transform="translate(1.478 19.951)">
          <path id="Path_979407" data-name="Path 979407" d="M6.956,29h.931a5.157,5.157,0,0,0,0,5.911H6.956a2.956,2.956,0,0,1,0-5.911Z" transform="translate(-4 -29)" fill="#e6e9ed"/>
        </g>
        <g id="Group_1144394" data-name="Group 1144394" transform="translate(1.478 36.547)">
          <path id="Path_979408" data-name="Path 979408" d="M6.453,51.7l1.241,7.552H4V51.46a2.948,2.948,0,0,0,1.478.4,2.989,2.989,0,0,0,.968-.163Z" transform="translate(-4 -51.46)" fill="#e6e9ed"/>
        </g>
        <g id="Group_1144395" data-name="Group 1144395" transform="translate(0 31.034)">
          <path id="Path_979409" data-name="Path 979409" d="M5.776,48.825l.155.924H5.924a2.989,2.989,0,0,1-.968.163,2.956,2.956,0,0,1,0-5.911,2.98,2.98,0,0,1,2.165.938A4.074,4.074,0,0,0,5.776,48.825Z" transform="translate(-2 -44)" fill="#ccd1d9"/>
        </g>
      </g>
      <g id="Group_1144397" data-name="Group 1144397" transform="translate(1 1)">
        <path id="Path_979410" data-name="Path 979410" d="M21.217,34.433A2.217,2.217,0,1,0,19,32.217,2.219,2.219,0,0,0,21.217,34.433Zm0-2.956a.739.739,0,1,1-.739.739A.74.74,0,0,1,21.217,31.478Z" transform="translate(-5.7 -8.572)"/>
        <path id="Path_979411" data-name="Path 979411" d="M15.433,32.217a2.217,2.217,0,1,0-2.217,2.217A2.219,2.219,0,0,0,15.433,32.217Zm-2.217.739a.739.739,0,1,1,.739-.739A.74.74,0,0,1,13.217,32.956Z" transform="translate(-3.611 -8.572)"/>
        <path id="Path_979412" data-name="Path 979412" d="M21.345,49H11v7.389H21.345Zm-1.478,5.911H12.478V50.478h7.389Z" transform="translate(-3.611 -13.532)"/>
        <path id="Path_979413" data-name="Path 979413" d="M47.217,9.433A2.217,2.217,0,1,0,45,7.217,2.219,2.219,0,0,0,47.217,9.433Zm0-2.956a.739.739,0,1,1-.739.739A.74.74,0,0,1,47.217,6.478Z" transform="translate(-12.488 -2.044)"/>
        <path id="Path_979414" data-name="Path 979414" d="M46.813,34.086V28.5l-2.07-.527c-.088-.236-.186-.472-.3-.706l1.094-1.839-1.683-1.683v-.582a5.9,5.9,0,0,0-2.476-4.8A2.215,2.215,0,0,0,40.162,14.3H37.946V10.839a5.168,5.168,0,1,0-5.83-8.361H26.123V3.956H19.38a3.683,3.683,0,0,0-7.119-.391L6.673,20.951h-.5a3.695,3.695,0,0,0,0,7.389h.565a5.918,5.918,0,0,0,3.129,2.022v1.672h-1.6l-.13.051a6.251,6.251,0,0,0-1.263.672,3.683,3.683,0,0,0-4.4,5.908v8.147H24.645V38.665A3.63,3.63,0,0,0,25.864,34.4l.851.216c.088.236.186.472.3.706l-1.094,1.84,3.947,3.947,1.84-1.094q.351.163.706.3l.527,2.07H38.52l.527-2.07c.236-.088.472-.186.706-.3l1.84,1.094,3.947-3.947-1.094-1.84q.163-.351.3-.706ZM42.379,23.167v1.478a4.441,4.441,0,0,1-3.695,4.372v-1.51A2.961,2.961,0,0,0,40.9,24.645V23.167a2.959,2.959,0,0,0-2.956-2.956V18.734A4.438,4.438,0,0,1,42.379,23.167ZM40.9,31.3a5.172,5.172,0,1,1-10.139-1.422,5.878,5.878,0,0,0,2.75.683h.739V26.123h-.739a1.479,1.479,0,0,1-1.478-1.478V23.167a1.479,1.479,0,0,1,1.478-1.478v.739a2.217,2.217,0,1,0,4.433,0V21.69a1.479,1.479,0,0,1,1.478,1.478v1.478a1.479,1.479,0,0,1-1.478,1.478h-.739v4.433h.739a5.878,5.878,0,0,0,2.75-.683A5.142,5.142,0,0,1,40.9,31.3ZM27.6,23.167v.582l-1.683,1.682,1.094,1.839c-.109.234-.208.471-.3.706l-2.07.528v4.288a3.656,3.656,0,0,0-2.217-.758,3.7,3.7,0,0,0-2.183.723,6.2,6.2,0,0,0-1.263-.672l-.13-.052h-1.6V30.362a5.918,5.918,0,0,0,3.129-2.022h.565a3.695,3.695,0,0,0,0-7.389h-.565A5.917,5.917,0,0,0,17.2,18.914a3.673,3.673,0,0,0-1.362-2.328l2.635-8.2h7.651V9.867h5.993a5.192,5.192,0,0,0,1.4.972V14.3H31.3a2.215,2.215,0,0,0-1.218,4.065A5.9,5.9,0,0,0,27.6,23.167Zm-6.335-.707a2.206,2.206,0,0,1,0,4.37,5.85,5.85,0,0,0,0-4.37Zm-5.624-3.726H11.481a2.2,2.2,0,0,1,4.161,0Zm19.348,0h1.478v3.695a.739.739,0,1,1-1.478,0Zm-5.911,4.433a4.438,4.438,0,0,1,4.433-4.433v1.478a2.959,2.959,0,0,0-2.956,2.956v1.478a2.962,2.962,0,0,0,2.217,2.863v1.51a4.441,4.441,0,0,1-3.695-4.372ZM40.9,16.517a.74.74,0,0,1-.739.739H31.3a.739.739,0,0,1,0-1.478h8.867A.74.74,0,0,1,40.9,16.517ZM36.468,14.3H34.99V11.286a4.648,4.648,0,0,0,1.478,0ZM35.729,2.478a3.695,3.695,0,1,1-3.695,3.695A3.7,3.7,0,0,1,35.729,2.478ZM27.6,3.956h3.462a5.107,5.107,0,0,0,0,4.433H27.6ZM26.123,6.911H18.947L19.3,5.825a3.662,3.662,0,0,0,.083-.392h6.743ZM13.668,4.017a2.217,2.217,0,0,1,4.221,1.356L14.5,15.914a3.65,3.65,0,0,0-.939-.136,3.691,3.691,0,0,0-3.638,3.136,5.9,5.9,0,0,0-1.182.432ZM3.956,24.645a2.214,2.214,0,0,1,1.9-2.185,5.85,5.85,0,0,0,0,4.37A2.214,2.214,0,0,1,3.956,24.645Zm2.956,0a4.438,4.438,0,0,1,4.433-4.433h4.433a4.433,4.433,0,0,1,0,8.867H11.345a4.438,4.438,0,0,1-4.433-4.433Zm8.867,5.911v1.911l-.217.217a2.9,2.9,0,0,1-4,0l-.217-.217V30.556ZM8.557,33.512H10.3l.217.216a4.306,4.306,0,0,0,6.09,0l.216-.216h1.743a3.545,3.545,0,0,1,2.316,3.966l-1.3,7.857H7.539l-1.3-7.881a3.541,3.541,0,0,1,2.321-3.941Zm-3.862,0a2.195,2.195,0,0,1,1.06.281,4.808,4.808,0,0,0-.972,3.926l.035.216c-.041,0-.082.01-.123.01a2.217,2.217,0,0,1,0-4.433Zm-.739,5.837a3.691,3.691,0,0,0,.739.075c.123,0,.243-.018.364-.03l.981,5.942H3.956Zm19.212,5.986H21.083l.981-5.942c.121.012.242.03.365.03a3.691,3.691,0,0,0,.739-.075Zm-.739-7.389c-.042,0-.083-.008-.124-.01l.032-.191a4.836,4.836,0,0,0-.969-3.95,2.19,2.19,0,0,1,1.061-.282,2.217,2.217,0,1,1,0,4.433Zm21.254-1.019L41.36,39.249l-1.548-.921-.364.188a8.132,8.132,0,0,1-1.244.52l-.39.125-.443,1.74H34.087l-.443-1.739-.39-.125a8.1,8.1,0,0,1-1.244-.52l-.364-.188L30.1,39.25l-2.322-2.322.921-1.548-.188-.364a8.132,8.132,0,0,1-.52-1.244l-.125-.39-1.741-.443V29.653l1.739-.443.125-.39a8.079,8.079,0,0,1,.467-1.131A5.941,5.941,0,0,0,29.5,28.976a6.651,6.651,0,1,0,12.454,0A5.966,5.966,0,0,0,43,27.689a8.043,8.043,0,0,1,.467,1.131l.125.39,1.739.442v3.284L43.6,33.38l-.125.39a8.1,8.1,0,0,1-.52,1.244l-.188.364Z" transform="translate(-1 -1)"/>
      </g>
    </g>
  </g>
</svg>
