<svg xmlns="http://www.w3.org/2000/svg" xmlns:xlink="http://www.w3.org/1999/xlink" width="91" height="91" viewBox="0 0 91 91">
  <defs>
    <filter id="Ellipse_11513" x="0" y="0" width="91" height="91" filterUnits="userSpaceOnUse">
      <feOffset dy="3" input="SourceAlpha"/>
      <feGaussianBlur stdDeviation="3" result="blur"/>
      <feFlood flood-opacity="0.161"/>
      <feComposite operator="in" in2="blur"/>
      <feComposite in="SourceGraphic"/>
    </filter>
  </defs>
  <g id="Group_1144320" data-name="Group 1144320" transform="translate(-912 -725)">
    <g id="Group_1143813" data-name="Group 1143813" transform="translate(0 -199)">
      <g id="Group_1143702" data-name="Group 1143702" transform="translate(920.972 930)">
        <g id="Group_1143465" data-name="Group 1143465">
          <g transform="matrix(1, 0, 0, 1, -8.97, -6)" filter="url(#Ellipse_11513)">
            <g id="Ellipse_11513-2" data-name="Ellipse 11513" transform="translate(9 6)" fill="#f7eafc" stroke="#652180" stroke-width="3">
              <circle cx="36.5" cy="36.5" r="36.5" stroke="none"/>
              <circle cx="36.5" cy="36.5" r="35" fill="none"/>
            </g>
          </g>
        </g>
      </g>
    </g>
    <g id="future-technology_12444074" transform="translate(895.091 722.593)">
      <path id="Path_978935" data-name="Path 978935" d="M193.1,183.607a9.5,9.5,0,1,0,9.506,9.506A9.516,9.516,0,0,0,193.1,183.607Z" transform="translate(-130.695 -148.205)" fill="#d3effd"/>
      <path id="Path_978936" data-name="Path 978936" d="M59.422,73.125a1.051,1.051,0,1,1-.718-1.3A1.054,1.054,0,0,1,59.422,73.125Zm6.689-55.136a1.05,1.05,0,1,0-.715-1.3,1.052,1.052,0,0,0,.715,1.3Zm-11,53.085a27.165,27.165,0,0,1,4.63-53.2l-.722.722A1.05,1.05,0,0,0,60.5,20.083l2.646-2.646a1.05,1.05,0,0,0,0-1.486L60.5,13.307a1.05,1.05,0,1,0-1.484,1.487l.952.95a29.265,29.265,0,0,0-20.752,47.01A29.45,29.45,0,0,0,54.548,73.1a1.05,1.05,0,0,0,.563-2.024Zm11.146.72c-.391.056-.784.1-1.179.14l.718-.717a1.05,1.05,0,0,0-1.485-1.486l-2.646,2.643a1.051,1.051,0,0,0,0,1.486l2.646,2.646A1.05,1.05,0,0,0,65.8,75.021l-.955-.955q.86-.071,1.712-.191a1.05,1.05,0,0,0-.3-2.08Zm-2.8-27.322V41.326a1.05,1.05,0,1,0-2.1,0v3.581a1.051,1.051,0,0,0,.308.743l1.515,1.515a1.05,1.05,0,1,0,1.486-1.485l-1.207-1.207ZM78.606,59.83a2.884,2.884,0,0,1-2.856-2.9,2.92,2.92,0,0,1,.611-1.792l-1.708-2.957H71.446a11.6,11.6,0,0,1-7.988,4.284v2.592H68.88a1.051,1.051,0,0,1,.91.525l1.241,2.149a2.8,2.8,0,0,1,.443-.035,2.9,2.9,0,1,1-2.852,2.9,2.922,2.922,0,0,1,.607-1.788l-.956-1.654H63.458v5.3a1.05,1.05,0,0,1-1.05,1.05H59.638a1.051,1.051,0,0,1-.954-.61l-1.823-3.948-3.287-1.361-4.081,1.5a1.05,1.05,0,0,1-1.106-.243l-3.916-3.919a1.05,1.05,0,0,1-.243-1.106l1.5-4.077-1.361-3.287L40.423,48.63a1.05,1.05,0,0,1-.61-.954V42.138a1.05,1.05,0,0,1,.61-.954l3.948-1.823,1.361-3.287-1.5-4.081a1.05,1.05,0,0,1,.243-1.106l3.916-3.916a1.05,1.05,0,0,1,1.106-.243l4.081,1.5,3.287-1.364,1.823-3.945a1.05,1.05,0,0,1,.954-.61h2.769a1.05,1.05,0,0,1,1.05,1.05v5.3h4.816L69.23,27a2.922,2.922,0,0,1-.607-1.788,2.854,2.854,0,1,1,2.852,2.9,2.819,2.819,0,0,1-.443-.035L69.79,30.235a1.05,1.05,0,0,1-.91.525H63.458v2.589a11.6,11.6,0,0,1,7.987,4.284h3.209l1.706-2.955a2.92,2.92,0,0,1-.61-1.79,2.856,2.856,0,1,1,2.856,2.9,2.8,2.8,0,0,1-.443-.035L76.17,39.209a1.05,1.05,0,0,1-.91.525H72.8a11.516,11.516,0,0,1,1.171,4.123h5.522a2.9,2.9,0,1,1,0,2.1H73.966a11.51,11.51,0,0,1-1.17,4.119H75.26a1.05,1.05,0,0,1,.91.525l2,3.455a2.81,2.81,0,0,1,.441-.035,2.9,2.9,0,0,1,0,5.808Zm-.755-26.942a.756.756,0,1,0,.755-.8A.781.781,0,0,0,77.851,32.888Zm-7.128-7.671a.755.755,0,1,0,.751-.8A.779.779,0,0,0,70.724,25.217Zm.751,38.577a.8.8,0,1,0,.755.8A.779.779,0,0,0,71.475,63.794Zm9.92-18.887a.755.755,0,1,0,.755-.8A.781.781,0,0,0,81.395,44.907ZM61.357,65.4V56.462a11.6,11.6,0,0,1,0-23.113V24.414H60.31L58.6,28.122a1.05,1.05,0,0,1-.551.53L54,30.33a1.05,1.05,0,0,1-.766.015L49.4,28.933,46.433,31.9l1.413,3.836a1.051,1.051,0,0,1-.015.765l-1.675,4.046a1.051,1.051,0,0,1-.53.552L41.914,42.81V47l3.711,1.713a1.05,1.05,0,0,1,.53.552l1.675,4.046a1.049,1.049,0,0,1,.015.765l-1.413,3.833L49.4,60.881l3.836-1.413a1.049,1.049,0,0,1,.765.015l4.046,1.675a1.051,1.051,0,0,1,.552.53L60.31,65.4h1.047ZM71.913,44.907a9.506,9.506,0,1,0-9.506,9.5,9.516,9.516,0,0,0,9.506-9.5Zm7.448,12.019a.756.756,0,1,0-.755.8A.781.781,0,0,0,79.361,56.926ZM62.389,38.259a1.05,1.05,0,1,0-1.053-1.05A1.053,1.053,0,0,0,62.389,38.259Zm-4.7,1.962a1.05,1.05,0,1,0-1.485,0A1.045,1.045,0,0,0,57.692,40.221ZM54.71,43.876a1.051,1.051,0,1,0,1.05,1.05A1.051,1.051,0,0,0,54.71,43.876Zm1.526,5.747a1.05,1.05,0,1,0,1.485,0A1.051,1.051,0,0,0,56.236,49.623Zm6.194,1.932a1.05,1.05,0,1,0,1.05,1.05A1.052,1.052,0,0,0,62.43,51.555Zm4.694-1.962-.013.015-.016.015a1.05,1.05,0,0,0,1.485,1.485l.014-.016.015-.014a1.05,1.05,0,0,0-1.485-1.485Zm2.982-5.758a1.05,1.05,0,1,0,1.05,1.05A1.048,1.048,0,0,0,70.105,43.835Zm-1.526-3.644a1.05,1.05,0,1,0-1.485,0A1.051,1.051,0,0,0,68.579,40.191Zm22.188,3.674a1.051,1.051,0,1,0,.893,1.187,1.053,1.053,0,0,0-.893-1.187Zm-1.433-2.624A1.05,1.05,0,1,0,90.391,40.2a1.046,1.046,0,0,0-1.057,1.038Zm-.7-3.454a1.052,1.052,0,1,0,.916-1.169,1.048,1.048,0,0,0-.916,1.169Zm-1.143-3.335a1.051,1.051,0,1,0,.759-1.28,1.047,1.047,0,0,0-.759,1.28Zm-1.567-3.16a1.052,1.052,0,1,0,.588-1.366,1.054,1.054,0,0,0-.588,1.366Zm-.529-2.527a1.051,1.051,0,1,0-1.433-.406,1.05,1.05,0,0,0,1.433.406Zm-2.285-2.84a1.051,1.051,0,1,0-1.47-.216A1.051,1.051,0,0,0,83.107,25.924ZM80.471,23.4a1.049,1.049,0,1,0-1.485-.022,1.052,1.052,0,0,0,1.485.022ZM76.06,21.413a1.05,1.05,0,1,0-.171-1.478,1.048,1.048,0,0,0,.171,1.478ZM72.9,19.842a1.051,1.051,0,1,0-.357-1.44A1.056,1.056,0,0,0,72.9,19.842ZM69.569,18.7a1.051,1.051,0,1,0-.543-1.385A1.05,1.05,0,0,0,69.569,18.7Zm20.8,28.813a1.052,1.052,0,1,0,1.061,1.042,1.049,1.049,0,0,0-1.061-1.042Zm-.573,3.6a1.052,1.052,0,1,0,.92,1.173,1.053,1.053,0,0,0-.92-1.173Zm-1.035,3.5a1.049,1.049,0,1,0,.759,1.277A1.048,1.048,0,0,0,88.764,54.607Zm-1.478,3.331a1.05,1.05,0,1,0,.588,1.366,1.051,1.051,0,0,0-.588-1.366ZM85.392,61.05a1.051,1.051,0,1,0,.4,1.429,1.053,1.053,0,0,0-.4-1.429Zm-2.285,2.84a1.051,1.051,0,1,0,.216,1.47A1.051,1.051,0,0,0,83.107,63.89Zm-4.12,2.546a1.05,1.05,0,1,0,1.485-.026,1.052,1.052,0,0,0-1.485.026ZM76.061,68.4a1.05,1.05,0,1,0,1.474.168,1.049,1.049,0,0,0-1.474-.168ZM72.9,69.972a1.049,1.049,0,1,0,1.444.357A1.051,1.051,0,0,0,72.9,69.972Zm-3.331,1.146a1.049,1.049,0,1,0,1.381.543A1.05,1.05,0,0,0,69.569,71.118Z" fill-rule="evenodd"/>
      <path id="Path_978937" data-name="Path 978937" d="M374.365,341.417a.8.8,0,1,0,.755.8A.781.781,0,0,0,374.365,341.417Z" transform="translate(-295.759 -285.294)" fill="#ff99c7"/>
      <path id="Path_978938" data-name="Path 978938" d="M374.365,159.955a.8.8,0,1,0-.755-.8A.781.781,0,0,0,374.365,159.955Z" transform="translate(-295.759 -126.264)" fill="#ff99c7"/>
      <g id="Group_1144319" data-name="Group 1144319" transform="translate(41.914 24.414)">
        <path id="Path_978939" data-name="Path 978939" d="M401.352,251.489a.8.8,0,1,0-.755-.8A.779.779,0,0,0,401.352,251.489Z" transform="translate(-361.116 -230.193)" fill="#5fa7ee"/>
        <path id="Path_978940" data-name="Path 978940" d="M320.076,101.531a.8.8,0,1,0-.751-.8A.781.781,0,0,0,320.076,101.531Z" transform="translate(-290.516 -99.925)" fill="#5fa7ee"/>
        <path id="Path_978941" data-name="Path 978941" d="M108.8,120.418A11.622,11.622,0,0,1,119.36,108.86V99.925h-1.047l-1.713,3.708a1.05,1.05,0,0,1-.551.53L112,105.841a1.05,1.05,0,0,1-.765.015l-3.836-1.413-2.965,2.965,1.413,3.836a1.051,1.051,0,0,1-.015.765l-1.675,4.046a1.051,1.051,0,0,1-.53.552l-3.711,1.713v4.194l3.711,1.713a1.05,1.05,0,0,1,.53.552l1.675,4.046a1.049,1.049,0,0,1,.015.765l-1.413,3.833,2.966,2.968,3.836-1.413a1.049,1.049,0,0,1,.765.015l4.046,1.675a1.051,1.051,0,0,1,.552.53l1.713,3.711h1.047v-8.939A11.62,11.62,0,0,1,108.8,120.418Z" transform="translate(-99.917 -99.925)" fill="#5fa7ee"/>
        <path id="Path_978942" data-name="Path 978942" d="M320.076,401.446a.805.805,0,1,0-.751-.8A.781.781,0,0,0,320.076,401.446Z" transform="translate(-290.516 -360.46)" fill="#5fa7ee"/>
      </g>
    </g>
  </g>
</svg>
