<svg xmlns="http://www.w3.org/2000/svg" xmlns:xlink="http://www.w3.org/1999/xlink" width="91" height="91" viewBox="0 0 91 91">
  <defs>
    <filter id="Ellipse_11513" x="0" y="0" width="91" height="91" filterUnits="userSpaceOnUse">
      <feOffset dy="3" input="SourceAlpha"/>
      <feGaussianBlur stdDeviation="3" result="blur"/>
      <feFlood flood-opacity="0.161"/>
      <feComposite operator="in" in2="blur"/>
      <feComposite in="SourceGraphic"/>
    </filter>
  </defs>
  <g id="Group_1145623" data-name="Group 1145623" transform="translate(-1222 -660)">
    <g id="Group_1144322" data-name="Group 1144322" transform="translate(-5 -65)">
      <g id="Group_1143817" data-name="Group 1143817" transform="translate(0 -199)">
        <g id="Group_1143705" data-name="Group 1143705" transform="translate(1236.024 930)">
          <g id="Group_1143465" data-name="Group 1143465">
            <g transform="matrix(1, 0, 0, 1, -9.02, -6)" filter="url(#Ellipse_11513)">
              <g id="Ellipse_11513-2" data-name="Ellipse 11513" transform="translate(9 6)" fill="#f7eafc" stroke="#652180" stroke-width="3">
                <circle cx="36.5" cy="36.5" r="36.5" stroke="none"/>
                <circle cx="36.5" cy="36.5" r="35" fill="none"/>
              </g>
            </g>
          </g>
        </g>
      </g>
    </g>
    <g id="idea_2_" data-name="idea (2)" transform="translate(1182.079 676.35)">
      <path id="Path_979794" data-name="Path 979794" d="M77.818,80.262l-3.8,3.8a1.532,1.532,0,0,0,0,2.167l9.051,9.051a1.532,1.532,0,0,0,2.167,0l3.36-3.36a3.569,3.569,0,0,1,2.665-1.056,12.659,12.659,0,0,0,9.513-3.706l9.269-9.269-7.169-6.293-4.049-9.412,7.558-7.558a3.173,3.173,0,0,0-.064-4.55,3.216,3.216,0,0,0-4.47.109L86.046,65.987a1.533,1.533,0,0,1-2.268-.11,3.028,3.028,0,0,1-.586-1.14l-1.33-4.964a5.107,5.107,0,0,0-6.255-3.612,2.825,2.825,0,0,0-2,3.46L78.479,77.8A2.554,2.554,0,0,1,77.818,80.262Z" transform="translate(-6.732 -44.194)" fill="#ffcebf"/>
      <path id="Path_979795" data-name="Path 979795" d="M163.038,312.133a12.659,12.659,0,0,1-9.513,3.706,3.569,3.569,0,0,0-2.665,1.056l-3.168,3.168,1.981,1.981a1.532,1.532,0,0,0,2.167,0l3.36-3.36a3.569,3.569,0,0,1,2.665-1.056,12.658,12.658,0,0,0,9.513-3.706l9.269-9.269-3.264-2.865Z" transform="translate(-73.334 -270.959)" fill="#ffb09e"/>
      <g id="Group_1145622" data-name="Group 1145622" transform="translate(87.106 17.239)">
        <path id="Path_979796" data-name="Path 979796" d="M274.11,178.238l-.876-.876a2.554,2.554,0,0,1,0-3.612l4.241-4.241a2.554,2.554,0,0,1,3.612,0l.876.876a2.554,2.554,0,0,1,0,3.612l-4.241,4.241A2.554,2.554,0,0,1,274.11,178.238Z" transform="translate(-272.486 -168.762)" fill="#ffeee6"/>
        <path id="Path_979797" data-name="Path 979797" d="M318.039,222.167l-.876-.876a2.554,2.554,0,0,1,0-3.612l4.241-4.241a2.554,2.554,0,0,1,3.611,0l.876.876a2.554,2.554,0,0,1,0,3.612l-4.241,4.241A2.554,2.554,0,0,1,318.039,222.167Z" transform="translate(-311.927 -208.203)" fill="#ffeee6"/>
        <path id="Path_979798" data-name="Path 979798" d="M361.968,285.817l-.876-.876a2.554,2.554,0,0,1,0-3.611l2-2a2.554,2.554,0,0,1,3.612,0l.876.876a2.554,2.554,0,0,1,0,3.612l-2,2A2.554,2.554,0,0,1,361.968,285.817Z" transform="translate(-351.369 -267.365)" fill="#ffeee6"/>
      </g>
      <path id="Path_979799" data-name="Path 979799" d="M288.663,171.062l-.876-.876a2.542,2.542,0,0,0-1.182-.671l.014.014a2.554,2.554,0,0,1,0,3.612l-4.241,4.241a2.552,2.552,0,0,1-2.43.671l.861.861a2.554,2.554,0,0,0,3.612,0l4.241-4.241A2.553,2.553,0,0,0,288.663,171.062Z" transform="translate(-192.081 -152.199)" fill="#ffdfcf"/>
      <path id="Path_979800" data-name="Path 979800" d="M332.592,214.991l-.876-.876a2.542,2.542,0,0,0-1.182-.671l.014.014a2.554,2.554,0,0,1,0,3.612l-4.241,4.241a2.553,2.553,0,0,1-2.43.671l.861.861a2.554,2.554,0,0,0,3.612,0l4.241-4.241A2.553,2.553,0,0,0,332.592,214.991Z" transform="translate(-231.523 -191.64)" fill="#ffdfcf"/>
      <path id="Path_979801" data-name="Path 979801" d="M374.277,280.885l-.876-.876a2.542,2.542,0,0,0-1.182-.671l.014.014a2.554,2.554,0,0,1,0,3.612l-2,2a2.553,2.553,0,0,1-2.43.671l.861.861a2.554,2.554,0,0,0,3.612,0l2-2A2.553,2.553,0,0,0,374.277,280.885Z" transform="translate(-270.963 -250.803)" fill="#ffdfcf"/>
      <path id="Path_979802" data-name="Path 979802" d="M149.379,7.937l-6.769,6.769-3.4-3.4a1.532,1.532,0,0,0-2.167,0l-1.2,1.2a1.532,1.532,0,0,0,0,2.167l5.686,5.686a1.532,1.532,0,0,0,2.167,0l9.051-9.051a1.532,1.532,0,0,0,0-2.167l-1.2-1.2a1.532,1.532,0,0,0-2.167,0Z" transform="translate(-62.29 -6.723)" fill="#46cc8d"/>
      <path id="Path_979803" data-name="Path 979803" d="M198.217,9.136l-1.2-1.2a1.532,1.532,0,0,0-2.1-.06l.237.237a1.532,1.532,0,0,1,0,2.167L186.1,19.333q-.031.031-.064.06l.961.961a1.532,1.532,0,0,0,2.167,0l9.051-9.051A1.532,1.532,0,0,0,198.217,9.136Z" transform="translate(-107.762 -6.724)" fill="#00c27a"/>
      <path id="Path_979804" data-name="Path 979804" d="M156.891,147.289a3.3,3.3,0,0,0-.972-2.348l-.876-.876a3.3,3.3,0,0,0-1.632-.9l.265-.265a3.324,3.324,0,0,0,0-4.695l-.876-.876a3.3,3.3,0,0,0-2.653-.959,3.3,3.3,0,0,0-.958-2.653l-.876-.876a3.3,3.3,0,0,0-1.632-.9l2.112-2.112a.766.766,0,1,0-1.083-1.083l-8.332,8.332a3.324,3.324,0,0,0,0,4.695l.876.876a3.3,3.3,0,0,0,2.655.958,3.315,3.315,0,0,0,.957,2.653l.876.876a3.3,3.3,0,0,0,2.653.959,3.3,3.3,0,0,0,.958,2.653l.876.876h0a3.3,3.3,0,0,0,1.632.9l-5.292,5.292a11.96,11.96,0,0,1-8.939,3.482,4.342,4.342,0,0,0-3.239,1.28l-3.36,3.36a.766.766,0,0,1-1.083,0l-3.635-3.635a.766.766,0,1,0-1.084,1.083l3.635,3.635a2.3,2.3,0,0,0,3.25,0l3.36-3.36a2.807,2.807,0,0,1,2.091-.833,13.5,13.5,0,0,0,10.087-3.93l9.276-9.277A3.3,3.3,0,0,0,156.891,147.289ZM142.6,142.1a1.776,1.776,0,0,1-1.264-.524h0l-.876-.876a1.79,1.79,0,0,1,0-2.528l4.241-4.241a1.788,1.788,0,0,1,2.528,0l.876.876a1.788,1.788,0,0,1,0,2.528l-4.241,4.241A1.775,1.775,0,0,1,142.6,142.1Zm4.487,4.487a1.776,1.776,0,0,1-1.264-.524h0l-.876-.876a1.79,1.79,0,0,1,0-2.528l4.241-4.241a1.788,1.788,0,0,1,2.528,0l.876.876a1.79,1.79,0,0,1,0,2.528l-4.241,4.241A1.776,1.776,0,0,1,147.087,146.587Zm5.751,3.964a1.788,1.788,0,0,1-2.528,0l-.876-.876a1.788,1.788,0,0,1,0-2.528l2-2a1.788,1.788,0,0,1,2.524,0l.876.876a1.788,1.788,0,0,1,0,2.528Z" transform="translate(-52.064 -115.402)"/>
      <path id="Path_979805" data-name="Path 979805" d="M71.628,74.131a3.329,3.329,0,0,0,.859-3.207L67.618,52.751a2.061,2.061,0,0,1,1.456-2.522,4.346,4.346,0,0,1,5.317,3.07l1.33,4.964a3.775,3.775,0,0,0,.734,1.428,3.892,3.892,0,0,0,2.4,1.368,5.581,5.581,0,0,1,.563,10.9.766.766,0,0,0,.4,1.48,7.113,7.113,0,0,0,.158-13.7L95.661,44.051a2.457,2.457,0,0,1,3.4-.094,2.407,2.407,0,0,1,.049,3.451l-.915.915a.766.766,0,0,0,1.084,1.083l.915-.915a3.939,3.939,0,0,0-.079-5.648,4,4,0,0,0-5.539.124L78.772,58.773a.766.766,0,0,1-1.133-.053,2.249,2.249,0,0,1-.439-.853L75.871,52.9a5.88,5.88,0,0,0-7.194-4.153,3.6,3.6,0,0,0-2.539,4.4l4.869,18.173a1.793,1.793,0,0,1-.463,1.727l-3.8,3.8a2.3,2.3,0,0,0,0,3.25L69.61,82.96a.766.766,0,1,0,1.083-1.083l-2.864-2.864a.767.767,0,0,1,0-1.084Z" transform="translate(0 -37.521)"/>
      <path id="Path_979806" data-name="Path 979806" d="M144.464,389.616a.766.766,0,0,0,0,1.083l3.058,3.058a.766.766,0,0,0,1.084-1.083l-3.058-3.058A.766.766,0,0,0,144.464,389.616Z" transform="translate(-70.234 -349.615)"/>
      <path id="Path_979807" data-name="Path 979807" d="M134.261,14.173a2.3,2.3,0,0,0,3.25,0l9.051-9.051a2.3,2.3,0,0,0,0-3.25l-1.2-1.2a2.3,2.3,0,0,0-3.25,0l-2,2A.766.766,0,1,0,141.2,3.754l2-2a.767.767,0,0,1,1.084,0l1.2,1.2a.767.767,0,0,1,0,1.084l-9.051,9.051a.767.767,0,0,1-1.083,0L129.658,7.4a.767.767,0,0,1,0-1.084l1.2-1.2a.767.767,0,0,1,1.083,0l3.4,3.4a.766.766,0,0,0,1.084,0l2.208-2.208a.766.766,0,0,0-1.084-1.083L135.886,6.9l-2.862-2.862a2.3,2.3,0,0,0-3.25,0l-1.2,1.2a2.3,2.3,0,0,0,0,3.25Z" transform="translate(-55.566 0)"/>
    </g>
  </g>
</svg>
