<svg xmlns="http://www.w3.org/2000/svg" xmlns:xlink="http://www.w3.org/1999/xlink" width="108" height="108" viewBox="0 0 108 108">
  <defs>
    <filter id="Path_978544" x="0" y="0" width="108" height="108" filterUnits="userSpaceOnUse">
      <feOffset dy="3" input="SourceAlpha"/>
      <feGaussianBlur stdDeviation="3" result="blur"/>
      <feFlood flood-opacity="0.161"/>
      <feComposite operator="in" in2="blur"/>
      <feComposite in="SourceGraphic"/>
    </filter>
  </defs>
  <g id="Group_1144327" data-name="Group 1144327" transform="translate(-617 -1080)">
    <g id="Group_1143820" data-name="Group 1143820" transform="translate(626 1086)">
      <g id="Group_1143706" data-name="Group 1143706" transform="translate(0)">
        <g transform="matrix(1, 0, 0, 1, -9, -6)" filter="url(#Path_978544)">
          <g id="Path_978544-2" data-name="Path 978544" transform="translate(9 6)" fill="#edf5fb">
            <path d="M 45 88.5 C 39.12687683105469 88.5 33.43022537231445 87.35007476806641 28.06830024719238 85.08217620849609 C 22.88852500915527 82.89131164550781 18.23629951477051 79.75458526611328 14.2408504486084 75.75914764404297 C 10.24541282653809 71.76370239257812 7.108687400817871 67.11147308349609 4.917825222015381 61.93170166015625 C 2.649924993515015 56.56977462768555 1.5 50.87312316894531 1.5 45 C 1.5 39.12687683105469 2.649924993515015 33.43022537231445 4.917825222015381 28.06830024719238 C 7.108687400817871 22.88852500915527 10.24541282653809 18.23629951477051 14.2408504486084 14.2408504486084 C 18.23629951477051 10.24541282653809 22.88852500915527 7.108687400817871 28.06830024719238 4.917825222015381 C 33.43022537231445 2.649924993515015 39.12687683105469 1.5 45 1.5 C 50.87312316894531 1.5 56.56977462768555 2.649924993515015 61.93170166015625 4.917825222015381 C 67.11147308349609 7.108687400817871 71.76370239257812 10.24541282653809 75.75914764404297 14.2408504486084 C 79.75458526611328 18.23629951477051 82.89131164550781 22.88852500915527 85.08217620849609 28.06830024719238 C 87.35007476806641 33.43022537231445 88.5 39.12687683105469 88.5 45 C 88.5 50.87312316894531 87.35007476806641 56.56977462768555 85.08217620849609 61.93170166015625 C 82.89131164550781 67.11147308349609 79.75458526611328 71.76370239257812 75.75914764404297 75.75914764404297 C 71.76370239257812 79.75458526611328 67.11147308349609 82.89131164550781 61.93170166015625 85.08217620849609 C 56.56977462768555 87.35007476806641 50.87312316894531 88.5 45 88.5 Z" stroke="none"/>
            <path d="M 45 3 C 39.32871246337891 3 33.82865524291992 4.110054016113281 28.65262985229492 6.299339294433594 C 23.65165710449219 8.414573669433594 19.15968322753906 11.44334411621094 15.301513671875 15.301513671875 C 11.44334411621094 19.15968322753906 8.414573669433594 23.65165710449219 6.299339294433594 28.65262985229492 C 4.110054016113281 33.82865524291992 3 39.32871246337891 3 45 C 3 50.67128753662109 4.110054016113281 56.17134475708008 6.299339294433594 61.34737396240234 C 8.414573669433594 66.34834289550781 11.44334411621094 70.84031677246094 15.301513671875 74.698486328125 C 19.15968322753906 78.55665588378906 23.65165710449219 81.58542633056641 28.65262985229492 83.70066070556641 C 33.82865524291992 85.88994598388672 39.32871246337891 87 45 87 C 50.67128753662109 87 56.17134475708008 85.88994598388672 61.34737396240234 83.70066070556641 C 66.34834289550781 81.58542633056641 70.84031677246094 78.55665588378906 74.698486328125 74.698486328125 C 78.55665588378906 70.84031677246094 81.58542633056641 66.34834289550781 83.70066070556641 61.34737396240234 C 85.88994598388672 56.17134475708008 87 50.67128753662109 87 45 C 87 39.32871246337891 85.88994598388672 33.82865524291992 83.70066070556641 28.65262985229492 C 81.58542633056641 23.65165710449219 78.55665588378906 19.15968322753906 74.698486328125 15.301513671875 C 70.84031677246094 11.44334411621094 66.34834289550781 8.414573669433594 61.34737396240234 6.299339294433594 C 56.17134475708008 4.110054016113281 50.67128753662109 3 45 3 M 45 0 C 69.85281372070312 0 90 20.14718627929688 90 45 C 90 69.85281372070312 69.85281372070312 90 45 90 C 20.14718627929688 90 0 69.85281372070312 0 45 C 0 20.14718627929688 20.14718627929688 0 45 0 Z" stroke="none" fill="#2f5b79"/>
          </g>
        </g>
      </g>
    </g>
    <g id="innovation_8365361" transform="translate(626.427 1086.43)">
      <g id="Group_1144326" data-name="Group 1144326" transform="translate(10.01 10.212)">
        <path id="Path_978960" data-name="Path 978960" d="M164.238,147.644a4.056,4.056,0,0,0-2.867,6.92,1.2,1.2,0,0,1,0,1.7l-2.59,2.59a1.2,1.2,0,0,1-1.7,0,4.056,4.056,0,0,0-6.92,2.867,1.2,1.2,0,0,1-1.2,1.2h-3.663a1.2,1.2,0,0,1-1.2-1.2,4.054,4.054,0,0,0-6.92-2.867,1.2,1.2,0,0,1-1.7,0l-2.59-2.59a1.2,1.2,0,0,1,0-1.7,4.056,4.056,0,0,0-2.867-6.92,1.2,1.2,0,0,1-1.2-1.2v-1.832h9.366a8.951,8.951,0,1,0,17.9,0h9.366v1.832a1.2,1.2,0,0,1-1.2,1.2Z" transform="translate(-112.561 -126.292)" fill="#636c77" fill-rule="evenodd"/>
        <g id="Group_1144323" data-name="Group 1144323" transform="translate(28.73)">
          <path id="Path_978961" data-name="Path 978961" d="M221.334,17.417a5.832,5.832,0,0,1,5.832,5.832c0,3.792-2.728,2.9-2.728,9.783H218.23c0-6.878-2.728-5.991-2.728-9.783A5.832,5.832,0,0,1,221.334,17.417Z" transform="translate(-215.502 -17.417)" fill="#fdcd56" fill-rule="evenodd"/>
          <path id="Path_978962" data-name="Path 978962" d="M227.891,114.5h6.445a.967.967,0,0,1,.964.964v2.081a.967.967,0,0,1-.964.964h-.991v.967a.912.912,0,0,1-.91.91h-2.644a.912.912,0,0,1-.91-.91v-.967h-.991a.967.967,0,0,1-.964-.964v-2.081A.967.967,0,0,1,227.891,114.5Z" transform="translate(-225.282 -100.517)" fill="#e4e8eb" fill-rule="evenodd"/>
        </g>
        <g id="Group_1144324" data-name="Group 1144324" transform="translate(38.712 18.282)">
          <path id="Path_978963" data-name="Path 978963" d="M312.961,178.223l1.672-11.66,5.405-9.362a2.09,2.09,0,0,1,2.846-.763,2.215,2.215,0,0,1,.763,2.846l-3.668,9.214,10.543-9.1V146.3a1.939,1.939,0,0,1,1.933-1.933,1.966,1.966,0,0,1,1.933,1.933l.468,12.252c.744,8.89-12.093,22.372-16.435,29.893l-2.117,3.667-8.522-4.92Z" transform="translate(-304.475 -144.366)" fill="#e4e8eb" fill-rule="evenodd"/>
          <path id="Path_978964" data-name="Path 978964" d="M355.758,277.028A3.639,3.639,0,1,1,357.09,282,3.639,3.639,0,0,1,355.758,277.028Z" transform="translate(-345.123 -256.365)" fill="#f4f6f8" fill-rule="evenodd"/>
          <path id="Path_978965" data-name="Path 978965" d="M0,0H6.292V15.1H0Z" transform="matrix(0.5, -0.866, 0.866, 0.5, 0, 43.294)" fill="#cad0d7" fill-rule="evenodd"/>
          <circle id="Ellipse_11610" data-name="Ellipse 11610" cx="4.921" cy="4.921" r="4.921" transform="translate(3.996 42.053) rotate(-61.847)" fill="#f4f6f8"/>
          <path id="Path_978966" data-name="Path 978966" d="M465.685,248.767l3.738,3.731a13.552,13.552,0,0,0,.626-3.671Z" transform="translate(-439.637 -233.732)" fill="#cad0d7" fill-rule="evenodd"/>
        </g>
        <g id="Group_1144325" data-name="Group 1144325" transform="translate(0 18.282)">
          <path id="Path_978967" data-name="Path 978967" d="M37.926,178.223l-1.672-11.66L30.849,157.2A2.09,2.09,0,0,0,28,156.437a2.215,2.215,0,0,0-.763,2.846l3.668,9.214-10.543-9.1V146.3a1.939,1.939,0,0,0-1.933-1.933A1.966,1.966,0,0,0,16.5,146.3l-.468,12.252c-.744,8.89,12.093,22.372,16.435,29.893l2.117,3.667,8.522-4.92Z" transform="translate(-15.998 -144.366)" fill="#e4e8eb" fill-rule="evenodd"/>
          <path id="Path_978968" data-name="Path 978968" d="M112.978,277.028A3.639,3.639,0,1,0,111.646,282,3.639,3.639,0,0,0,112.978,277.028Z" transform="translate(-93.199 -256.365)" fill="#f4f6f8" fill-rule="evenodd"/>
          <path id="Path_978969" data-name="Path 978969" d="M0,0H15.1V6.292H0Z" transform="matrix(0.866, -0.5, 0.5, 0.866, 14.188, 45.392)" fill="#cad0d7" fill-rule="evenodd"/>
          <path id="Path_978970" data-name="Path 978970" d="M128.384,390.673a4.921,4.921,0,1,0-1.8,6.722A4.921,4.921,0,0,0,128.384,390.673Z" transform="translate(-104.339 -353.096)" fill="#f4f6f8" fill-rule="evenodd"/>
          <path id="Path_978971" data-name="Path 978971" d="M20.372,248.767,16.634,252.5a13.553,13.553,0,0,1-.626-3.671Z" transform="translate(-16.007 -233.732)" fill="#cad0d7" fill-rule="evenodd"/>
        </g>
      </g>
      <path id="Path_978972" data-name="Path 978972" d="M60.186,68.81a.991.991,0,1,1-.363-1.354A.989.989,0,0,1,60.186,68.81Zm1.463-18.534a.991.991,0,1,1,.363,1.354A.99.99,0,0,1,61.649,50.276Zm3.442,16.65c.667-.927,1.371-1.887,2.089-2.864,3.846-5.235,8.4-11.437,10.18-16.726L74.719,44.7l-7.588,6.546a4.651,4.651,0,0,1-6.947,3.55,4.751,4.751,0,0,1-.819-.6l-1.159,8.093a.931.931,0,0,1-.058.216,5.924,5.924,0,0,1,6.907,4.274C65.068,66.828,65.078,66.877,65.091,66.926ZM61.432,77.755l2.138-3.7L62.4,73.378a5.922,5.922,0,0,1-9-5.2l-1.165-.672-2.139,3.7Zm3.726-36.128a1.084,1.084,0,0,1,1.47-.394,1.255,1.255,0,0,1,.33,1.6l-1.677,4.209a4.429,4.429,0,0,0-.451-.3,4.624,4.624,0,0,0-2.271-.621Zm-4.928,7.829a2.633,2.633,0,1,0,2.283-1.315,2.609,2.609,0,0,0-2.283,1.315ZM62.716,70.27a3.912,3.912,0,1,0-6.776-3.913h0a3.912,3.912,0,0,0,6.777,3.911ZM76.05,29.57A.918.918,0,0,1,76.7,29.3a.962.962,0,0,1,.926.964l.462,12.1-2.312-.032V30.222a.917.917,0,0,1,.272-.652Zm1.9,15.506-.713-.71.817.012c-.028.231-.062.462-.1.7Zm2.157-2.662-.467-12.229a2.97,2.97,0,0,0-2.94-2.9,2.945,2.945,0,0,0-2.941,2.94V42.863l-7,6.039c-.007-.02-.018-.039-.026-.059l2.1-5.263a3.208,3.208,0,0,0-1.2-4.092,3.1,3.1,0,0,0-4.224,1.132l-3.734,6.466a4.664,4.664,0,0,0-1.8,3.311L56.237,61.811,54.2,65.348a0,0,0,0,1,0,0h0l-.416.72-1.4-.81A1.008,1.008,0,0,0,51,65.628l-3.147,5.45a1.008,1.008,0,0,0,.369,1.377L61.3,80.005a1.009,1.009,0,0,0,1.378-.369l3.145-5.45a1.007,1.007,0,0,0-.369-1.376l-1.39-.8c1.221-1.957,2.938-4.3,4.744-6.753,5.554-7.562,11.851-16.132,11.3-22.841Zm-51.15,26.4a.99.99,0,1,1,1.352.361A.992.992,0,0,1,28.959,68.81Zm-3.18-17.543a.991.991,0,1,1,1.354.363A.989.989,0,0,1,25.779,51.267Zm1.934,26.489,11.332-6.542-2.139-3.7-1.162.671a5.936,5.936,0,0,1-5.919,6.065,5.994,5.994,0,0,1-3.089-.863l-1.162.669ZM11.784,47.335c1.78,5.289,6.335,11.491,10.179,16.726.719.978,1.423,1.937,2.09,2.864.013-.049.023-.1.036-.147A5.924,5.924,0,0,1,31,62.505a1.01,1.01,0,0,1-.058-.216l-1.16-8.095a4.7,4.7,0,0,1-.818.6,4.649,4.649,0,0,1-6.947-3.55L14.425,44.7Zm-.7-2.957.817-.012-.713.71C11.15,44.841,11.116,44.609,11.088,44.379ZM12.442,29.3a.929.929,0,0,1,.924.924V42.33l-2.313.032.462-12.1A.963.963,0,0,1,12.442,29.3ZM22.518,41.233a1.085,1.085,0,0,1,1.47.394l2.6,4.5a4.624,4.624,0,0,0-2.271.621,4.519,4.519,0,0,0-.451.3l-1.676-4.209A1.255,1.255,0,0,1,22.518,41.233ZM24.1,50.09a2.628,2.628,0,1,0,1.225-1.6A2.616,2.616,0,0,0,24.1,50.09Zm2.333,20.18a3.912,3.912,0,1,0,4.4-5.736,3.975,3.975,0,0,0-1.02-.133,3.912,3.912,0,0,0-3.381,5.87Zm11.719-4.642a1.008,1.008,0,0,0-1.377-.368l-1.4.81-2.459-4.26L31.263,50.344a4.647,4.647,0,0,0-1.8-3.257L25.733,40.62a3.1,3.1,0,0,0-4.224-1.132,3.208,3.208,0,0,0-1.2,4.092l2.1,5.263-.026.059-7-6.038V30.222a2.945,2.945,0,0,0-2.941-2.94,2.971,2.971,0,0,0-2.941,2.9L9.036,42.415c-.546,6.709,5.75,15.279,11.3,22.841,1.806,2.457,3.522,4.8,4.744,6.753l-1.389.8a1.007,1.007,0,0,0-.369,1.376l3.145,5.45a1.009,1.009,0,0,0,1.378.369l13.077-7.55a1.008,1.008,0,0,0,.369-1.377ZM57.339,10.721a1.008,1.008,0,1,1,1.426-1.426,10.482,10.482,0,0,1,0,14.821,1.008,1.008,0,0,1-1.426-1.426,8.465,8.465,0,0,0,0-11.969Zm-3.233,8.736a1.008,1.008,0,0,0,1.426,1.426,5.91,5.91,0,0,0,0-8.355,1.008,1.008,0,1,0-1.426,1.426,3.893,3.893,0,0,1,0,5.5ZM30.38,24.115a10.481,10.481,0,0,1,0-14.821,1.008,1.008,0,1,1,1.426,1.426,8.464,8.464,0,0,0,0,11.969,1.008,1.008,0,0,1-1.426,1.426Zm1.5-7.411a5.869,5.869,0,0,0,1.729,4.178,1.008,1.008,0,0,0,1.426-1.426,3.893,3.893,0,0,1,0-5.5,1.008,1.008,0,0,0-1.426-1.426A5.868,5.868,0,0,0,31.884,16.7Zm12.689-5.688A4.83,4.83,0,0,1,49.4,15.84a4.2,4.2,0,0,1-.9,2.715,9.565,9.565,0,0,0-1.664,4.426H45.58V17.508l2-1.153a1.008,1.008,0,0,0-1.008-1.746l-2,1.152-2-1.152a1.008,1.008,0,0,0-1.008,1.746l2,1.153V22.98h-1.25a9.55,9.55,0,0,0-1.664-4.426,4.2,4.2,0,0,1-.9-2.715A4.83,4.83,0,0,1,44.573,11.016Zm3.178,15.973H46.8A1.007,1.007,0,0,0,45.8,28v.868H43.348V28a1.007,1.007,0,0,0-1.008-1.008h-.946V25h6.357Zm-7.43-3.716a7.629,7.629,0,0,0-1.364-3.625,6.161,6.161,0,0,1-1.225-3.809,6.84,6.84,0,0,1,13.681,0,6.163,6.163,0,0,1-1.225,3.809,7.628,7.628,0,0,0-1.364,3.625,1.968,1.968,0,0,1,.943,1.678v2.081a1.973,1.973,0,0,1-1.956,1.973,1.919,1.919,0,0,1-1.917,1.877H43.25a1.919,1.919,0,0,1-1.916-1.877,1.973,1.973,0,0,1-1.956-1.973V24.952a1.968,1.968,0,0,1,.943-1.678ZM46.4,45.635H42.74a.2.2,0,0,1-.194-.2,4.984,4.984,0,0,0-3.125-4.676,5.143,5.143,0,0,0-1.97-.4,4.99,4.99,0,0,0-3.547,1.5.2.2,0,0,1-.276,0l-2.589-2.591a.194.194,0,0,1,0-.276,5.063,5.063,0,0,0-3.58-8.641.2.2,0,0,1-.195-.2v-.823h7.4a9.961,9.961,0,0,0,19.819,0h7.4v.823a.2.2,0,0,1-.194.2,5.063,5.063,0,0,0-3.58,8.641.2.2,0,0,1,0,.276L55.517,41.86a.2.2,0,0,1-.139.056.194.194,0,0,1-.138-.056A5.065,5.065,0,0,0,46.6,45.439a.2.2,0,0,1-.194.2Zm2.211-.2a2.213,2.213,0,0,1-2.21,2.212H42.741a2.213,2.213,0,0,1-2.21-2.212,3.046,3.046,0,0,0-5.2-2.154,2.214,2.214,0,0,1-3.127,0l-2.591-2.591a2.212,2.212,0,0,1,0-3.128,3.047,3.047,0,0,0-2.154-5.2,2.215,2.215,0,0,1-2.211-2.213V28.324a1.008,1.008,0,0,1,1.008-1.008h9.365a1.008,1.008,0,0,1,1.008,1.008,7.944,7.944,0,1,0,15.887,0,1.008,1.008,0,0,1,1.008-1.008h9.365A1.008,1.008,0,0,1,63.9,28.324v1.832a2.214,2.214,0,0,1-2.21,2.213,3.047,3.047,0,0,0-2.154,5.2,2.215,2.215,0,0,1,0,3.128l-2.589,2.591a2.213,2.213,0,0,1-3.128,0,3.048,3.048,0,0,0-5.2,2.154Z" transform="translate(0 0)" fill-rule="evenodd"/>
    </g>
  </g>
</svg>
