<svg xmlns="http://www.w3.org/2000/svg" xmlns:xlink="http://www.w3.org/1999/xlink" width="91" height="91" viewBox="0 0 91 91">
  <defs>
    <filter id="Ellipse_11513" x="0" y="0" width="91" height="91" filterUnits="userSpaceOnUse">
      <feOffset dy="3" input="SourceAlpha"/>
      <feGaussianBlur stdDeviation="3" result="blur"/>
      <feFlood flood-opacity="0.161"/>
      <feComposite operator="in" in2="blur"/>
      <feComposite in="SourceGraphic"/>
    </filter>
  </defs>
  <g id="Group_1146651" data-name="Group 1146651" transform="translate(-282 -660)">
    <g id="Group_1145611" data-name="Group 1145611">
      <g id="Group_1144315" data-name="Group 1144315" transform="translate(0 -65)">
        <g id="Group_1143810" data-name="Group 1143810" transform="translate(0 -199)">
          <g id="Group_1143699" data-name="Group 1143699" transform="translate(290.867 930)">
            <g id="Group_1143465" data-name="Group 1143465">
              <g transform="matrix(1, 0, 0, 1, -8.87, -6)" filter="url(#Ellipse_11513)">
                <g id="Ellipse_11513-2" data-name="Ellipse 11513" transform="translate(9 6)" fill="#f7eafc" stroke="#361245" stroke-width="3">
                  <circle cx="36.5" cy="36.5" r="36.5" stroke="none"/>
                  <circle cx="36.5" cy="36.5" r="35" fill="none"/>
                </g>
              </g>
            </g>
          </g>
        </g>
      </g>
      <g id="descompostura_1_" data-name="descompostura (1)" transform="translate(291.964 668.738)">
        <g id="Group_1145610" data-name="Group 1145610" transform="translate(9.696 9.798)">
          <g id="Group_1145604" data-name="Group 1145604" transform="translate(9.135 6.446)">
            <path id="Path_979752" data-name="Path 979752" d="M123.985,91.423a1.931,1.931,0,0,0-1.365,3.295.573.573,0,0,1,0,.81l-1.233,1.233a.573.573,0,0,1-.81,0,1.931,1.931,0,0,0-3.295,1.365.573.573,0,0,1-.573.573h-1.744a.573.573,0,0,1-.573-.573,1.93,1.93,0,0,0-3.295-1.365.573.573,0,0,1-.81,0l-1.233-1.233a.573.573,0,0,1,0-.81,1.931,1.931,0,0,0-1.365-3.295.573.573,0,0,1-.573-.573V89.106a.573.573,0,0,1,.573-.573,1.931,1.931,0,0,0,1.365-3.295.573.573,0,0,1,0-.81l1.233-1.233a.573.573,0,0,1,.81,0,1.931,1.931,0,0,0,3.295-1.365.573.573,0,0,1,.573-.573h1.744a.573.573,0,0,1,.573.573,1.931,1.931,0,0,0,3.295,1.365.573.573,0,0,1,.81,0l1.233,1.233a.573.573,0,0,1,0,.81,1.931,1.931,0,0,0,1.365,3.295.573.573,0,0,1,.573.573V90.85A.573.573,0,0,1,123.985,91.423Z" transform="translate(-107.116 -81.257)" fill="#fdcd56" fill-rule="evenodd"/>
            <circle id="Ellipse_11651" data-name="Ellipse 11651" cx="4.19" cy="4.19" r="4.19" transform="translate(4.53 4.53)" fill="#f4f6f8"/>
          </g>
          <g id="Group_1145605" data-name="Group 1145605" transform="translate(25.655 0)">
            <path id="Path_979753" data-name="Path 979753" d="M277.641,29.182v-4.59a.3.3,0,0,1,.182-.276,4.236,4.236,0,0,0,2.558-3.89,4.84,4.84,0,0,0-1.622-3.407.3.3,0,0,0-.477.244v2.865a.294.294,0,0,1-.15.261l-1.835,1.06a.294.294,0,0,1-.3,0l-1.835-1.06a.294.294,0,0,1-.15-.26V17.264a.3.3,0,0,0-.477-.244,4.825,4.825,0,0,0-1.623,3.406,4.237,4.237,0,0,0,2.558,3.89.3.3,0,0,1,.182.276V27.8a.294.294,0,0,0,.15.26l2.39,1.38a.3.3,0,0,0,.451-.261Zm4.72,14.434-4.453-4.453a.294.294,0,0,0-.291-.078l-2.666.714a.3.3,0,0,0-.135.5l5.429,5.429a1.5,1.5,0,1,0,2.116-2.115Z" transform="translate(-271.909 -16.961)" fill="#a9b0bb" fill-rule="evenodd"/>
          </g>
          <g id="Group_1145606" data-name="Group 1145606" transform="translate(32.847 9.683)">
            <path id="Path_979754" data-name="Path 979754" d="M357.451,121.865a1.58,1.58,0,0,0-1.117,2.7.469.469,0,0,1,0,.663l-1.009,1.009a.469.469,0,0,1-.663,0,1.58,1.58,0,0,0-2.7,1.117.469.469,0,0,1-.469.469h-1.427a.469.469,0,0,1-.469-.469,1.579,1.579,0,0,0-2.7-1.117.469.469,0,0,1-.663,0l-1.009-1.009a.469.469,0,0,1,0-.663,1.58,1.58,0,0,0-1.117-2.7.469.469,0,0,1-.469-.469V119.97a.469.469,0,0,1,.469-.469,1.58,1.58,0,0,0,1.117-2.7.469.469,0,0,1,0-.663l1.009-1.009a.469.469,0,0,1,.663,0,1.58,1.58,0,0,0,2.7-1.117.469.469,0,0,1,.469-.469H351.5a.469.469,0,0,1,.469.469,1.58,1.58,0,0,0,2.7,1.117.469.469,0,0,1,.663,0l1.009,1.009a.469.469,0,0,1,0,.663,1.58,1.58,0,0,0,1.117,2.7.469.469,0,0,1,.469.469V121.4A.469.469,0,0,1,357.451,121.865Z" transform="translate(-343.649 -113.548)" fill="#636c77" fill-rule="evenodd"/>
            <circle id="Ellipse_11652" data-name="Ellipse 11652" cx="3.428" cy="3.428" r="3.428" transform="translate(3.017 9.698) rotate(-76.7)" fill="#f4f6f8"/>
          </g>
          <path id="Path_979755" data-name="Path 979755" d="M207.27,41.329l1.264,2.823a.3.3,0,0,1-.274.424h-2.528a.3.3,0,0,1-.274-.424l1.264-2.823a.3.3,0,0,1,.549,0Zm-4.157-20.815-1.1-2.89a.3.3,0,0,0-.494-.105l-1.787,1.787a.3.3,0,0,0,.105.494l2.89,1.1a.3.3,0,0,0,.388-.388Zm14.347,3.979,1.1-2.89a.3.3,0,0,1,.494-.105l1.787,1.787a.3.3,0,0,1-.105.494l-2.89,1.1a.3.3,0,0,1-.388-.388Z" transform="translate(-181.231 -17.383)" fill="#f76c82" fill-rule="evenodd"/>
          <g id="Group_1145609" data-name="Group 1145609" transform="translate(0 27.448)">
            <g id="Group_1145608" data-name="Group 1145608" transform="translate(2.987)">
              <g id="Group_1145607" data-name="Group 1145607" transform="translate(0)">
                <path id="Path_979756" data-name="Path 979756" d="M55.642,292.313c-3.267,1.59-6.564,3.118-9.851,4.665L50.4,308.094l6.824-3.3a4.1,4.1,0,0,1,3.046-.254l7.226,2.112c2.29.669,5.13-.543,7.264-1.361l13.577-5.205c3.575-1.371,4.453-8.537-3.989-6.081l-9.685,2.817a3.083,3.083,0,0,0-2.166-2.168l-6.552-1.768c-4.461-3.175-6.737-2.3-10.3-.568Z" transform="translate(-45.791 -290.754)" fill="#efc7a4" fill-rule="evenodd"/>
                <path id="Path_979757" data-name="Path 979757" d="M201.387,331.761l-14.648-3.952a3.086,3.086,0,0,0,2.169,3.772l8.708,2.349A3.085,3.085,0,0,0,201.387,331.761Z" transform="translate(-172.513 -324.094)" fill="#d5a889" fill-rule="evenodd"/>
              </g>
            </g>
            <path id="Path_979758" data-name="Path 979758" d="M27.418,327.055,23.942,328.5A1.486,1.486,0,0,1,22,327.7l-5.886-14.134a1.484,1.484,0,0,1,.8-1.94l3.476-1.443a1.486,1.486,0,0,1,1.938.8l5.886,14.134a1.483,1.483,0,0,1-.8,1.94Z" transform="translate(-15.999 -308.132)" fill="#e4e8eb" fill-rule="evenodd"/>
          </g>
        </g>
        <path id="Path_979759" data-name="Path 979759" d="M44.306,37.879a.5.5,0,1,1,.707,0A.5.5,0,0,1,44.306,37.879ZM47.46,14.942l.912.912-1.475.562Zm-1.777,3.391a.708.708,0,0,0,.25-.046l3.952-1.508a.7.7,0,0,0,.246-1.151l-2.445-2.444a.7.7,0,0,0-1.151.246l-1.507,3.951a.7.7,0,0,0,.656.952ZM30.038,10.964l.563,1.475-1.475-.562ZM27.614,12.8l3.951,1.507a.7.7,0,0,0,.906-.906L30.964,9.452a.7.7,0,0,0-1.152-.246l-2.444,2.444a.7.7,0,0,0,.246,1.152Zm7.2,23.584.645-1.441.645,1.441Zm.645-3.86a.7.7,0,0,0-.64.415L33.089,36.8a.7.7,0,0,0,.641.988h3.456a.7.7,0,0,0,.641-.988L36.1,32.94a.7.7,0,0,0-.641-.415Zm14.218-8.539a2.727,2.727,0,1,1-2.727,2.727A2.729,2.729,0,0,1,49.676,23.986Zm0,6.857a4.13,4.13,0,1,0-4.13-4.131A4.135,4.135,0,0,0,49.676,30.843Zm-4.561-6.019a2.24,2.24,0,0,1-1.872,1.4V27.2a2.283,2.283,0,0,1,1.535,3.71l.7.7a2.283,2.283,0,0,1,3.71,1.537h.984a2.283,2.283,0,0,1,3.709-1.537l.7-.7A2.283,2.283,0,0,1,56.11,27.2v-.984a2.283,2.283,0,0,1-1.537-3.71l-.7-.7a2.283,2.283,0,0,1-3.709-1.536h-.984a2.284,2.284,0,0,1-3.71,1.536l-.7.7A2.24,2.24,0,0,1,45.115,24.824ZM43.63,23.331a.878.878,0,0,1-.621,1.5A1.172,1.172,0,0,0,41.839,26v1.427a1.171,1.171,0,0,0,1.17,1.17.878.878,0,0,1,.621,1.5,1.172,1.172,0,0,0,0,1.655l1.01,1.009a1.17,1.17,0,0,0,1.655,0,.877.877,0,0,1,1.5.62,1.172,1.172,0,0,0,1.17,1.171H50.39a1.171,1.171,0,0,0,1.17-1.171.879.879,0,0,1,1.5-.62,1.17,1.17,0,0,0,1.655,0l1.009-1.009a1.17,1.17,0,0,0,0-1.655.878.878,0,0,1,.62-1.5,1.172,1.172,0,0,0,1.171-1.17V26a1.172,1.172,0,0,0-1.171-1.171.878.878,0,0,1-.62-1.5,1.17,1.17,0,0,0,0-1.655l-1.009-1.009a1.172,1.172,0,0,0-1.655,0,.879.879,0,0,1-1.5-.62,1.171,1.171,0,0,0-1.17-1.17H48.962a1.172,1.172,0,0,0-1.17,1.17.878.878,0,0,1-1.5.62,1.171,1.171,0,0,0-1.655,0l-1.01,1.009a1.172,1.172,0,0,0,0,1.655Zm-2.616,9.426-1.771.475,4.938,4.938A.794.794,0,0,0,45.3,37.046ZM44.742,39.8a2.2,2.2,0,0,0,1.554-3.75L41.72,31.478a.7.7,0,0,0-.678-.182l-3.337.894a.7.7,0,0,0-.315,1.174l5.8,5.8a2.192,2.192,0,0,0,1.555.642Zm-8-28.564v1.995a.7.7,0,0,0,.35.608l2.136,1.233a.7.7,0,0,0,.7,0l2.136-1.233a.7.7,0,0,0,.35-.608v-2a4.4,4.4,0,0,1,.7,2.122,3.554,3.554,0,0,1-2.286,3.307.7.7,0,0,0-.454.656v4.1L38.789,20.5V17.323a.7.7,0,0,0-.453-.656,3.553,3.553,0,0,1-2.286-3.307A4.4,4.4,0,0,1,36.747,11.24Zm.64,6.541a4.968,4.968,0,0,1-2.74-4.422c0-1.44.981-3.781,2.577-4.322a.7.7,0,0,1,.927.664V12.83l1.435.828,1.434-.828V9.7a.7.7,0,0,1,.924-.666c1.574.525,2.579,2.911,2.579,4.323a4.965,4.965,0,0,1-2.74,4.422v4.856a.7.7,0,0,1-1.052.608l-2.992-1.728a.7.7,0,0,1-.351-.608ZM54.979,45.959A3.394,3.394,0,0,0,57,42.114c-.489-1.445-2.572-1.782-5.572-.9l-9.078,2.663a3.782,3.782,0,0,1-4.744,3.954L28.9,45.495a.7.7,0,1,1,.364-1.355l8.712,2.334A2.375,2.375,0,1,0,39.2,41.886L32.645,40.13a.714.714,0,0,1-.225-.105c-4.132-2.931-6.129-2.185-9.588-.493-1.8.88-3.585,1.729-5.268,2.525l4.062,9.755,2.192-1.066a4.813,4.813,0,0,1,3.548-.3l7.23,2.1c1.908.554,4.383-.409,6.371-1.183l.443-.172Zm-33.71,9.236a.78.78,0,0,1-.425.423l-3.476,1.444a.783.783,0,0,1-1.021-.422L10.46,42.506a.774.774,0,0,1,.422-1.022l3.476-1.444a.784.784,0,0,1,1.021.422L21.265,54.6A.778.778,0,0,1,21.269,55.194ZM58.33,41.664a3.354,3.354,0,0,0-2.381-2.138,9.138,9.138,0,0,0-4.915.34l-9.055,2.656a3.768,3.768,0,0,0-2.415-1.991l-6.434-1.724c-4.7-3.291-7.213-2.346-10.913-.537-1.772.868-3.53,1.7-5.192,2.489l-.349-.837a2.188,2.188,0,0,0-2.855-1.179l-3.476,1.444a2.179,2.179,0,0,0-1.179,2.858L15.05,57.178a2.187,2.187,0,0,0,2.855,1.179l3.476-1.444a2.179,2.179,0,0,0,1.179-2.858l-.394-.947,2.266-1.1a3.4,3.4,0,0,1,2.543-.217l7.23,2.1a5.868,5.868,0,0,0,1.64.22,16.351,16.351,0,0,0,5.631-1.444l.438-.17,13.569-5.229a4.768,4.768,0,0,0,2.847-5.6ZM27.549,21.573a3.488,3.488,0,1,1-3.489,3.488A3.492,3.492,0,0,1,27.549,21.573Zm0,8.38a4.892,4.892,0,1,0-4.892-4.892A4.9,4.9,0,0,0,27.549,29.953Zm-8.019-5.638a2.633,2.633,0,0,0,1.821-4.4l1.055-1.055a2.633,2.633,0,0,0,4.4-1.821h1.492a2.633,2.633,0,0,0,4.4,1.821l1.056,1.055a2.633,2.633,0,0,0,1.821,4.4v1.492a2.633,2.633,0,0,0-1.821,4.4l-1.056,1.056a2.633,2.633,0,0,0-4.4,1.821H26.8a2.632,2.632,0,0,0-4.4-1.821L21.351,30.2a2.633,2.633,0,0,0-1.821-4.4V24.315ZM19.4,27.207a1.276,1.276,0,0,1-1.275-1.275V24.189A1.276,1.276,0,0,1,19.4,22.914a1.229,1.229,0,0,0,.868-2.1,1.276,1.276,0,0,1,0-1.8L21.5,17.781a1.276,1.276,0,0,1,1.8,0,1.229,1.229,0,0,0,2.1-.868,1.276,1.276,0,0,1,1.275-1.275h1.744A1.276,1.276,0,0,1,29.7,16.913a1.229,1.229,0,0,0,2.1.868,1.275,1.275,0,0,1,1.8,0l1.233,1.234a1.276,1.276,0,0,1,0,1.8,1.229,1.229,0,0,0,.868,2.1,1.276,1.276,0,0,1,1.275,1.275v1.744A1.276,1.276,0,0,1,35.7,27.207a1.229,1.229,0,0,0-.868,2.1,1.277,1.277,0,0,1,0,1.8L33.595,32.34a1.275,1.275,0,0,1-1.8,0,1.229,1.229,0,0,0-2.1.868,1.276,1.276,0,0,1-1.275,1.275H26.677A1.276,1.276,0,0,1,25.4,33.209a1.228,1.228,0,0,0-2.1-.868,1.276,1.276,0,0,1-1.8,0l-1.234-1.233a1.277,1.277,0,0,1,0-1.8,1.229,1.229,0,0,0-.868-2.1Z" transform="translate(0 0)" fill-rule="evenodd"/>
      </g>
    </g>
  </g>
</svg>
