<svg xmlns="http://www.w3.org/2000/svg" xmlns:xlink="http://www.w3.org/1999/xlink" width="108" height="108" viewBox="0 0 108 108">
  <defs>
    <filter id="Ellipse_11495" x="0" y="0" width="108" height="108" filterUnits="userSpaceOnUse">
      <feOffset dy="3" input="SourceAlpha"/>
      <feGaussianBlur stdDeviation="3" result="blur"/>
      <feFlood flood-opacity="0.161"/>
      <feComposite operator="in" in2="blur"/>
      <feComposite in="SourceGraphic"/>
    </filter>
  </defs>
  <g id="Group_1145800" data-name="Group 1145800" transform="translate(-211.81 -1329)">
    <g id="Group_1145578" data-name="Group 1145578" transform="translate(220.81 1335)">
      <g id="Group_1144291" data-name="Group 1144291" transform="translate(0)">
        <g id="Group_1143942" data-name="Group 1143942">
          <g id="Group_1143744" data-name="Group 1143744">
            <g transform="matrix(1, 0, 0, 1, -9, -6)" filter="url(#Ellipse_11495)">
              <g id="Ellipse_11495-2" data-name="Ellipse 11495" transform="translate(9 6)" fill="#edf5fb" stroke="#7b3289" stroke-width="4">
                <circle cx="45" cy="45" r="45" stroke="none"/>
                <circle cx="45" cy="45" r="43" fill="none"/>
              </g>
            </g>
          </g>
        </g>
      </g>
    </g>
    <g id="ingenieria_1_" data-name="ingenieria (1)" transform="translate(233.81 1348)">
      <g id="Group_1145798" data-name="Group 1145798">
        <g id="Group_1145778" data-name="Group 1145778">
          <path id="Path_981354" data-name="Path 981354" d="M22,56v6H9.12a5.125,5.125,0,0,1-3.63-1.51l-.04-.04A4.956,4.956,0,0,1,4,56.94V45.06a6.018,6.018,0,0,1,1.31-3.75A9.338,9.338,0,0,1,10,49.4V56H22Z" fill="#b4dd7f"/>
        </g>
        <g id="Group_1145779" data-name="Group 1145779">
          <path id="Path_981355" data-name="Path 981355" d="M20,48.39V56H10V49.4a9.338,9.338,0,0,0-4.69-8.09,5.969,5.969,0,0,1,2.46-1.82L9,39l4,4,2-2a7.975,7.975,0,0,1,5,7.39Z" fill="#b4dd7f"/>
        </g>
        <g id="Group_1145780" data-name="Group 1145780">
          <path id="Path_981356" data-name="Path 981356" d="M11,12h1a8,8,0,0,1,8,8H2a8,8,0,0,1,8-8Z" fill="#ffeaa7"/>
        </g>
        <g id="Group_1145781" data-name="Group 1145781">
          <path id="Path_981357" data-name="Path 981357" d="M22,21v2a1,1,0,0,1-1,1H2V20H21A1,1,0,0,1,22,21Z" fill="#fcd770"/>
        </g>
        <g id="Group_1145782" data-name="Group 1145782">
          <path id="Path_981358" data-name="Path 981358" d="M2,24h9a2.006,2.006,0,0,0-2,2v2a2.006,2.006,0,0,0-2,2v.17a2.006,2.006,0,0,0,.59,1.42l.82.82A2.006,2.006,0,0,1,9,33.83V37L6.19,34.99A10,10,0,0,1,2,26.85Z" fill="#b27946"/>
        </g>
        <g id="Group_1145783" data-name="Group 1145783">
          <path id="Path_981359" data-name="Path 981359" d="M62,54v8H28a2,2,0,0,0,2-2V58H42V54H62Z" fill="#969faa"/>
        </g>
        <g id="Group_1145784" data-name="Group 1145784">
          <path id="Path_981360" data-name="Path 981360" d="M62,44V54H48l2-10H62Z" fill="#aab2bd"/>
        </g>
        <g id="Group_1145785" data-name="Group 1145785">
          <path id="Path_981361" data-name="Path 981361" d="M60,28.46V44H52V28.46a5.965,5.965,0,0,0,8,0Z" fill="#ccd1d9"/>
        </g>
        <g id="Group_1145786" data-name="Group 1145786">
          <path id="Path_981362" data-name="Path 981362" d="M56.11,4.89A9.817,9.817,0,0,0,49.14,2a.66.66,0,0,0-.14.01,9.833,9.833,0,0,0-5.47,1.74L41.9,4.88,35.62,9.23a5.99,5.99,0,0,1,4.21,4.38l6.37-4.4.75-.52A3.871,3.871,0,0,1,49,8h.14A3.858,3.858,0,0,1,53,11.86v6.95a5.961,5.961,0,0,1,6,0V11.86a9.817,9.817,0,0,0-2.89-6.97Z" fill="#ccd1d9"/>
        </g>
        <g id="Group_1145787" data-name="Group 1145787">
          <path id="Path_981363" data-name="Path 981363" d="M39.83,13.61A5.752,5.752,0,0,1,40,15a5.981,5.981,0,0,1-4,5.65,5.889,5.889,0,0,1-4,0A6,6,0,0,1,34,9a5.766,5.766,0,0,1,1.62.23,5.99,5.99,0,0,1,4.21,4.38Z" fill="#ff826e"/>
        </g>
        <g id="Group_1145788" data-name="Group 1145788">
          <path id="Path_981364" data-name="Path 981364" d="M59,18.81a6,6,0,1,1-6,0,5.961,5.961,0,0,1,6,0Z" fill="#ff826e"/>
        </g>
        <g id="Group_1145789" data-name="Group 1145789">
          <circle id="Ellipse_11656" data-name="Ellipse 11656" cx="2" cy="2" r="2" transform="translate(32 13)" fill="#fc6e51"/>
        </g>
        <g id="Group_1145790" data-name="Group 1145790">
          <circle id="Ellipse_11657" data-name="Ellipse 11657" cx="2" cy="2" r="2" transform="translate(54 22)" fill="#fc6e51"/>
        </g>
        <g id="Group_1145791" data-name="Group 1145791">
          <path id="Path_981365" data-name="Path 981365" d="M46,41.24v.29A7.241,7.241,0,0,1,42,48V44a6,6,0,0,0-6-6H32a6,6,0,0,0-6,6v4a7.241,7.241,0,0,1-4-6.47v-.29A7.238,7.238,0,0,1,29.24,34h9.52A7.238,7.238,0,0,1,46,41.24Z" fill="#ccd1d9"/>
        </g>
        <g id="Group_1145792" data-name="Group 1145792">
          <path id="Path_981366" data-name="Path 981366" d="M26,44V54.42a1.812,1.812,0,0,1,.54.65L27,56h1a2.006,2.006,0,0,1,2,2H42V44Z" fill="#d3a06c"/>
        </g>
        <g id="Group_1145793" data-name="Group 1145793">
          <path id="Path_981367" data-name="Path 981367" d="M36,28.54a4.225,4.225,0,0,1,.83.63A4.025,4.025,0,0,1,38,32v2H30V32a3.994,3.994,0,0,1,6-3.46Z" fill="#aab2bd"/>
        </g>
        <g id="Group_1145794" data-name="Group 1145794">
          <path id="Path_981368" data-name="Path 981368" d="M32,44h4v4H32Z" fill="#b27946"/>
        </g>
        <g id="Group_1145795" data-name="Group 1145795">
          <path id="Path_981369" data-name="Path 981369" d="M36,20.65v7.89a3.974,3.974,0,0,0-4,0V20.65a5.889,5.889,0,0,0,4,0Z" fill="#ccd1d9"/>
        </g>
        <g id="Group_1145796" data-name="Group 1145796">
          <path id="Path_981370" data-name="Path 981370" d="M30,58v2a2,2,0,0,1-2,2H22V56l1.43-1.43A1.945,1.945,0,0,1,26,54.41v.01a1.812,1.812,0,0,1,.54.65L27,56h1a2.006,2.006,0,0,1,2,2Z" fill="#f0d0b4"/>
        </g>
        <g id="Group_1145797" data-name="Group 1145797">
          <path id="Path_981371" data-name="Path 981371" d="M15,37.97V41l-2,2L9,39V33.83a2.006,2.006,0,0,0-.59-1.42l-.82-.82A2.006,2.006,0,0,1,7,30.17V30a2.006,2.006,0,0,1,2-2V26a2.006,2.006,0,0,1,2-2h7a16.7,16.7,0,0,1,3,9l-3,1v.59a3.4,3.4,0,0,1-3,3.38Z" fill="#f0d0b4"/>
        </g>
      </g>
      <g id="Group_1145799" data-name="Group 1145799">
        <circle id="Ellipse_11658" data-name="Ellipse 11658" cx="1" cy="1" r="1" transform="translate(15 28)"/>
        <path id="Path_981372" data-name="Path 981372" d="M37,15a3,3,0,1,0-3,3A3,3,0,0,0,37,15Zm-4,0a1,1,0,1,1,1,1A1,1,0,0,1,33,15Z"/>
        <path id="Path_981373" data-name="Path 981373" d="M56,21a3,3,0,1,0,3,3A3,3,0,0,0,56,21Zm0,4a1,1,0,1,1,1-1A1,1,0,0,1,56,25Z"/>
        <path id="Path_981374" data-name="Path 981374" d="M61,28.889a6.98,6.98,0,0,0-1-10.625V11.858A10.857,10.857,0,0,0,42.962,2.931L35.427,8.147A6.995,6.995,0,0,0,31,21.315v6.711A4.98,4.98,0,0,0,29,32v1.012a8.239,8.239,0,0,0-8,8.224v.292a8.172,8.172,0,0,0,4,7.04v4.445c-.066,0-.131-.013-.2-.013a2.921,2.921,0,0,0-2.077.86L21.586,55H21V48.385a8.906,8.906,0,0,0-5-8.034v-1.6a4.356,4.356,0,0,0,3-4.028l3-1V33a17,17,0,0,0-2.2-8H21a2,2,0,0,0,2-2V21a2,2,0,0,0-2-2h-.059A9.011,9.011,0,0,0,12,11H10a9.01,9.01,0,0,0-8.941,8H1v7.854a11.02,11.02,0,0,0,4.606,8.951L8,37.514v.809l-.6.239a6.969,6.969,0,0,0-4.4,6.5V56.94A5.963,5.963,0,0,0,4.786,61.2,6.089,6.089,0,0,0,9.118,63L28,63H63V43H61ZM53,43V30.315a6.912,6.912,0,0,0,6,0V43ZM47.18,53H43V48.568a8.172,8.172,0,0,0,4-7.04v-.292a8.239,8.239,0,0,0-8-8.224V32a4.977,4.977,0,0,0-2-3.974V21.315a6.908,6.908,0,0,0,3.93-7.248l6.586-4.559A2.858,2.858,0,0,1,52,11.857v6.406a6.98,6.98,0,0,0-1,10.625V43H49.18ZM30.816,57A3,3,0,0,0,28,55h-.382l-.188-.376a2.941,2.941,0,0,0-.43-.633V45h4v4h6V45h4V57ZM33,45h2v2H33Zm-5.9-2A5.009,5.009,0,0,1,32,39h4a5.009,5.009,0,0,1,4.9,4ZM51.791,7.795A4.826,4.826,0,0,0,50,7.087V3.043a8.807,8.807,0,0,1,4.652,1.891ZM61,24a5,5,0,1,1-5-5A5.006,5.006,0,0,1,61,24Zm-5-7a6.956,6.956,0,0,0-2,.3V13h4v4.3A6.956,6.956,0,0,0,56,17Zm1.957-6H53.914a4.826,4.826,0,0,0-.708-1.791l2.861-2.861A8.822,8.822,0,0,1,57.957,11ZM48,3.086V7.149a4.81,4.81,0,0,0-1.623.715l-.059.041L43.444,5.03l.656-.455A8.825,8.825,0,0,1,48,3.086Zm-6.227,3.1,2.875,2.875-4.31,2.984A7.034,7.034,0,0,0,37.653,9.04ZM29,15a5,5,0,1,1,5,5A5.006,5.006,0,0,1,29,15Zm4,6.92a6.29,6.29,0,0,0,2,0V27.1a5,5,0,0,0-2,0ZM34,29a3,3,0,0,1,3,3v1H31V32a3,3,0,0,1,3-3ZM23,41.528v-.292A6.243,6.243,0,0,1,29.236,35h9.528A6.243,6.243,0,0,1,45,41.236v.292a6.2,6.2,0,0,1-2,4.58V43h-.08A7.006,7.006,0,0,0,36,37H32a7.006,7.006,0,0,0-6.92,6H25v3.108A6.2,6.2,0,0,1,23,41.528Zm2.641,13.991L26.382,57H28a1,1,0,0,1,1,1v2a1,1,0,0,1-1,1H23V56.414l1.14-1.14a.968.968,0,0,1,1.5.245ZM19.978,32.286,17,33.279v1.307A2.416,2.416,0,0,1,14.586,37H12v2h2v1.586l-1,1-3-3V33.828a2.978,2.978,0,0,0-.879-2.121l-.828-.828A1.009,1.009,0,0,1,8,30.172V30a1,1,0,0,1,1-1h1V26a1,1,0,0,1,1-1h6.473A15.883,15.883,0,0,1,19.978,32.286ZM10,13v4h2V13a7.006,7.006,0,0,1,6.92,6H16V15H14v4H8V15H6v4H3.08A7.006,7.006,0,0,1,10,13Zm11,8v2H3V21ZM6.769,34.178A9.019,9.019,0,0,1,3,26.854V25H8.184A2.966,2.966,0,0,0,8,26v1.171A3.006,3.006,0,0,0,6,30v.172a2.978,2.978,0,0,0,.879,2.121l.828.828A1.009,1.009,0,0,1,8,33.828v1.229ZM8.143,40.42l.617-.247L13,44.414l2.2-2.2A6.9,6.9,0,0,1,19,48.385V55H11V49.4a10.348,10.348,0,0,0-4.12-8.249,5.029,5.029,0,0,1,1.263-.731ZM9.117,61a4.139,4.139,0,0,1-2.955-1.253A3.947,3.947,0,0,1,5,56.939V45.061a4.99,4.99,0,0,1,.6-2.374A8.344,8.344,0,0,1,9,49.4V57H21v4ZM61,61H30.816A2.966,2.966,0,0,0,31,60V59H43V55H61ZM49.22,53l1.6-8H61v8Z"/>
      </g>
    </g>
  </g>
</svg>
