<svg xmlns="http://www.w3.org/2000/svg" xmlns:xlink="http://www.w3.org/1999/xlink" width="86" height="86" viewBox="0 0 86 86">
  <defs>
    <filter id="Ellipse_11513" x="0" y="0" width="86" height="86" filterUnits="userSpaceOnUse">
      <feOffset dy="3" input="SourceAlpha"/>
      <feGaussianBlur stdDeviation="3" result="blur"/>
      <feFlood flood-opacity="0.161"/>
      <feComposite operator="in" in2="blur"/>
      <feComposite in="SourceGraphic"/>
    </filter>
  </defs>
  <g id="Group_1144371" data-name="Group 1144371" transform="translate(9 6)">
    <g id="Group_1144333" data-name="Group 1144333">
      <g id="Group_1143699" data-name="Group 1143699">
        <g id="Group_1143465" data-name="Group 1143465">
          <g transform="matrix(1, 0, 0, 1, -9, -6)" filter="url(#Ellipse_11513)">
            <g id="Ellipse_11513-2" data-name="Ellipse 11513" transform="translate(9 6)" fill="#f7eafc" stroke="#361245" stroke-width="3">
              <circle cx="34" cy="34" r="34" stroke="none"/>
              <circle cx="34" cy="34" r="32.5" fill="none"/>
            </g>
          </g>
        </g>
      </g>
    </g>
    <g id="crujiendo" transform="translate(13.344 8.5)">
      <g id="Group_1144369" data-name="Group 1144369" transform="translate(0.76 0.76)">
        <g id="Group_1144361" data-name="Group 1144361" transform="translate(26.223 33.852)">
          <path id="Path_979366" data-name="Path 979366" d="M46.49,45.55a7.515,7.515,0,0,1,1.231,4.141,7.612,7.612,0,0,1-5.053,7.165,12.67,12.67,0,0,1-2.158-2.622,4.565,4.565,0,0,0,4.172-4.544,4.514,4.514,0,0,0-.524-2.12A19.783,19.783,0,0,0,46.49,45.55Z" transform="translate(-40.51 -45.55)" fill="#ccd1d9"/>
        </g>
        <g id="Group_1144362" data-name="Group 1144362" transform="translate(24.315 14.437)">
          <path id="Path_979367" data-name="Path 979367" d="M49.124,20.038a3.04,3.04,0,0,1,2.553,3v2.3a19.993,19.993,0,0,1-5.79,14.073,19.884,19.884,0,0,1-7.576,4.795A12.6,12.6,0,0,1,38,41.42V33.411A9.879,9.879,0,0,0,44.839,20h3.8a3.406,3.406,0,0,1,.486.038Z" transform="translate(-38 -20)" fill="#656d78"/>
        </g>
        <g id="Group_1144363" data-name="Group 1144363" transform="translate(5.319)">
          <path id="Path_979368" data-name="Path 979368" d="M28.2,2.163a4.559,4.559,0,0,1,7.089,1.3,4.38,4.38,0,0,1,1.269-.182,4.563,4.563,0,0,1,4.559,4.559,4.5,4.5,0,0,1-.426,1.915,4.561,4.561,0,0,1,2.432,5.722,3.405,3.405,0,0,0-.486-.038h-3.8a9.878,9.878,0,0,0-18.237,0H13a4.552,4.552,0,0,1,3.146-4.331,4.684,4.684,0,0,1-.106-.988A4.563,4.563,0,0,1,20.6,5.559a4.558,4.558,0,0,1,7.6-3.4Z" transform="translate(-13 -1)" fill="#ecc19c"/>
        </g>
        <g id="Group_1144364" data-name="Group 1144364" transform="translate(0 14.437)">
          <path id="Path_979369" data-name="Path 979369" d="M16.638,51.154H34.875c-.167-.144-.334-.289-.494-.433a12.684,12.684,0,0,1-4.065-9.3V33.411A9.881,9.881,0,0,1,18.606,26.74a.773.773,0,0,1-.441.19l-4.969.623a1.394,1.394,0,0,1-.357.046,1.52,1.52,0,0,1,0-3.039,1.4,1.4,0,0,1,.357.046l4.969.623a.445.445,0,0,1,.1.015,10.009,10.009,0,0,1-.106-1.444,9.884,9.884,0,0,1,.76-3.8h-7.6A3.039,3.039,0,0,0,8.28,23.039v3.8a4.553,4.553,0,0,1-.912,2.735l-1.14,1.52A1.173,1.173,0,0,0,6,31.778a1.138,1.138,0,0,0,1.14,1.14h1.9v4.248A2.6,2.6,0,0,0,9.8,39v1.345a4.735,4.735,0,0,0,4.734,4.734,4.481,4.481,0,0,0,1.147-.144l5.327-1.33A12.646,12.646,0,0,1,16.638,51.154Z" transform="translate(-6 -20)" fill="#e6e9ed"/>
        </g>
        <g id="Group_1144365" data-name="Group 1144365" transform="translate(7.196 19.042)">
          <path id="Path_979370" data-name="Path 979370" d="M20.538,26.7a9.943,9.943,0,0,0,.342,1.5.773.773,0,0,1-.441.19l-4.969.623a1.516,1.516,0,0,0,0-2.948l4.969.623a.445.445,0,0,1,.1.015Z" transform="translate(-15.47 -26.06)" fill="#969faa"/>
        </g>
        <g id="Group_1144366" data-name="Group 1144366" transform="translate(5.319 18.996)">
          <path id="Path_979371" data-name="Path 979371" d="M14.877,26.046a1.516,1.516,0,0,1,0,2.948l-.357.046a1.52,1.52,0,1,1,0-3.039Z" transform="translate(-13 -26)" fill="#969faa"/>
        </g>
        <g id="Group_1144367" data-name="Group 1144367" transform="translate(12.158 8.358)">
          <path id="Path_979372" data-name="Path 979372" d="M41,18.079a9.878,9.878,0,1,1-18.89,5.243A10.009,10.009,0,0,1,22,21.878a9.878,9.878,0,0,1,19-3.8Z" transform="translate(-22 -12)" fill="#ffeaa7"/>
        </g>
        <g id="Group_1144368" data-name="Group 1144368" transform="translate(15.197 11.398)">
          <path id="Path_979373" data-name="Path 979373" d="M39.677,21.319v3.039l-1.056.35a5.766,5.766,0,0,1-.372.889l.5,1L36.6,28.75l-1-.5a5.767,5.767,0,0,1-.889.372l-.35,1.056H31.319l-.35-1.056a5.767,5.767,0,0,1-.889-.372l-1,.5-2.15-2.15.5-1a5.766,5.766,0,0,1-.372-.889L26,24.358V21.319l1.056-.35a5.766,5.766,0,0,1,.372-.889l-.5-1,2.15-2.15,1,.5a5.766,5.766,0,0,1,.889-.372L31.319,16h3.039l.35,1.056a5.766,5.766,0,0,1,.889.372l1-.5,2.15,2.15-.5,1a5.767,5.767,0,0,1,.372.889Zm-3.8,1.52a3.039,3.039,0,1,0-3.039,3.039A3.039,3.039,0,0,0,35.878,22.839Z" transform="translate(-26 -16)" fill="#ff826e"/>
        </g>
      </g>
      <g id="Group_1144370" data-name="Group 1144370">
        <path id="Path_979374" data-name="Path 979374" d="M28.688,29.433l1.157-.579c.093.041.185.08.277.116l.409,1.226h4.134l.409-1.226c.093-.036.185-.075.277-.116l1.157.579,2.924-2.924-.579-1.157c.041-.092.079-.185.116-.277l1.228-.409V20.532l-1.226-.409c-.036-.093-.075-.185-.115-.278l.579-1.157L36.51,15.764l-1.157.579c-.092-.041-.185-.08-.277-.116L34.666,15H30.532l-.409,1.226c-.093.036-.185.075-.277.116l-1.157-.579-2.924,2.924.579,1.157c-.041.093-.079.185-.115.278L25,20.531v4.134l1.226.409c.036.093.075.185.115.277l-.579,1.157ZM26.52,21.627l.9-.3.119-.365a5.242,5.242,0,0,1,.325-.777l.176-.343-.428-.853,1.375-1.375.853.426.342-.175a5.332,5.332,0,0,1,.777-.324l.365-.119.3-.9h1.944l.3.9.365.119a5.263,5.263,0,0,1,.777.324l.342.175.853-.427,1.375,1.375-.428.853.176.343a5.324,5.324,0,0,1,.325.777l.119.365.9.3v1.944l-.9.3-.119.365a5.166,5.166,0,0,1-.325.777l-.176.343.428.854L36.21,27.584l-.853-.426-.342.174a5.4,5.4,0,0,1-.777.325l-.365.119-.3.9H31.626l-.3-.9-.365-.119a5.162,5.162,0,0,1-.777-.325l-.342-.174-.853.426-1.375-1.375.428-.854-.176-.343a5.281,5.281,0,0,1-.325-.777l-.119-.365-.9-.3Z" transform="translate(-9.803 -3.602)"/>
        <path id="Path_979375" data-name="Path 979375" d="M33.8,27.6A3.8,3.8,0,1,0,30,23.8,3.8,3.8,0,0,0,33.8,27.6Zm0-6.079a2.28,2.28,0,1,1-2.28,2.28A2.282,2.282,0,0,1,33.8,21.52Z" transform="translate(-11.004 -4.803)"/>
        <path id="Path_979376" data-name="Path 979376" d="M35.19,45.591A8.352,8.352,0,0,0,37.707,34.7a20.764,20.764,0,0,0,5.6-14.168v-2.3a3.8,3.8,0,0,0-2.39-3.521A5.254,5.254,0,0,0,38.516,9.16,5.226,5.226,0,0,0,38.753,7.6,5.325,5.325,0,0,0,33.434,2.28a5.4,5.4,0,0,0-.9.084,5.306,5.306,0,0,0-7.46-1.4,5.307,5.307,0,0,0-8.305,3.652,5.323,5.323,0,0,0-4.612,5.267c0,.166.008.334.024.5a5.3,5.3,0,0,0-3.014,4.128,3.8,3.8,0,0,0-3.089,3.728v3.8a3.821,3.821,0,0,1-.76,2.28l-1.141,1.52A1.9,1.9,0,0,0,5.7,28.875h1.14v3.485a3.332,3.332,0,0,0,.76,2.127v1.05a5.5,5.5,0,0,0,6.828,5.332l4.12-1.03A11.912,11.912,0,0,1,14.9,45.591H5v1.52H45.111v-1.52H35.19ZM23.556,38.586v7.005h-1.52V38.966Zm1.52-.38,1.52-.38v7.765h-1.52Zm3.039-.76.045-.011a13.358,13.358,0,0,0,3.414,8.156H28.115ZM11.38,22.032a.756.756,0,0,1,0-1.512l.094.011a.747.747,0,0,1,0,1.489ZM13.626,20.8l2.545.318c.021.1.052.2.077.3l-2.622.327a2.208,2.208,0,0,0,0-.95ZM17.477,19a9.118,9.118,0,1,1,9.118,9.118A9.128,9.128,0,0,1,17.477,19Zm19.156,3.489L41.5,23.8a19.254,19.254,0,0,1-3.477,8.144l-4.185-5.181A10.639,10.639,0,0,0,36.633,22.486Zm-3.968,5.235,4.39,5.434a19.176,19.176,0,0,1-7.278,5.2,11.982,11.982,0,0,1-.142-1.737V29.186A10.6,10.6,0,0,0,32.665,27.721Zm1.529,11.032a3.811,3.811,0,0,1-3.017,3.7A11.81,11.81,0,0,1,30.1,39.86,20.631,20.631,0,0,0,34.07,37.8a3.793,3.793,0,0,1,.123.957ZM33.106,45.01A11.876,11.876,0,0,1,32.048,43.8a5.313,5.313,0,0,0,3.317-6.944q.626-.492,1.209-1.028a6.808,6.808,0,0,1-3.467,9.181Zm8.686-26.774v2.3c0,.586-.034,1.166-.087,1.742L37.035,21.02a10.485,10.485,0,0,0-.25-5.063h2.728a2.282,2.282,0,0,1,2.28,2.28Zm-28.53-6.651.656-.214-.149-.674a3.8,3.8,0,0,1,6.89-2.9l1.272-.832a5.3,5.3,0,0,0-3.625-2.339,3.8,3.8,0,0,1,7.529.688h1.52a5.287,5.287,0,0,0-1.142-3.282,3.79,3.79,0,0,1,5.7,3.282h1.52a5.293,5.293,0,0,0-.22-1.5c.074,0,.147-.015.22-.015a3.792,3.792,0,0,1,3.444,5.4l-.324.7.7.314a3.753,3.753,0,0,1,2.172,4.229H36.192a10.615,10.615,0,0,0-19.194,0H10.723a3.782,3.782,0,0,1,2.539-2.852Zm.8,27.808a3.977,3.977,0,0,1-4.941-3.858v-.583h.76a8.4,8.4,0,0,0,6.687-3.343L15.349,30.7a6.873,6.873,0,0,1-5.471,2.735H8.713a1.817,1.817,0,0,1-.354-1.074V28.875h.288a1.915,1.915,0,0,0,1.343-.556l1.186-1.186L10.1,26.058,8.915,27.244a.383.383,0,0,1-.269.111H5.7a.38.38,0,0,1-.3-.608l1.14-1.52A5.349,5.349,0,0,0,7.6,22.036v-3.8a2.282,2.282,0,0,1,2.28-2.28h6.527A10.575,10.575,0,0,0,15.957,19c0,.191.019.378.029.568l-4.1-.513a2.3,2.3,0,0,0-.242-.03L11.492,19v0C11.46,19,11.43,19,11.4,19a2.28,2.28,0,0,0,0,4.559c.032,0,.062-.008.093-.009v0l.15-.019a2.3,2.3,0,0,0,.242-.03l4.824-.6a10.512,10.512,0,0,0,11.407,6.615V35.88Zm6.148.029.309-.077v6.245H17.061A13.44,13.44,0,0,0,20.207,39.423Z" transform="translate(-3.799 0)"/>
        <path id="Path_979377" data-name="Path 979377" d="M29.76,5.28h1.52A2.282,2.282,0,0,0,29,3V4.52A.761.761,0,0,1,29.76,5.28Z" transform="translate(-10.763 -0.72)"/>
        <path id="Path_979378" data-name="Path 979378" d="M22.039,12.52V11C20.335,11,19,12,19,13.28h1.52C20.52,12.97,21.112,12.52,22.039,12.52Z" transform="translate(-8.362 -2.642)"/>
        <path id="Path_979379" data-name="Path 979379" d="M44.76,12.039h1.52c0-1.7-1-3.039-2.28-3.039v1.52C44.31,10.52,44.76,11.112,44.76,12.039Z" transform="translate(-14.366 -2.161)"/>
        <path id="Path_979380" data-name="Path 979380" d="M39.28,10.28V8.76A.761.761,0,0,1,38.52,8H37A2.282,2.282,0,0,0,39.28,10.28Z" transform="translate(-12.685 -1.921)"/>
      </g>
    </g>
  </g>
</svg>
