<svg xmlns="http://www.w3.org/2000/svg" xmlns:xlink="http://www.w3.org/1999/xlink" width="91" height="91" viewBox="0 0 91 91">
  <defs>
    <filter id="Ellipse_11513" x="0" y="0" width="91" height="91" filterUnits="userSpaceOnUse">
      <feOffset dy="3" input="SourceAlpha"/>
      <feGaussianBlur stdDeviation="3" result="blur"/>
      <feFlood flood-opacity="0.161"/>
      <feComposite operator="in" in2="blur"/>
      <feComposite in="SourceGraphic"/>
    </filter>
  </defs>
  <g id="Group_1144315" data-name="Group 1144315" transform="translate(-282 -725)">
    <g id="Group_1143810" data-name="Group 1143810" transform="translate(0 -199)">
      <g id="Group_1143699" data-name="Group 1143699" transform="translate(290.867 930)">
        <g id="Group_1143465" data-name="Group 1143465">
          <g transform="matrix(1, 0, 0, 1, -8.87, -6)" filter="url(#Ellipse_11513)">
            <g id="Ellipse_11513-2" data-name="Ellipse 11513" transform="translate(9 6)" fill="#f7eafc" stroke="#361245" stroke-width="3">
              <circle cx="36.5" cy="36.5" r="36.5" stroke="none"/>
              <circle cx="36.5" cy="36.5" r="35" fill="none"/>
            </g>
          </g>
        </g>
      </g>
    </g>
    <g id="learning_4025724" transform="translate(296.5 736.502)">
      <g id="Group_1144313" data-name="Group 1144313">
        <g id="Group_1144294" data-name="Group 1144294">
          <circle id="Ellipse_11601" data-name="Ellipse 11601" cx="4" cy="4" r="4" transform="translate(53 26.997)" fill="#ff826e"/>
        </g>
        <g id="Group_1144295" data-name="Group 1144295">
          <path id="Path_978903" data-name="Path 978903" d="M43,59,33,61V49l6.06-1.21L43,47v4a2.006,2.006,0,0,0-2,2v2a2.006,2.006,0,0,0,2,2Z" fill="#e6e9ed"/>
        </g>
        <g id="Group_1144296" data-name="Group 1144296">
          <path id="Path_978904" data-name="Path 978904" d="M29,49V61L19,59V57a2.006,2.006,0,0,0,2-2V53a2.006,2.006,0,0,0-2-2V47l3.94.79Z" fill="#e6e9ed"/>
        </g>
        <g id="Group_1144297" data-name="Group 1144297">
          <path id="Path_978905" data-name="Path 978905" d="M33,49V61H29V49h4Z" fill="#aab2bd"/>
        </g>
        <g id="Group_1144298" data-name="Group 1144298">
          <path id="Path_978906" data-name="Path 978906" d="M39.06,47.787,33,49H31a3,3,0,0,0,3-3,3.075,3.075,0,0,0-.17-.96A7.992,7.992,0,0,1,39.06,47.787Z" fill="#4fc1e9"/>
        </g>
        <g id="Group_1144299" data-name="Group 1144299">
          <path id="Path_978907" data-name="Path 978907" d="M29,49l-6.06-1.21a7.992,7.992,0,0,1,5.23-2.75A3.074,3.074,0,0,0,28,46a3,3,0,0,0,3,3Z" fill="#4fc1e9"/>
        </g>
        <g id="Group_1144300" data-name="Group 1144300">
          <path id="Path_978908" data-name="Path 978908" d="M44,51a1,1,0,0,1,1,1v4a1,1,0,0,1-1,1H43a2.006,2.006,0,0,1-2-2V53a2.006,2.006,0,0,1,2-2Z" fill="#f0d0b4"/>
        </g>
        <g id="Group_1144301" data-name="Group 1144301">
          <path id="Path_978909" data-name="Path 978909" d="M21,53v2a2.006,2.006,0,0,1-2,2H18a1,1,0,0,1-1-1V52a1,1,0,0,1,1-1h1A2.006,2.006,0,0,1,21,53Z" fill="#f0d0b4"/>
        </g>
        <g id="Group_1144302" data-name="Group 1144302">
          <path id="Path_978910" data-name="Path 978910" d="M33,45a7.564,7.564,0,0,1,.83.04A3.075,3.075,0,0,1,34,46a3,3,0,0,1-6,0,3.074,3.074,0,0,1,.17-.96A7.565,7.565,0,0,1,29,45Z" fill="#f0d0b4"/>
        </g>
        <g id="Group_1144303" data-name="Group 1144303">
          <path id="Path_978911" data-name="Path 978911" d="M24,43.9V41a4,4,0,0,0-4-4H17.69a10.311,10.311,0,0,1-.52-2A12,12,0,0,1,17,33V25a2.006,2.006,0,0,1,2-2H43a2.006,2.006,0,0,1,2,2v8a12,12,0,0,1-.17,2,10.311,10.311,0,0,1-.52,2H42a4,4,0,0,0-4,4v2.9l.01.01A11.989,11.989,0,0,1,33,45H29a11.989,11.989,0,0,1-5.01-1.09Z" fill="#f0d0b4"/>
        </g>
        <g id="Group_1144304" data-name="Group 1144304">
          <path id="Path_978912" data-name="Path 978912" d="M49,29v4a2.006,2.006,0,0,1-2,2H44.83A12,12,0,0,0,45,33V27h2a2.006,2.006,0,0,1,2,2Z" fill="#f0d0b4"/>
        </g>
        <g id="Group_1144305" data-name="Group 1144305">
          <path id="Path_978913" data-name="Path 978913" d="M17.17,35H15a2.006,2.006,0,0,1-2-2V29a2.006,2.006,0,0,1,2-2h2v6A12,12,0,0,0,17.17,35Z" fill="#f0d0b4"/>
        </g>
        <g id="Group_1144306" data-name="Group 1144306">
          <path id="Path_978914" data-name="Path 978914" d="M41,29v1a1,1,0,0,1-1,1H36a1,1,0,0,1-1-1V29a2.006,2.006,0,0,1,2-2h2A2.006,2.006,0,0,1,41,29Z" fill="#969faa"/>
        </g>
        <g id="Group_1144307" data-name="Group 1144307">
          <path id="Path_978915" data-name="Path 978915" d="M27,29v1a1,1,0,0,1-1,1H22a1,1,0,0,1-1-1V29a2.006,2.006,0,0,1,2-2h2A2.006,2.006,0,0,1,27,29Z" fill="#969faa"/>
        </g>
        <g id="Group_1144308" data-name="Group 1144308">
          <path id="Path_978916" data-name="Path 978916" d="M38,41a4,4,0,0,1,4-4h2.31a12.012,12.012,0,0,1-6.3,6.91L38,43.9Z" fill="#ff826e"/>
        </g>
        <g id="Group_1144309" data-name="Group 1144309">
          <path id="Path_978917" data-name="Path 978917" d="M24,41v2.9l-.01.01A12.012,12.012,0,0,1,17.69,37H20a4,4,0,0,1,4,4Z" fill="#ff826e"/>
        </g>
        <g id="Group_1144310" data-name="Group 1144310">
          <path id="Path_978918" data-name="Path 978918" d="M29.73,1.067a11,11,0,0,0-5.69,19.44A5.326,5.326,0,0,1,25.77,23H36.23a5.163,5.163,0,0,1,1.69-2.46,11,11,0,0,0-8.19-19.47Z" fill="#ffeaa7"/>
        </g>
        <g id="Group_1144311" data-name="Group 1144311">
          <path id="Path_978919" data-name="Path 978919" d="M36.41,10.587A1.955,1.955,0,0,1,37,12a2.006,2.006,0,0,1-2,2H32.74l.14-2.13A2,2,0,0,1,34.87,10H35a1.955,1.955,0,0,1,1.41.59Z" fill="#fcd770"/>
        </g>
        <g id="Group_1144312" data-name="Group 1144312">
          <path id="Path_978920" data-name="Path 978920" d="M29.12,11.867,29.26,14H27a2.015,2.015,0,0,1-2-2,2.006,2.006,0,0,1,2-2h.13a2,2,0,0,1,1.99,1.87Z" fill="#fcd770"/>
        </g>
      </g>
      <g id="Group_1144314" data-name="Group 1144314">
        <path id="Path_978921" data-name="Path 978921" d="M31,40a2,2,0,0,1-2-2H27a4,4,0,0,0,8,0H33A2,2,0,0,1,31,40Z"/>
        <path id="Path_978922" data-name="Path 978922" d="M28,30V29a3,3,0,0,0-3-3H23a3,3,0,0,0-3,3v1a2,2,0,0,0,2,2h4A2,2,0,0,0,28,30Zm-6,0V29a1,1,0,0,1,1-1h2a1,1,0,0,1,1,1v1Z"/>
        <path id="Path_978923" data-name="Path 978923" d="M36,32h4a2,2,0,0,0,2-2V29a3,3,0,0,0-3-3H37a3,3,0,0,0-3,3v1A2,2,0,0,0,36,32Zm0-3a1,1,0,0,1,1-1h2a1,1,0,0,1,1,1v1H36Z"/>
        <path id="Path_978924" data-name="Path 978924" d="M45.637,36H47a3,3,0,0,0,3-3V29a3,3,0,0,0-3-3H46V25a3,3,0,0,0-3-3H37.886a4.268,4.268,0,0,1,.659-.679A11.99,11.99,0,0,0,39,3.05,12,12,0,0,0,19.148,10.1a11.95,11.95,0,0,0,4.258,11.183,4.635,4.635,0,0,1,.7.72H19a3,3,0,0,0-3,3v1H15a3,3,0,0,0-3,3v1H8V24H6v6H4V26H2v4H0v2H12v1a3,3,0,0,0,3,3h1.363a13.032,13.032,0,0,0,8.176,9.195A9.011,9.011,0,0,0,22.6,46.7L18,45.777V50a2,2,0,0,0-2,2v4a2,2,0,0,0,2,2v1.819l10.8,2.161L33.1,62,44,59.817V58a2,2,0,0,0,2-2V52a2,2,0,0,0-2-2v-4.22l-4.6.92a9.011,9.011,0,0,0-1.941-1.505A13.035,13.035,0,0,0,45.637,36ZM47,28a1,1,0,0,1,1,1v4a1,1,0,0,1-1,1H45.949c.025-.331.051-.662.051-1V28ZM24.671,19.729a9.97,9.97,0,0,1-3.548-9.33,10.073,10.073,0,0,1,8.72-8.338,10,10,0,0,1,7.444,17.7A6.187,6.187,0,0,0,35.553,22H33.2l.467-7H35a3,3,0,0,0,0-6h-.129a3.008,3.008,0,0,0-2.993,2.8L31.8,13H30.2l-.08-1.2A3.008,3.008,0,0,0,27.129,9H27a3,3,0,0,0,0,6h1.331l.467,7h-2.36a6.423,6.423,0,0,0-1.767-2.268ZM30.335,15h1.329L31.2,22h-.4ZM33.8,13l.071-1.066a1,1,0,0,1,1-.934H35a1,1,0,0,1,0,2Zm-5.6,0H27a1,1,0,0,1,0-2h.129a1,1,0,0,1,1,.934ZM15,34a1,1,0,0,1-1-1V29a1,1,0,0,1,1-1h1v5c0,.338.025.669.051,1Zm4.214,4H20a3,3,0,0,1,3,3v1.208A11.08,11.08,0,0,1,19.214,38ZM33,46a2,2,0,0,1-4,0Zm-3,4h2V60H30Zm-2.97-3.706a3.961,3.961,0,0,0,.339,1.36L25.106,47.2A6.977,6.977,0,0,1,27.03,46.291ZM18,52h1a1,1,0,0,1,1,1v2a1,1,0,0,1-1,1H18Zm2,5.816A3,3,0,0,0,22,55V53a3,3,0,0,0-2-2.816V48.216l8,1.6v9.961l-8-1.6ZM44,56H43a1,1,0,0,1-1-1V53a1,1,0,0,1,1-1h1Zm-2-5.816A3,3,0,0,0,40,53v2a3,3,0,0,0,2,2.816v.365l-8,1.6V49.817l8-1.6Zm-7.368-2.53a3.967,3.967,0,0,0,.339-1.36A6.965,6.965,0,0,1,36.9,47.2ZM29,44a10.927,10.927,0,0,1-4-.764V41a5.006,5.006,0,0,0-5-5H18.426A10.966,10.966,0,0,1,18,33V25a1,1,0,0,1,1-1H30V36h2V24H43a1,1,0,0,1,1,1v8a10.966,10.966,0,0,1-.426,3H42a5.006,5.006,0,0,0-5,5v2.236A10.927,10.927,0,0,1,33,44Zm10-1.792V41a3,3,0,0,1,3-3h.786A11.08,11.08,0,0,1,39,42.205Z"/>
        <path id="Path_978925" data-name="Path 978925" d="M57,26a5,5,0,1,0,5,5,5.006,5.006,0,0,0-5-5Zm0,8a3,3,0,1,1,3-3A3,3,0,0,1,57,34Z"/>
        <circle id="Ellipse_11602" data-name="Ellipse 11602" cx="1" cy="1" r="1" transform="translate(56 29.997)"/>
        <path id="Path_978926" data-name="Path 978926" d="M47.375,52.466l1.214,1.59a29.128,29.128,0,0,0,10.5-15.81l-1.937-.5a27.12,27.12,0,0,1-9.774,14.718Z"/>
        <path id="Path_978927" data-name="Path 978927" d="M4.153,33.888,2.164,34.1A29.114,29.114,0,0,0,13.371,54.026l1.217-1.588A27.1,27.1,0,0,1,4.153,33.888Z"/>
        <path id="Path_978928" data-name="Path 978928" d="M18.454,7.083l-.931-1.771A29.061,29.061,0,0,0,2.914,23.748l1.937.5a27.053,27.053,0,0,1,13.6-17.164Z"/>
        <path id="Path_978929" data-name="Path 978929" d="M57.149,24.246l1.937-.5a29.062,29.062,0,0,0-14.6-18.433l-.931,1.771A27.057,27.057,0,0,1,57.149,24.246Z"/>
      </g>
    </g>
  </g>
</svg>
