<svg xmlns="http://www.w3.org/2000/svg" xmlns:xlink="http://www.w3.org/1999/xlink" width="108" height="108" viewBox="0 0 108 108">
  <defs>
    <filter id="Ellipse_11495" x="0" y="0" width="108" height="108" filterUnits="userSpaceOnUse">
      <feOffset dy="3" input="SourceAlpha"/>
      <feGaussianBlur stdDeviation="3" result="blur"/>
      <feFlood flood-opacity="0.161"/>
      <feComposite operator="in" in2="blur"/>
      <feComposite in="SourceGraphic"/>
    </filter>
  </defs>
  <g id="Group_1144406" data-name="Group 1144406" transform="translate(-201.092 -344)">
    <g id="Group_1144291" data-name="Group 1144291" transform="translate(4.092 -139)">
      <g id="Group_1143942" data-name="Group 1143942" transform="translate(0.19 -1852)">
        <g id="Group_1143744" data-name="Group 1143744" transform="translate(-0.19 1868)">
          <g transform="matrix(1, 0, 0, 1, 197, 467)" filter="url(#Ellipse_11495)">
            <g id="Ellipse_11495-2" data-name="Ellipse 11495" transform="translate(9 6)" fill="#edf5fb" stroke="#7b3289" stroke-width="4">
              <circle cx="45" cy="45" r="45" stroke="none"/>
              <circle cx="45" cy="45" r="43" fill="none"/>
            </g>
          </g>
        </g>
      </g>
    </g>
    <g id="Global" transform="translate(224.183 360.072)">
      <path id="Path_979524" data-name="Path 979524" d="M24.947,15,8,25.786V56.87H41.894V25.786Z" transform="translate(-0.019 -0.04)" fill="#fee9ab"/>
      <path id="Path_979525" data-name="Path 979525" d="M41.941,25.786V56.87H37.953V25.786L23,16.266,24.994,15Z" transform="translate(-0.065 -0.04)" fill="#ffde55"/>
      <path id="Path_979526" data-name="Path 979526" d="M60.968,44.963H52a31.736,31.736,0,0,0-1.226-9.042A15.967,15.967,0,0,0,55.575,33a15.907,15.907,0,0,1,5.393,11.963Z" transform="translate(-0.151 -0.096)" fill="#2488ff"/>
      <path id="Path_979527" data-name="Path 979527" d="M52,45h8.972a15.907,15.907,0,0,1-5.393,11.963,15.967,15.967,0,0,0-4.805-2.921A31.737,31.737,0,0,0,52,45Z" transform="translate(-0.151 -0.133)" fill="#57a4ff"/>
      <path id="Path_979528" data-name="Path 979528" d="M51.957,44.972H38a31.736,31.736,0,0,1,1.226-9.042,16.042,16.042,0,0,0,11.5,0,31.736,31.736,0,0,1,1.226,9.042Z" transform="translate(-0.112 -0.105)" fill="#57a4ff"/>
      <path id="Path_979529" data-name="Path 979529" d="M38,45H51.957a31.736,31.736,0,0,1-1.226,9.042,16.042,16.042,0,0,0-11.5,0A31.736,31.736,0,0,1,38,45Z" transform="translate(-0.112 -0.133)" fill="#2488ff"/>
      <path id="Path_979530" data-name="Path 979530" d="M55.558,32.988a15.967,15.967,0,0,1-4.805,2.921c-1.216-4.037-3.23-6.729-5.523-6.9a14.38,14.38,0,0,1,1.745.11,15.875,15.875,0,0,1,8.583,3.868Z" transform="translate(-0.134 -0.084)" fill="#57a4ff"/>
      <path id="Path_979531" data-name="Path 979531" d="M50.752,54.07a15.967,15.967,0,0,1,4.805,2.921A15.9,15.9,0,0,1,45,60.978C47.393,60.978,49.5,58.247,50.752,54.07Z" transform="translate(-0.133 -0.162)" fill="#2488ff"/>
      <path id="Path_979532" data-name="Path 979532" d="M50.734,35.908a16.042,16.042,0,0,1-11.5,0C40.486,31.731,42.59,29,44.982,29a1.764,1.764,0,0,1,.229.01C47.5,29.179,49.518,31.871,50.734,35.908Z" transform="translate(-0.116 -0.084)" fill="#2488ff"/>
      <path id="Path_979533" data-name="Path 979533" d="M44.982,53a15.977,15.977,0,0,1,5.752,1.067c-1.256,4.177-3.36,6.908-5.752,6.908s-4.5-2.731-5.752-6.908A15.977,15.977,0,0,1,44.982,53Z" transform="translate(-0.116 -0.158)" fill="#57a4ff"/>
      <path id="Path_979534" data-name="Path 979534" d="M46.863,24.957v3.988l-4.984-3.17L24.932,14.988,7.984,25.774,3,28.944V24.957L24.932,11Z" transform="translate(-0.003 -0.028)" fill="#ff7956"/>
      <path id="Path_979535" data-name="Path 979535" d="M46.991,24.994v3.988L44,27.078V23.09Z" transform="translate(-0.13 -0.065)" fill="#ff5023"/>
      <path id="Path_979536" data-name="Path 979536" d="M46.984,28.99l-.02.12A14.379,14.379,0,0,0,45.22,29a1.764,1.764,0,0,0-.229-.01A16.441,16.441,0,0,0,42,29.269V25.82Z" transform="translate(-0.124 -0.074)" fill="none"/>
      <circle id="Ellipse_11643" data-name="Ellipse 11643" cx="1.994" cy="1.994" r="1.994" transform="translate(42.873 14.96)" fill="#ff3051"/>
      <path id="Path_979537" data-name="Path 979537" d="M46.991,16.994A1.994,1.994,0,0,1,44,18.718a1.994,1.994,0,0,0,0-3.449,1.994,1.994,0,0,1,2.991,1.725Z" transform="translate(-0.13 -0.04)" fill="#cd2a00"/>
      <path id="Path_979538" data-name="Path 979538" d="M44.873,60.988H5.994a1.994,1.994,0,1,1,0-3.988H34.316A15.9,15.9,0,0,0,44.873,60.988Z" transform="translate(-0.006 -0.171)" fill="#ff7956"/>
      <path id="Path_979539" data-name="Path 979539" d="M44.955,60.988H40.967A15.9,15.9,0,0,1,30.41,57H34.4A15.9,15.9,0,0,0,44.955,60.988Z" transform="translate(-0.088 -0.171)" fill="#ff5023"/>
      <path id="Path_979540" data-name="Path 979540" d="M41.976,29.279A16.441,16.441,0,0,1,44.967,29c-2.393,0-4.5,2.731-5.752,6.908a15.967,15.967,0,0,1-4.805-2.921A15.9,15.9,0,0,1,41.976,29.279Z" transform="translate(-0.101 -0.084)" fill="#57a4ff"/>
      <path id="Path_979541" data-name="Path 979541" d="M39.215,54.07c1.256,4.177,3.36,6.908,5.752,6.908A15.9,15.9,0,0,1,34.41,56.991,15.967,15.967,0,0,1,39.215,54.07Z" transform="translate(-0.101 -0.162)" fill="#2488ff"/>
      <path id="Path_979542" data-name="Path 979542" d="M39.2,35.921a31.736,31.736,0,0,0-1.226,9.042H29a15.587,15.587,0,0,1,1.146-5.922A15.814,15.814,0,0,1,34.393,33,15.967,15.967,0,0,0,39.2,35.921Z" transform="translate(-0.084 -0.096)" fill="#2488ff"/>
      <path id="Path_979543" data-name="Path 979543" d="M37.972,45A31.736,31.736,0,0,0,39.2,54.042a15.967,15.967,0,0,0-4.805,2.921A15.907,15.907,0,0,1,29,45Z" transform="translate(-0.084 -0.133)" fill="#57a4ff"/>
      <path id="Path_979544" data-name="Path 979544" d="M34.362,56.944H19V39H29.966l.15.06a15.587,15.587,0,0,0-1.146,5.922,15.908,15.908,0,0,0,5.393,11.963Z" transform="translate(-0.053 -0.115)" fill="#a78966"/>
      <path id="Path_979545" data-name="Path 979545" d="M47.857,28.224V24.953a1,1,0,0,0-.462-.841L25.464,10.156a1,1,0,0,0-1.071,0L2.462,24.112A1,1,0,0,0,2,24.953v3.988a1,1,0,0,0,1.532.841l3.452-2.2V55.857h-1a2.991,2.991,0,1,0,0,5.981H44.867a16.939,16.939,0,0,0,2.991-33.614Zm11.912,15.67h-6.95a32.564,32.564,0,0,0-1.02-7.477,16.9,16.9,0,0,0,3.564-2.162A14.9,14.9,0,0,1,59.769,43.894ZM43.542,28.011c-.223.018-.448.035-.669.061v-.486Zm5.811,7.211a14.7,14.7,0,0,1-8.972,0c1.179-3.312,2.884-5.284,4.486-5.284S48.173,31.91,49.353,35.221Zm-.17-4.64a14.891,14.891,0,0,1,4.638,2.363A14.934,14.934,0,0,1,51.2,34.51a15.319,15.319,0,0,0-2.022-3.931ZM38.532,34.51a14.934,14.934,0,0,1-2.617-1.565,14.891,14.891,0,0,1,4.638-2.363,15.319,15.319,0,0,0-2.022,3.925Zm-4.161-.25a16.9,16.9,0,0,0,3.563,2.158,32.563,32.563,0,0,0-1.02,7.477h-6.95a14.9,14.9,0,0,1,4.406-9.638Zm-2.4,21.6H19.944V39.907H28.67a16.887,16.887,0,0,0,3.3,15.95Zm2.4-.331a14.9,14.9,0,0,1-4.406-9.638h6.95a32.563,32.563,0,0,0,1.02,7.477,16.9,16.9,0,0,0-3.564,2.161Zm4.161-.25A15.319,15.319,0,0,0,40.552,59.2a14.89,14.89,0,0,1-4.638-2.363,14.933,14.933,0,0,1,2.617-1.565Zm.376-9.388H50.826a30.749,30.749,0,0,1-.9,6.768,16.664,16.664,0,0,0-10.118,0,30.749,30.749,0,0,1-.9-6.768Zm0-1.994a30.749,30.749,0,0,1,.9-6.768,16.664,16.664,0,0,0,10.118,0,30.75,30.75,0,0,1,.9,6.768ZM3.994,25.5,24.929,12.179,45.863,25.5v1.625l-20.4-12.983a1,1,0,0,0-1.071,0L3.994,27.126Zm4.984.815,15.95-10.149,15.95,10.149v2.126a16.992,16.992,0,0,0-11.438,9.471H18.947a1,1,0,0,0-1,1V55.857H8.978ZM5.988,59.845a1,1,0,0,1-1-1,.975.975,0,0,1,.305-.711.962.962,0,0,1,.692-.286H33.968a17,17,0,0,0,2.94,1.994Zm34.393-5.284a14.7,14.7,0,0,1,8.972,0c-1.179,3.312-2.884,5.284-4.486,5.284S41.56,57.873,40.381,54.561Zm10.82.712a14.933,14.933,0,0,1,2.617,1.565A14.891,14.891,0,0,1,49.18,59.2,15.319,15.319,0,0,0,51.2,55.276Zm4.161.25A16.9,16.9,0,0,0,51.8,53.365a32.564,32.564,0,0,0,1.02-7.477h6.95a14.9,14.9,0,0,1-4.406,9.638Z" transform="translate(0 -0.025)"/>
      <path id="Path_979546" data-name="Path 979546" d="M26,47h1.994v1.994H26Z" transform="translate(-0.074 -0.14)"/>
      <path id="Path_979547" data-name="Path 979547" d="M44.967,3.994a12.912,12.912,0,0,1,9.165,3.8l1.407-1.414a14.953,14.953,0,0,0-21.144,0L35.8,7.791a12.912,12.912,0,0,1,9.165-3.8Z" transform="translate(-0.101)"/>
      <path id="Path_979548" data-name="Path 979548" d="M52.729,9.213a10.96,10.96,0,0,0-15.506,0l1.41,1.41a8.972,8.972,0,0,1,12.687,0Z" transform="translate(-0.109 -0.012)"/>
      <path id="Path_979549" data-name="Path 979549" d="M49.92,12.05a6.967,6.967,0,0,0-9.869,0l1.417,1.4a4.973,4.973,0,0,1,7.038,0Z" transform="translate(-0.118 -0.025)"/>
      <path id="Path_979550" data-name="Path 979550" d="M42,16.991A2.991,2.991,0,1,0,44.991,14,2.991,2.991,0,0,0,42,16.991Zm3.988,0a1,1,0,1,1-1-1A1,1,0,0,1,45.988,16.991Z" transform="translate(-0.124 -0.037)"/>
    </g>
  </g>
</svg>
