<svg xmlns="http://www.w3.org/2000/svg" width="30.275" height="33.965" viewBox="0 0 30.275 33.965">
  <g id="surface1" transform="translate(-0.184)">
    <path id="Path_906248" data-name="Path 906248" d="M30.024,16.114l-1.352-.581v-.924A13.307,13.307,0,0,0,19.757,2V.7a.7.7,0,0,0-.7-.7H11.564a.7.7,0,0,0-.7.7V2.01A13.307,13.307,0,0,0,1.949,14.616v.931l-1.338.567a.7.7,0,0,0-.427.644v3.677a.7.7,0,0,0,.7.7h.91v1.4a.7.7,0,0,0,.7.7H5.009a10.6,10.6,0,0,0,1.043,2.507L4.274,27.523a.7.7,0,0,0,0,.987L7.25,31.486a.7.7,0,0,0,.987,0l1.779-1.779a10.579,10.579,0,0,0,2.5,1.043v2.514a.7.7,0,0,0,.7.7h4.2a.7.7,0,0,0,.7-.7V30.751a10.569,10.569,0,0,0,2.507-1.043L22.4,31.486a.7.7,0,0,0,.987,0l2.976-2.976a.7.7,0,0,0,0-.987L24.59,25.744a10.593,10.593,0,0,0,1.044-2.507h2.514a.7.7,0,0,0,.7-.7v-1.4h.91a.7.7,0,0,0,.7-.7V16.759A.7.7,0,0,0,30.024,16.114ZM12.25,1.408h6.107v11.7H12.264Zm15.2,20.428H25.122a.7.7,0,0,0-.7.553A9.2,9.2,0,0,1,23.14,25.47a.7.7,0,0,0,.091.875L24.9,28.02l-2,1.989-1.674-1.674a.7.7,0,0,0-.875-.091,9.21,9.21,0,0,1-3.081,1.281.7.7,0,0,0-.553.7v2.36h-2.8V30.2a.7.7,0,0,0-.553-.7,9.179,9.179,0,0,1-3.081-1.282.7.7,0,0,0-.876.091L7.733,29.988,5.751,28.006l1.674-1.674a.7.7,0,0,0,.091-.875,9.215,9.215,0,0,1-1.3-3.067.7.7,0,0,0-.7-.553H3.181v-.7h6.4a5.771,5.771,0,0,0,11.457,0h6.408Zm-16.443-.7h8.621a4.37,4.37,0,0,1-8.628,0Zm18.054-1.4H1.577V17.221l1.351-.581A.7.7,0,0,0,3.356,16v-1.4a11.9,11.9,0,0,1,7.508-11.1V13.81a.7.7,0,0,0,.7.7h7.507a.7.7,0,0,0,.7-.7V3.494a11.905,11.905,0,0,1,7.514,11.114v1.4a.7.7,0,0,0,.427.644l1.351.581v2.5Zm0,0"/>
  </g>
</svg>
