<svg xmlns="http://www.w3.org/2000/svg" xmlns:xlink="http://www.w3.org/1999/xlink" width="86" height="86" viewBox="0 0 86 86">
  <defs>
    <filter id="Ellipse_11513" x="0" y="0" width="86" height="86" filterUnits="userSpaceOnUse">
      <feOffset dy="3" input="SourceAlpha"/>
      <feGaussianBlur stdDeviation="3" result="blur"/>
      <feFlood flood-opacity="0.161"/>
      <feComposite operator="in" in2="blur"/>
      <feComposite in="SourceGraphic"/>
    </filter>
  </defs>
  <g id="Group_1144398" data-name="Group 1144398" transform="translate(-609.81 -2162.944)">
    <g id="Group_1144334" data-name="Group 1144334" transform="translate(423.183 -2416.056)">
      <g id="Group_1143702" data-name="Group 1143702" transform="translate(-630.373 4129)">
        <g id="Group_1143465" data-name="Group 1143465" transform="translate(630 -707)">
          <g transform="matrix(1, 0, 0, 1, 187, 1157)" filter="url(#Ellipse_11513)">
            <g id="Ellipse_11513-2" data-name="Ellipse 11513" transform="translate(9 6)" fill="#f7eafc" stroke="#652180" stroke-width="3">
              <circle cx="34" cy="34" r="34" stroke="none"/>
              <circle cx="34" cy="34" r="32.5" fill="none"/>
            </g>
          </g>
        </g>
      </g>
    </g>
    <g id="Layer_x0020_1" transform="translate(599.124 2155.079)">
      <path id="Path_979381" data-name="Path 979381" d="M53.686,41.725a4.968,4.968,0,1,1,5-4.968A4.982,4.982,0,0,1,53.686,41.725ZM31,56.158V30.685a.8.8,0,0,1,.8-.8H44.054c1.076-1.821.828-1.6,4.029.276a8.583,8.583,0,0,1,2.7-1.573V25.8a.8.8,0,0,1,.8-.8h4.223a.8.8,0,0,1,.8.8v2.787a8.583,8.583,0,0,1,2.7,1.573c3.2-1.877,2.953-2.1,4-.276H75.571a.8.8,0,0,1,.8.8V60.74a.8.8,0,0,1-.8.8H61.5v3.008h5.575a.8.8,0,0,1,.8.8V69.93a.8.8,0,0,1-.8.8H40.3a.8.8,0,0,1-.8-.8V65.349a.8.8,0,0,1,.8-.8h5.6V61.54H31.8a.8.8,0,0,1-.8-.8ZM45.241,31.072,44.22,32.81c3.781,2.18,2.4,1.076,2.4,3.947S48,38.523,44.22,40.7l1.325,2.263L47.78,41.7c1.021-.607,1.187,1.076,4,1.877a.8.8,0,0,1,.607.773v2.567h2.622V44.346c0-1.187,1.518-.469,3.643-2.539a.752.752,0,0,1,.938-.11l2.263,1.27,1.3-2.263c-3.891-2.263-2.263-.938-2.4-4.416-.083-2.291-1.214-1.38,2.4-3.477l-1.3-2.291-2.263,1.3c-.994.58-1.159-1.076-4-1.877a.8.8,0,0,1-.58-.773V26.6H52.389v2.567c0,1.187-1.518.469-3.643,2.539a.787.787,0,0,1-.966.11l-2.235-1.3Zm-2.1.414H32.6V55.358h42.17V31.486H64.256c1.27,2.235,1.325,1.766-2.042,3.726a3.11,3.11,0,0,1,.083.5,30.284,30.284,0,0,1,9.853,7.176.8.8,0,0,1,0,1.076c-11.343,12.005-25.556,12.005-36.9,0a.75.75,0,0,1,0-1.076,30.482,30.482,0,0,1,9.825-7.176l.083-.5C41.791,33.252,41.874,33.721,43.143,31.486ZM32.6,59.939h42.17V56.959H32.6Zm8.5,9.19h25.17V66.149H41.1Zm6.4-4.581H59.9V61.54H47.5ZM45.048,37.5a28.392,28.392,0,0,0-8.114,5.934c10.432,10.57,23.072,10.57,33.5,0A28.019,28.019,0,0,0,62.324,37.5a3.732,3.732,0,0,1-.11.8l2.429,1.408a.812.812,0,0,1,.3,1.1l-2.125,3.671a.8.8,0,0,1-1.076.276l-2.429-1.408a8.583,8.583,0,0,1-2.7,1.573v2.787a.8.8,0,0,1-.8.8H51.588a.8.8,0,0,1-.8-.8V44.926a8.583,8.583,0,0,1-2.7-1.573L45.655,44.76a.829.829,0,0,1-1.1-.276l-2.1-3.671a.8.8,0,0,1,.276-1.1L45.158,38.3A7,7,0,0,1,45.048,37.5Zm8.638-4.112a3.367,3.367,0,1,0,3.395,3.367A3.363,3.363,0,0,0,53.686,33.39Z" fill-rule="evenodd"/>
      <path id="Path_979382" data-name="Path 979382" d="M422.17,1516H397v2.981h25.17Z" transform="translate(-355.899 -1449.851)" fill="#25738b" fill-rule="evenodd"/>
      <path id="Path_979383" data-name="Path 979383" d="M629,1352.008h12.392V1349H629Z" transform="translate(-581.496 -1287.46)" fill="#21687d" fill-rule="evenodd"/>
      <path id="Path_979384" data-name="Path 979384" d="M89,1185.981h42.17V1183H89Z" transform="translate(-56.399 -1126.041)" fill="#25738b" fill-rule="evenodd"/>
      <path id="Path_979385" data-name="Path 979385" d="M89,283.873h42.17V260H120.655c1.27,2.235,1.325,1.766-2.042,3.726a3.111,3.111,0,0,1,.083.5,30.284,30.284,0,0,1,9.853,7.176.8.8,0,0,1,0,1.076c-11.343,12.005-25.556,12.005-36.9,0a.75.75,0,0,1,0-1.076,30.481,30.481,0,0,1,9.825-7.176l.083-.5c-3.367-1.959-3.284-1.49-2.015-3.726H89Z" transform="translate(-56.399 -228.514)" fill="#d3ffff" fill-rule="evenodd"/>
      <path id="Path_979386" data-name="Path 979386" d="M246,483.934c10.432,10.57,23.072,10.57,33.5,0A28.017,28.017,0,0,0,271.39,478a3.732,3.732,0,0,1-.11.8l2.429,1.407a.812.812,0,0,1,.3,1.1l-2.125,3.671a.8.8,0,0,1-1.076.276l-2.429-1.408a8.583,8.583,0,0,1-2.7,1.573v2.787a.8.8,0,0,1-.8.8h-4.223a.8.8,0,0,1-.8-.8v-2.787a8.583,8.583,0,0,1-2.7-1.573l-2.429,1.408a.829.829,0,0,1-1.1-.276l-2.1-3.671a.8.8,0,0,1,.276-1.1l2.429-1.407a7,7,0,0,1-.11-.8A28.39,28.39,0,0,0,246,483.934Z" transform="translate(-209.066 -440.498)" fill="#333" fill-rule="evenodd"/>
      <path id="Path_979387" data-name="Path 979387" d="M518.169,103.312h2.622v-2.567c0-1.187,1.518-.469,3.643-2.539a.752.752,0,0,1,.938-.11l2.263,1.27,1.3-2.263c-3.891-2.263-2.263-.938-2.4-4.416-.083-2.291-1.214-1.38,2.4-3.477l-1.3-2.291-2.263,1.3c-.994.58-1.159-1.076-4-1.877a.8.8,0,0,1-.58-.773V83h-2.622v2.567c0,1.187-1.518.469-3.643,2.539a.787.787,0,0,1-.966.11l-2.235-1.3-.3.552L510,89.21c3.781,2.18,2.4,1.076,2.4,3.947s1.38,1.766-2.4,3.947l1.325,2.263,2.235-1.27c1.021-.607,1.187,1.076,4,1.877a.8.8,0,0,1,.607.773Zm6.292-10.156a4.981,4.981,0,1,1-5-4.968A4.988,4.988,0,0,1,524.461,93.156Z" transform="translate(-465.78 -56.399)" fill="#ff3e1a" fill-rule="evenodd"/>
      <path id="Path_979388" data-name="Path 979388" d="M734.367,335.734A3.367,3.367,0,1,0,731,332.367,3.369,3.369,0,0,0,734.367,335.734Z" transform="translate(-680.681 -295.61)" fill="#d3ffff" fill-rule="evenodd"/>
    </g>
  </g>
</svg>
