<svg xmlns="http://www.w3.org/2000/svg" xmlns:xlink="http://www.w3.org/1999/xlink" width="66" height="66" viewBox="0 0 66 66">
  <defs>
    <filter id="Rectangle_401342" x="0" y="0" width="66" height="66" filterUnits="userSpaceOnUse">
      <feOffset dy="3" input="SourceAlpha"/>
      <feGaussianBlur stdDeviation="3" result="blur"/>
      <feFlood flood-opacity="0.161"/>
      <feComposite operator="in" in2="blur"/>
      <feComposite in="SourceGraphic"/>
    </filter>
  </defs>
  <g id="Icono" transform="translate(-131 -6006)">
    <g transform="matrix(1, 0, 0, 1, 131, 6006)" filter="url(#Rectangle_401342)">
      <rect id="Rectangle_401342-2" data-name="Rectangle 401342" width="48" height="48" transform="translate(9 6)" fill="#dbe7fc"/>
    </g>
    <path id="Path_874077" data-name="Path 874077" d="M40.342,31.651a.923.923,0,0,1,0,1.306l-7.384,7.384a.924.924,0,1,1-1.306-1.306l7.384-7.384a.923.923,0,0,1,1.306,0ZM46.1,25.889a6.461,6.461,0,0,0-9.138,0L33.5,29.356A.924.924,0,0,0,34.8,30.662L38.272,27.2A4.615,4.615,0,1,1,44.8,33.727l-3.47,3.468a.923.923,0,1,0,1.3,1.306l3.47-3.474a6.461,6.461,0,0,0,0-9.138ZM37.19,41.329,33.722,44.8A4.615,4.615,0,1,1,27.2,38.27L30.663,34.8A.924.924,0,1,0,29.357,33.5L25.89,36.965A6.462,6.462,0,0,0,35.028,46.1L38.5,42.634a.923.923,0,0,0-1.306-1.3Z" transform="translate(128.003 6000.004)" fill="#006df0"/>
  </g>
</svg>
