<svg xmlns="http://www.w3.org/2000/svg" width="90" height="90" viewBox="0 0 90 90">
  <g id="Group_1099765" data-name="Group 1099765" transform="translate(-204.373 -8572)">
    <path id="Path_875096" data-name="Path 875096" d="M45,0A45,45,0,1,1,0,45,45,45,0,0,1,45,0Z" transform="translate(204.373 8572)" fill="#fcdfdb"/>
    <g id="Group_1145309" data-name="Group 1145309" transform="translate(225.747 8596.782)">
      <path id="Path_978620" data-name="Path 978620" d="M44.347,9.758a5.465,5.465,0,0,0-3.814-3.932C37.152,5,23.626,5,23.626,5S10.1,5,6.719,5.9A5.465,5.465,0,0,0,2.905,9.836a57.011,57.011,0,0,0-.9,10.4,57.011,57.011,0,0,0,.9,10.478,5.466,5.466,0,0,0,3.814,3.775c3.381.9,16.907.9,16.907.9s13.525,0,16.907-.9a5.465,5.465,0,0,0,3.814-3.932,57.013,57.013,0,0,0,.9-10.321A57.008,57.008,0,0,0,44.347,9.758Z" fill="none" stroke="#f15642" stroke-linecap="round" stroke-linejoin="round" stroke-width="2"/>
      <path id="Path_978621" data-name="Path 978621" d="M9.75,10.685c0-1.032,0-1.548.216-1.836a1.081,1.081,0,0,1,.789-.431c.359-.026.793.253,1.661.812l8.527,5.482c.753.484,1.13.726,1.26,1.034a1.083,1.083,0,0,1,0,.842c-.13.308-.507.55-1.26,1.034L12.416,23.1c-.868.558-1.3.837-1.661.812a1.081,1.081,0,0,1-.789-.431c-.216-.288-.216-.8-.216-1.836Z" transform="translate(9.01 3.972)" fill="none" stroke="#f15642" stroke-linecap="round" stroke-linejoin="round" stroke-width="2"/>
    </g>
  </g>
</svg>
