<svg xmlns="http://www.w3.org/2000/svg" xmlns:xlink="http://www.w3.org/1999/xlink" width="1331.814" height="368.348" viewBox="0 0 1331.814 368.348">
  <defs>
    <linearGradient id="linear-gradient" x1="0.541" y1="0.874" x2="0.54" y2="0.417" gradientUnits="objectBoundingBox">
      <stop offset="0" stop-color="#fdf5d2"/>
      <stop offset="1" stop-color="#fdf5d2" stop-opacity="0"/>
    </linearGradient>
    <clipPath id="clip-path">
      <rect id="Rectangle_405688" data-name="Rectangle 405688" width="1331.814" height="368.348" transform="translate(0 -254)" fill="url(#linear-gradient)"/>
    </clipPath>
    <linearGradient id="linear-gradient-2" x1="0.541" y1="0.874" x2="0.54" y2="0.417" gradientUnits="objectBoundingBox">
      <stop offset="0" stop-color="#f9f2c5"/>
      <stop offset="1" stop-color="#fcf9e5" stop-opacity="0"/>
    </linearGradient>
  </defs>
  <g id="Mask_Group_1098711" data-name="Mask Group 1098711" transform="translate(0 254)" clip-path="url(#clip-path)">
    <path id="Path_978902" data-name="Path 978902" d="M1332.782,233.357S1276.7,214.574,1204.5,207.094c-73.448-7.479-146.543-14.126-214.149-12.321-68.854,1.017-176.032,8.011-245.336,17.582S491.364,244.65,434.535,250.9c-56.829,5.456-110.745,10.665-219.378,7.717S18.572,247.677,0,239.1V-365.663s81.744-14.254,135.836-19.292c52.844-5.037,203.213-6.61,331.965,7.892,105.948,12.05,258.674,35.661,352.973,44.541,13.689,1.289,251.626,7.214,315.809,1.5,62.936-5.718,170.619-22.306,191.348-28.544C1327.93-350.466,1332.782,233.357,1332.782,233.357Z" transform="translate(-0.582 -145.385)" fill-rule="evenodd" fill="url(#linear-gradient-2)"/>
  </g>
</svg>
