<svg xmlns="http://www.w3.org/2000/svg" xmlns:xlink="http://www.w3.org/1999/xlink" width="91" height="91" viewBox="0 0 91 91">
  <defs>
    <filter id="Ellipse_11513" x="0" y="0" width="91" height="91" filterUnits="userSpaceOnUse">
      <feOffset dy="3" input="SourceAlpha"/>
      <feGaussianBlur stdDeviation="3" result="blur"/>
      <feFlood flood-opacity="0.161"/>
      <feComposite operator="in" in2="blur"/>
      <feComposite in="SourceGraphic"/>
    </filter>
  </defs>
  <g id="Group_1145757" data-name="Group 1145757" transform="translate(-281 -10187)">
    <g id="Group_1145747" data-name="Group 1145747" transform="translate(-1 9462)">
      <g id="Group_1143810" data-name="Group 1143810" transform="translate(0 -199)">
        <g id="Group_1143699" data-name="Group 1143699" transform="translate(290.867 930)">
          <g id="Group_1143465" data-name="Group 1143465">
            <g transform="matrix(1, 0, 0, 1, -8.87, -6)" filter="url(#Ellipse_11513)">
              <g id="Ellipse_11513-2" data-name="Ellipse 11513" transform="translate(9 6)" fill="#f7eafc" stroke="#361245" stroke-width="3">
                <circle cx="36.5" cy="36.5" r="36.5" stroke="none"/>
                <circle cx="36.5" cy="36.5" r="35" fill="none"/>
              </g>
            </g>
          </g>
        </g>
      </g>
    </g>
    <g id="Layer_x0020_1" transform="translate(299.869 10200.299)">
      <path id="Path_981318" data-name="Path 981318" d="M29.426,27.472c-.68,0-.746-1.125-2.293-1.125-1.576,0-1.615,1.167-2.328,1.124a.635.635,0,0,1-.507-.3l-4.332-7.1a.636.636,0,0,1,.159-.838c3.621-2.733,10.395-2.733,14.016,0a.635.635,0,0,1,.159.838l-4.332,7.1a.639.639,0,0,1-.542.305ZM46.4,45.979H7.834a4.689,4.689,0,0,1-4.026-7.01c3.525-6.105,6.372-11.5,10.11-18.031.567-.99,9.239-16.172,10.991-17.12,1.346-.728,3.614-.72,4.543.064C32.825,6.731,46.8,32.625,50.458,38.969a4.668,4.668,0,0,1-4.056,7.01ZM25.577,4.9c-3.3,2.971-17,28.351-20.667,34.7a3.418,3.418,0,0,0,2.925,5.1H46.4a3.4,3.4,0,0,0,2.954-5.1c-3.536-6.12-6.366-11.478-10.121-18.031-.486-.848-8.922-15.53-10.564-16.684a3.682,3.682,0,0,0-3.1.013ZM46.4,49.157H7.834A7.864,7.864,0,0,1,1.055,37.379c.607-1.052,1.634-2.9,2.934-5.246,7.854-14.156,16.464-29.395,19.219-31a7.879,7.879,0,0,1,7.9.028C33.861,2.793,42.444,18,50.272,32.119c1.3,2.353,2.335,4.212,2.94,5.26A7.879,7.879,0,0,1,46.4,49.157ZM27.187,1.355a6.7,6.7,0,0,0-3.338.872C20.573,4.142,7.316,29.077,2.156,38.015a6.592,6.592,0,0,0,5.68,9.871H46.4a6.578,6.578,0,0,0,5.709-9.871c-5.19-8.988-18.3-33.71-21.669-35.773a6.15,6.15,0,0,0-3.254-.887ZM21.193,42.139a.636.636,0,0,1-.248-.05c-4.157-1.76-7.563-7.659-7.008-12.138a.636.636,0,0,1,.647-.558l8.312.2a.637.637,0,0,1,.573.876,2.27,2.27,0,0,0,1.79,3.1.636.636,0,0,1,.472.934l-3.98,7.3a.636.636,0,0,1-.558.332ZM15.154,30.678a12.137,12.137,0,0,0,5.769,9.993l3.307-6.065a3.543,3.543,0,0,1-2.169-3.758l-6.906-.169Zm17.92,11.461a.637.637,0,0,1-.559-.332l-3.98-7.3a.636.636,0,0,1,.472-.934,2.27,2.27,0,0,0,1.791-3.1.637.637,0,0,1,.573-.875l8.328-.2a.635.635,0,0,1,.63.558c.555,4.48-2.851,10.379-7.008,12.138a.632.632,0,0,1-.247.05ZM30.037,34.6l3.307,6.065a12.137,12.137,0,0,0,5.769-9.993l-6.907.169A3.542,3.542,0,0,1,30.037,34.6Zm-2.9-1.342c-3.737,0-3.738-5.68,0-5.68S30.871,33.263,27.133,33.263Zm0-4.408a1.568,1.568,0,0,0,0,3.136A1.568,1.568,0,0,0,27.133,28.855Zm0-3.78a3.511,3.511,0,0,1,2.17.743l3.6-5.9a12.067,12.067,0,0,0-11.538,0l3.6,5.9a3.509,3.509,0,0,1,2.169-.743Z" transform="translate(0 0)" fill="#000002" fill-rule="evenodd"/>
      <g id="Group_1145756" data-name="Group 1145756" transform="translate(15.149 18.453)">
        <path id="Path_981319" data-name="Path 981319" d="M6.441,7.281a3.511,3.511,0,0,1,2.17.743l3.6-5.9a12.067,12.067,0,0,0-11.538,0l3.6,5.9a3.509,3.509,0,0,1,2.169-.743Z" transform="translate(5.543 -0.659)" fill="#57555c" fill-rule="evenodd"/>
        <path id="Path_981320" data-name="Path 981320" d="M2.353.987a1.568,1.568,0,0,0,0,3.136A1.568,1.568,0,0,0,2.353.987Z" transform="translate(9.631 9.416)" fill="#57555c" fill-rule="evenodd"/>
        <path id="Path_981321" data-name="Path 981321" d="M3.114,1.213A3.542,3.542,0,0,1,.945,4.971l3.307,6.065A12.137,12.137,0,0,0,10.02,1.044l-6.907.169Z" transform="translate(13.943 11.181)" fill="#57555c" fill-rule="evenodd"/>
        <path id="Path_981322" data-name="Path 981322" d="M9.557,4.971A3.543,3.543,0,0,1,7.388,1.213L.481,1.044A12.137,12.137,0,0,0,6.25,11.036L9.557,4.971Z" transform="translate(-0.477 11.181)" fill="#57555c" fill-rule="evenodd"/>
      </g>
      <path id="Path_981323" data-name="Path 981323" d="M10.265,25.059l8.312.2a.637.637,0,0,1,.573.875,2.27,2.27,0,0,0,1.79,3.1.636.636,0,0,1,.472.934l-3.98,7.3a.635.635,0,0,1-.806.281C12.47,36,9.064,30.1,9.619,25.617a.636.636,0,0,1,.647-.558Zm9.714-2.226-4.332-7.1a.636.636,0,0,1,.159-.838c3.621-2.733,10.395-2.733,14.016,0a.635.635,0,0,1,.159.838l-4.332,7.1a.639.639,0,0,1-.542.305c-.68,0-.746-1.125-2.293-1.125-1.576,0-1.615,1.167-2.328,1.124A.635.635,0,0,1,19.979,22.834Zm2.836,6.1c-3.737,0-3.738-5.68,0-5.68S26.554,28.93,22.815,28.93ZM3.517,40.374H42.086a3.4,3.4,0,0,0,2.954-5.1c-3.536-6.12-6.366-11.478-10.121-18.031C34.433,16.393,26,1.711,24.355.557a3.682,3.682,0,0,0-3.1.013c-3.3,2.971-17,28.351-20.667,34.7a3.418,3.418,0,0,0,2.925,5.1Zm24.68-2.9-3.98-7.3a.636.636,0,0,1,.472-.934,2.27,2.27,0,0,0,1.791-3.1.637.637,0,0,1,.573-.875l8.328-.2a.635.635,0,0,1,.63.558C36.566,30.1,33.16,36,29,37.755a.635.635,0,0,1-.806-.281Z" transform="translate(4.318 4.333)" fill="#fedb41" fill-rule="evenodd"/>
      <path id="Path_981324" data-name="Path 981324" d="M28.218,2.649C31.592,5.5,45.562,31.391,49.225,37.735a4.668,4.668,0,0,1-4.056,7.01H6.6a4.689,4.689,0,0,1-4.026-7.01C6.1,31.629,8.945,26.231,12.684,19.7c.567-.99,9.239-16.172,10.991-17.12,1.346-.728,3.614-.72,4.543.064ZM6.6,46.652H45.168a6.578,6.578,0,0,0,5.709-9.871c-5.19-8.988-18.3-33.71-21.669-35.773A6.15,6.15,0,0,0,25.954.122a6.7,6.7,0,0,0-3.338.872C19.34,2.908,6.082,27.843.922,36.781A6.592,6.592,0,0,0,6.6,46.652Z" transform="translate(1.234 1.234)" fill="#57555c" fill-rule="evenodd"/>
    </g>
  </g>
</svg>
