<svg xmlns="http://www.w3.org/2000/svg" xmlns:xlink="http://www.w3.org/1999/xlink" width="91" height="91" viewBox="0 0 91 91">
  <defs>
    <filter id="Ellipse_11513" x="0" y="0" width="91" height="91" filterUnits="userSpaceOnUse">
      <feOffset dy="3" input="SourceAlpha"/>
      <feGaussianBlur stdDeviation="3" result="blur"/>
      <feFlood flood-opacity="0.161"/>
      <feComposite operator="in" in2="blur"/>
      <feComposite in="SourceGraphic"/>
    </filter>
  </defs>
  <g id="Group_1145767" data-name="Group 1145767" transform="translate(-596 -10187)">
    <g id="Group_1145748" data-name="Group 1145748" transform="translate(-1 9462)">
      <g id="Group_1143812" data-name="Group 1143812" transform="translate(0 -199)">
        <g id="Group_1143703" data-name="Group 1143703" transform="translate(605.919 930)">
          <g id="Group_1143465" data-name="Group 1143465">
            <g transform="matrix(1, 0, 0, 1, -8.92, -6)" filter="url(#Ellipse_11513)">
              <g id="Ellipse_11513-2" data-name="Ellipse 11513" transform="translate(9 6)" fill="#f7eafc" stroke="#652180" stroke-width="3">
                <circle cx="36.5" cy="36.5" r="36.5" stroke="none"/>
                <circle cx="36.5" cy="36.5" r="35" fill="none"/>
              </g>
            </g>
          </g>
        </g>
      </g>
    </g>
    <g id="lista-de-verificacion" transform="translate(616.894 10208.248)">
      <g id="Group_1145765" data-name="Group 1145765" transform="translate(1.8 1.759)">
        <g id="Group_1145758" data-name="Group 1145758" transform="translate(25.585 6.396)">
          <path id="Path_981325" data-name="Path 981325" d="M39.6,16.4H34.8a.8.8,0,0,1-.8-.8V10.8a.8.8,0,0,1,.8-.8h4.8a.8.8,0,0,1,.8.8v4.8A.8.8,0,0,1,39.6,16.4Z" transform="translate(-34 -10)" fill="#fcd770"/>
        </g>
        <g id="Group_1145759" data-name="Group 1145759" transform="translate(25.585 20.788)">
          <path id="Path_981326" data-name="Path 981326" d="M39.6,34.4H34.8a.8.8,0,0,1-.8-.8V28.8a.8.8,0,0,1,.8-.8h4.8a.8.8,0,0,1,.8.8v4.8A.8.8,0,0,1,39.6,34.4Z" transform="translate(-34 -28)" fill="#fcd770"/>
        </g>
        <g id="Group_1145760" data-name="Group 1145760" transform="translate(25.585 33.58)">
          <path id="Path_981327" data-name="Path 981327" d="M39.6,50.4H34.8a.8.8,0,0,1-.8-.8V44.8a.8.8,0,0,1,.8-.8h4.8a.8.8,0,0,1,.8.8v4.8A.8.8,0,0,1,39.6,50.4Z" transform="translate(-34 -44)" fill="#fcd770"/>
        </g>
        <g id="Group_1145761" data-name="Group 1145761" transform="translate(0 0)">
          <path id="Path_981328" data-name="Path 981328" d="M17.223,19.5l-4.03,2.351v-.664a1.6,1.6,0,0,0-1.6-1.6,1.611,1.611,0,0,0-1.6,1.6v.664L5.966,19.5A7.992,7.992,0,0,1,2,12.6V2.8l1.479.736a6.362,6.362,0,0,0,6.4-.4L11.594,2l1.711,1.135a6.362,6.362,0,0,0,6.4.4L21.189,2.8v9.8A7.992,7.992,0,0,1,17.223,19.5Z" transform="translate(-2 -2)" fill="#aab2bd"/>
        </g>
        <g id="Group_1145762" data-name="Group 1145762" transform="translate(7.196 41.575)">
          <path id="Path_981329" data-name="Path 981329" d="M20.594,54l1.6,6.4H11l.8-6.4Z" transform="translate(-11 -54)" fill="#b4dd7f"/>
        </g>
        <g id="Group_1145763" data-name="Group 1145763" transform="translate(0 17.59)">
          <path id="Path_981330" data-name="Path 981330" d="M19.59,33.594h1.6a1.6,1.6,0,0,1,1.6,1.6V37a15.946,15.946,0,0,1-2.431,8.475L18.79,47.986H10l-1.1-.824a8,8,0,0,1-2.862-4.094l-1.063-3.55A5.561,5.561,0,0,0,2.72,36.473l-.1-.072a1.384,1.384,0,0,1,.152-2.391l.128-.064a3.34,3.34,0,0,1,4.661,1.935l.632,1.879a.928.928,0,0,0,1.807-.3V25.6a1.611,1.611,0,0,1,1.6-1.6,1.6,1.6,0,0,1,1.6,1.6v4.8h1.6a1.6,1.6,0,0,1,1.6,1.6h1.6a1.6,1.6,0,0,1,1.6,1.6Z" transform="translate(-2 -24)" fill="#f0d0b4"/>
        </g>
        <g id="Group_1145764" data-name="Group 1145764" transform="translate(4.797 4.797)">
          <path id="Path_981331" data-name="Path 981331" d="M17.594,12v1.6a.8.8,0,0,1-.8.8H14.4v2.4a.8.8,0,0,1-.8.8H12a.8.8,0,0,1-.8-.8V14.4H8.8a.8.8,0,0,1-.8-.8V12a.8.8,0,0,1,.8-.8h2.4V8.8A.8.8,0,0,1,12,8h1.6a.8.8,0,0,1,.8.8v2.4h2.4A.8.8,0,0,1,17.594,12Z" transform="translate(-8 -8)" fill="#ff826e"/>
        </g>
      </g>
      <g id="Group_1145766" data-name="Group 1145766" transform="translate(1 0.798)">
        <path id="Path_981332" data-name="Path 981332" d="M10.2,16.594a1.6,1.6,0,0,0,1.6,1.6h1.6a1.6,1.6,0,0,0,1.6-1.6V15h1.6a1.6,1.6,0,0,0,1.6-1.6V11.8a1.6,1.6,0,0,0-1.6-1.6H15V8.6A1.6,1.6,0,0,0,13.4,7H11.8a1.6,1.6,0,0,0-1.6,1.6v1.6H8.6A1.6,1.6,0,0,0,7,11.8v1.6A1.6,1.6,0,0,0,8.6,15h1.6ZM8.6,13.4V11.8h3.2V8.6h1.6v3.2h3.2v1.6H13.4v3.2H11.8V13.4Z" transform="translate(-2.203 -2.041)"/>
        <path id="Path_981333" data-name="Path 981333" d="M20.988,28.143h-.947a2.4,2.4,0,0,0-2.251-1.6h-.947a2.4,2.4,0,0,0-2.251-1.6h-.8V22.073l3.632-2.119a8.825,8.825,0,0,0,4.363-7.6V1.265L19.153,2.582a5.609,5.609,0,0,1-5.608-.349L11.394.8,9.242,2.233a5.607,5.607,0,0,1-5.608.349L1,1.265V12.358a8.823,8.823,0,0,0,4.363,7.6L9,22.073V32.811a.134.134,0,0,1-.253.041l-.625-1.876a4.142,4.142,0,0,0-5.782-2.395l-.126.063a2.185,2.185,0,0,0-.236,3.773l.1.07A4.811,4.811,0,0,1,4.012,35.1l1.063,3.544a8.73,8.73,0,0,0,3.148,4.509l.722.541L8.089,50.53H21.213l-1.765-7.06,1.386-2.219a16.775,16.775,0,0,0,2.553-8.9v-1.81a2.4,2.4,0,0,0-2.4-2.4ZM2.6,12.358V3.852l.32.16a7.21,7.21,0,0,0,7.21-.449l1.265-.843,1.265.844a7.212,7.212,0,0,0,7.21.449l.32-.16v8.505a7.22,7.22,0,0,1-3.57,6.216l-2.932,1.71a2.383,2.383,0,0,0-4.586,0l-2.932-1.71A7.219,7.219,0,0,1,2.6,12.358ZM9.9,48.931l.6-4.8h7.464l1.2,4.8ZM21.788,32.352A15.18,15.18,0,0,1,19.479,40.4l-1.332,2.132H10.061l-.879-.66a7.146,7.146,0,0,1-2.574-3.689L5.544,34.642a6.413,6.413,0,0,0-2.578-3.484l-.1-.07a.587.587,0,0,1,.063-1.014l.126-.063A2.544,2.544,0,0,1,6.6,31.481l.625,1.876a1.729,1.729,0,0,0,3.368-.547V20.948a.8.8,0,0,1,1.6,0V32.941h1.6v-6.4h.8a.8.8,0,0,1,.8.8v5.6h1.6v-4.8h.8a.8.8,0,0,1,.8.8v4h1.6v-3.2h.8a.8.8,0,0,1,.8.8Z" transform="translate(-1 -0.798)"/>
        <path id="Path_981334" data-name="Path 981334" d="M32.525,1,28.293,5.232l1.131,1.131L33.187,2.6H56.042V1Z" transform="translate(-6.472 -0.838)"/>
        <path id="Path_981335" data-name="Path 981335" d="M40.345,8.776a1.587,1.587,0,0,0-.949-.319H34.6a1.6,1.6,0,0,0-1.6,1.6v4.8a1.6,1.6,0,0,0,1.6,1.6h4.8a1.6,1.6,0,0,0,1.6-1.6V10.387l2.964-2.964L42.829,6.293ZM39.4,14.854H34.6v-4.8h4.466L37,12.124,35.964,11.09l-1.131,1.131L37,14.385l2.4-2.4Z" transform="translate(-7.415 -1.9)"/>
        <path id="Path_981336" data-name="Path 981336" d="M40.345,26.776a1.587,1.587,0,0,0-.949-.319H34.6a1.6,1.6,0,0,0-1.6,1.6v4.8a1.6,1.6,0,0,0,1.6,1.6h4.8a1.6,1.6,0,0,0,1.6-1.6V28.387l2.964-2.964-1.131-1.131ZM39.4,32.854H34.6v-4.8h4.466L37,30.124,35.964,29.09l-1.131,1.131L37,32.385l2.4-2.4Z" transform="translate(-7.415 -5.508)"/>
        <path id="Path_981337" data-name="Path 981337" d="M42.829,40.293l-2.483,2.483a1.587,1.587,0,0,0-.949-.319H34.6a1.6,1.6,0,0,0-1.6,1.6v4.8a1.6,1.6,0,0,0,1.6,1.6h4.8a1.6,1.6,0,0,0,1.6-1.6V44.387l2.964-2.964ZM39.4,48.854H34.6v-4.8h4.466L37,46.124,35.964,45.09l-1.131,1.131L37,48.385l2.4-2.4Z" transform="translate(-7.415 -8.716)"/>
        <path id="Path_981338" data-name="Path 981338" d="M47,15H59.792v1.6H47Z" transform="translate(-10.222 -3.645)"/>
        <path id="Path_981339" data-name="Path 981339" d="M47,11h3.2v1.6H47Z" transform="translate(-10.222 -2.843)"/>
        <path id="Path_981340" data-name="Path 981340" d="M53,11h8v1.6H53Z" transform="translate(-11.425 -2.843)"/>
        <path id="Path_981341" data-name="Path 981341" d="M47,33H59.792v1.6H47Z" transform="translate(-10.222 -7.254)"/>
        <path id="Path_981342" data-name="Path 981342" d="M47,29h3.2v1.6H47Z" transform="translate(-10.222 -6.452)"/>
        <path id="Path_981343" data-name="Path 981343" d="M53,29h8v1.6H53Z" transform="translate(-11.425 -6.452)"/>
        <path id="Path_981344" data-name="Path 981344" d="M47,49H59.792v1.6H47Z" transform="translate(-10.222 -10.461)"/>
        <path id="Path_981345" data-name="Path 981345" d="M47,45h3.2v1.6H47Z" transform="translate(-10.222 -9.659)"/>
        <path id="Path_981346" data-name="Path 981346" d="M53,45h8v1.6H53Z" transform="translate(-11.425 -9.659)"/>
      </g>
    </g>
  </g>
</svg>
