<svg xmlns="http://www.w3.org/2000/svg" xmlns:xlink="http://www.w3.org/1999/xlink" width="108" height="108" viewBox="0 0 108 108">
  <defs>
    <filter id="Ellipse_11495" x="0" y="0" width="108" height="108" filterUnits="userSpaceOnUse">
      <feOffset dy="3" input="SourceAlpha"/>
      <feGaussianBlur stdDeviation="3" result="blur"/>
      <feFlood flood-opacity="0.161"/>
      <feComposite operator="in" in2="blur"/>
      <feComposite in="SourceGraphic"/>
    </filter>
  </defs>
  <g id="Group_1145625" data-name="Group 1145625" transform="translate(-621.093 -347)">
    <g id="Group_1144449" data-name="Group 1144449" transform="translate(630.093 353)">
      <g id="Group_1144291" data-name="Group 1144291" transform="translate(0)">
        <g id="Group_1143942" data-name="Group 1143942">
          <g id="Group_1143744" data-name="Group 1143744">
            <g transform="matrix(1, 0, 0, 1, -9, -6)" filter="url(#Ellipse_11495)">
              <g id="Ellipse_11495-2" data-name="Ellipse 11495" transform="translate(9 6)" fill="#edf5fb" stroke="#7b3289" stroke-width="4">
                <circle cx="45" cy="45" r="45" stroke="none"/>
                <circle cx="45" cy="45" r="43" fill="none"/>
              </g>
            </g>
          </g>
        </g>
      </g>
    </g>
    <g id="ingenieria" transform="translate(612.531 360.404)">
      <path id="Path_979808" data-name="Path 979808" d="M87.5,285.1a18.268,18.268,0,0,1-36.535,0H37.07v3.815A1.153,1.153,0,0,0,38,290.059l6.462,1.251a25.378,25.378,0,0,0,2.867,6.917l-3.686,5.456a1.163,1.163,0,0,0,.141,1.473l5.4,5.4a1.163,1.163,0,0,0,1.473.141l5.456-3.686a25.378,25.378,0,0,0,6.917,2.867l1.251,6.462a1.163,1.163,0,0,0,1.142.942h7.63a1.163,1.163,0,0,0,1.142-.942l1.251-6.462a25.379,25.379,0,0,0,6.918-2.867l5.456,3.686a1.163,1.163,0,0,0,1.473-.141l5.4-5.4a1.163,1.163,0,0,0,.141-1.473l-3.686-5.456a25.378,25.378,0,0,0,2.867-6.917l6.462-1.251a1.132,1.132,0,0,0,.906-1.142V285.1Z" transform="translate(-6.66 -243.231)" fill="#afb4bc"/>
      <path id="Path_979809" data-name="Path 979809" d="M101.375,233.315H37.07V227.21a2.8,2.8,0,0,1,2.8-2.81H98.534a2.836,2.836,0,0,1,2.841,2.81v6.105Z" transform="translate(-6.66 -191.444)" fill="#ff8d27"/>
      <path id="Path_979810" data-name="Path 979810" d="M98.534,224.4h-8.3a2.81,2.81,0,0,1,2.81,2.81h0a2.844,2.844,0,0,1-2.844,2.844H37.07v3.261h64.3V227.21A2.836,2.836,0,0,0,98.534,224.4Z" transform="translate(-6.66 -191.444)" fill="#ff7610"/>
      <path id="Path_979811" data-name="Path 979811" d="M97.207,45.419H94.179A26.057,26.057,0,0,0,68.122,71.476V71.7h55.142v-.228A26.057,26.057,0,0,0,97.207,45.419Z" transform="translate(-33.152 -38.749)" fill="#ffdc48"/>
      <path id="Path_979812" data-name="Path 979812" d="M237.537,45.419h-2.572q-1.055,0-2.089.083a26.287,26.287,0,0,1,24.2,26.2h6.75A26.285,26.285,0,0,0,237.537,45.419Z" transform="translate(-173.71 -38.749)" fill="#ffce00"/>
      <path id="Path_979813" data-name="Path 979813" d="M171.259,38.741l-1.824-5.972a1.262,1.262,0,0,1,1.207-1.631,51.485,51.485,0,0,1,22.874,0,1.315,1.315,0,0,1,1.015.511,1.255,1.255,0,0,1,.193,1.12l-1.736,5.682" transform="translate(-119.538 -25.467)" fill="#ffb82e"/>
      <path id="Path_979814" data-name="Path 979814" d="M192.01,30.714l2.329,8.009,14.1-.251,2.329-7.758a51.43,51.43,0,0,0-18.754,0Z" transform="translate(-138.846 -25.468)" fill="#ffa910"/>
      <path id="Path_979815" data-name="Path 979815" d="M207.869,24.458V9.589a1.782,1.782,0,0,1,1.782-1.782h10.531a1.782,1.782,0,0,1,1.782,1.782V24.458" transform="translate(-152.376 -6.66)" fill="#ffb82e"/>
      <g id="Group_1145624" data-name="Group 1145624" transform="translate(34.97 28.19)">
        <path id="Path_979816" data-name="Path 979816" d="M225.667,196.717H214.735v-3.439a1.326,1.326,0,0,1,1.326-1.326h8.28a1.326,1.326,0,0,1,1.326,1.326Z" transform="translate(-193.203 -191.952)" fill="#ff5122"/>
        <path id="Path_979817" data-name="Path 979817" d="M73.545,191.953H68.553a26.438,26.438,0,0,0-.432,4.765h6.75v-3.439A1.326,1.326,0,0,0,73.545,191.953Z" transform="translate(-68.121 -191.953)" fill="#ff5122"/>
        <path id="Path_979818" data-name="Path 979818" d="M398.958,191.953h4.992a26.44,26.44,0,0,1,.432,4.765h-6.75v-3.439A1.326,1.326,0,0,1,398.958,191.953Z" transform="translate(-349.24 -191.953)" fill="#ff5122"/>
      </g>
      <path id="Path_979819" data-name="Path 979819" d="M101.375,285.1H87.5a18.269,18.269,0,0,1-36.186,3.567h.033A18.356,18.356,0,0,1,51,285.1H37.07v3.567H41.6a7.227,7.227,0,0,1,6.728,4.6,22.444,22.444,0,0,0,41.8,0,7.226,7.226,0,0,1,6.728-4.6h4.509V285.1Z" transform="translate(-6.66 -243.232)" fill="#808791"/>
      <path id="Path_979820" data-name="Path 979820" d="M91.907,31.809H91.46c-.032,0-.161.021-.185,0s-.012-.1-.014-.133c-.005-.1-.01-.208-.016-.312-.041-.719-.11-1.438-.208-2.152a27.248,27.248,0,0,0-1.227-5.173,1.147,1.147,0,0,0-2.169.745c.255.743.471,1.5.655,2.259H84.721a2.476,2.476,0,0,0-2.473,2.473v2.293H68.613V29.517a2.475,2.475,0,0,0-2.473-2.473h-8.28a2.475,2.475,0,0,0-2.473,2.473v2.293H42.9V29.517a2.475,2.475,0,0,0-2.473-2.473H36.861A25.222,25.222,0,0,1,49.745,10.622l.913,2.987a1.147,1.147,0,1,0,2.193-.67L51.027,6.966a.116.116,0,0,1,.111-.15,1.14,1.14,0,0,0,.255-.029c.986-.224,1.986-.419,2.988-.584V17.8a1.147,1.147,0,0,0,2.293,0V2.929a.636.636,0,0,1,.635-.635H67.84a.636.636,0,0,1,.635.635V17.8a1.147,1.147,0,0,0,2.293,0V6.2c1,.165,2,.36,2.988.584A1.14,1.14,0,0,0,74,6.817a.178.178,0,0,1,.109.047.109.109,0,0,1,.018.1l-1.736,5.682a1.147,1.147,0,1,0,2.193.67l.824-2.7a25.447,25.447,0,0,1,10.225,9.753,1.147,1.147,0,0,0,1.984-1.15A27.753,27.753,0,0,0,76.084,8.393l.231-.756A2.386,2.386,0,0,0,75.947,5.5a2.455,2.455,0,0,0-1.783-.971c-1.12-.253-2.258-.469-3.4-.649V2.928A2.931,2.931,0,0,0,67.84,0H57.309A2.932,2.932,0,0,0,54.38,2.929v.952c-1.136.179-2.272.4-3.39.648a2.409,2.409,0,0,0-2.156,3.109l.231.755A27.522,27.522,0,0,0,34.335,27.87a1.13,1.13,0,0,0-.027.114,27.579,27.579,0,0,0-.365,2.813q-.04.506-.062,1.013h-.64a3.972,3.972,0,0,0-3.978,3.956v9.92a2.307,2.307,0,0,0,1.86,2.267l5.756,1.114a26.512,26.512,0,0,0,2.438,5.883L36.033,59.81a2.313,2.313,0,0,0,.281,2.926l5.4,5.4a2.313,2.313,0,0,0,2.926.281l4.859-3.283a26.509,26.509,0,0,0,5.883,2.438l1.114,5.756a2.313,2.313,0,0,0,2.267,1.871h7.63a2.313,2.313,0,0,0,2.267-1.871l.477-2.465a1.147,1.147,0,1,0-2.251-.436l-.477,2.464a.016.016,0,0,1-.016.013h-7.63a.017.017,0,0,1-.016-.013l-1.251-6.462a1.146,1.146,0,0,0-.848-.895,24.216,24.216,0,0,1-6.6-2.738,1.147,1.147,0,0,0-1.232.033l-5.456,3.686a.016.016,0,0,1-.021,0l-5.4-5.4a.016.016,0,0,1,0-.021l3.686-5.456a1.147,1.147,0,0,0,.033-1.232A24.232,24.232,0,0,1,38.915,47.8a1.146,1.146,0,0,0-.895-.848L31.56,45.7a.027.027,0,0,1,0-.018V43.017H43.193a19.415,19.415,0,0,0,38.762,0H93.568v2.668a.129.129,0,0,1,0,.021l-6.438,1.246a1.146,1.146,0,0,0-.895.848A24.225,24.225,0,0,1,83.5,54.405a1.147,1.147,0,0,0,.033,1.232l3.686,5.455a.016.016,0,0,1,0,.021l-5.4,5.4a.016.016,0,0,1-.021,0l-5.456-3.686a1.147,1.147,0,0,0-1.232-.033,24.222,24.222,0,0,1-6.6,2.738,1.147,1.147,0,1,0,.556,2.225,26.513,26.513,0,0,0,6.594-2.626l4.859,3.283a2.314,2.314,0,0,0,2.927-.28l5.4-5.4a2.313,2.313,0,0,0,.281-2.926L85.832,54.95a26.5,26.5,0,0,0,2.438-5.883l5.756-1.114a2.268,2.268,0,0,0,1.835-2.267v-9.92A3.959,3.959,0,0,0,91.907,31.809Zm-7.365-2.293a.18.18,0,0,1,.18-.18h4.016c.118.819.2,1.645.235,2.472H84.542Zm-26.861,0a.18.18,0,0,1,.18-.18h8.28a.18.18,0,0,1,.18.18v2.293H57.682V29.517Zm-17.255-.18a.18.18,0,0,1,.18.18v2.293H36.176c.013-.276.031-.55.052-.824,0-.038.006-.076.009-.115q.065-.772.177-1.533ZM80.842,40.724H55.116a1.147,1.147,0,0,0,0,2.293h24.54a17.12,17.12,0,0,1-34.163,0h3.738a1.147,1.147,0,1,0,0-2.293H31.556V35.765A1.676,1.676,0,0,1,33.241,34.1H91.907a1.664,1.664,0,0,1,1.661,1.663v4.959Z"/>
    </g>
  </g>
</svg>
