<svg xmlns="http://www.w3.org/2000/svg" xmlns:xlink="http://www.w3.org/1999/xlink" width="108" height="108" viewBox="0 0 108 108">
  <defs>
    <filter id="Path_978544" x="0" y="0" width="108" height="108" filterUnits="userSpaceOnUse">
      <feOffset dy="3" input="SourceAlpha"/>
      <feGaussianBlur stdDeviation="3" result="blur"/>
      <feFlood flood-opacity="0.161"/>
      <feComposite operator="in" in2="blur"/>
      <feComposite in="SourceGraphic"/>
    </filter>
  </defs>
  <g id="Group_1145603" data-name="Group 1145603" transform="translate(-195 -329)">
    <g id="Group_1144415" data-name="Group 1144415" transform="translate(-422 -751)">
      <g id="Group_1143820" data-name="Group 1143820" transform="translate(626 1086)">
        <g id="Group_1143706" data-name="Group 1143706" transform="translate(0)">
          <g transform="matrix(1, 0, 0, 1, -9, -6)" filter="url(#Path_978544)">
            <g id="Path_978544-2" data-name="Path 978544" transform="translate(9 6)" fill="#edf5fb">
              <path d="M 45 88.5 C 39.12687683105469 88.5 33.43022537231445 87.35007476806641 28.06830024719238 85.08217620849609 C 22.88852500915527 82.89131164550781 18.23629951477051 79.75458526611328 14.2408504486084 75.75914764404297 C 10.24541282653809 71.76370239257812 7.108687400817871 67.11147308349609 4.917825222015381 61.93170166015625 C 2.649924993515015 56.56977462768555 1.5 50.87312316894531 1.5 45 C 1.5 39.12687683105469 2.649924993515015 33.43022537231445 4.917825222015381 28.06830024719238 C 7.108687400817871 22.88852500915527 10.24541282653809 18.23629951477051 14.2408504486084 14.2408504486084 C 18.23629951477051 10.24541282653809 22.88852500915527 7.108687400817871 28.06830024719238 4.917825222015381 C 33.43022537231445 2.649924993515015 39.12687683105469 1.5 45 1.5 C 50.87312316894531 1.5 56.56977462768555 2.649924993515015 61.93170166015625 4.917825222015381 C 67.11147308349609 7.108687400817871 71.76370239257812 10.24541282653809 75.75914764404297 14.2408504486084 C 79.75458526611328 18.23629951477051 82.89131164550781 22.88852500915527 85.08217620849609 28.06830024719238 C 87.35007476806641 33.43022537231445 88.5 39.12687683105469 88.5 45 C 88.5 50.87312316894531 87.35007476806641 56.56977462768555 85.08217620849609 61.93170166015625 C 82.89131164550781 67.11147308349609 79.75458526611328 71.76370239257812 75.75914764404297 75.75914764404297 C 71.76370239257812 79.75458526611328 67.11147308349609 82.89131164550781 61.93170166015625 85.08217620849609 C 56.56977462768555 87.35007476806641 50.87312316894531 88.5 45 88.5 Z" stroke="none"/>
              <path d="M 45 3 C 39.32871246337891 3 33.82865524291992 4.110054016113281 28.65262985229492 6.299339294433594 C 23.65165710449219 8.414573669433594 19.15968322753906 11.44334411621094 15.301513671875 15.301513671875 C 11.44334411621094 19.15968322753906 8.414573669433594 23.65165710449219 6.299339294433594 28.65262985229492 C 4.110054016113281 33.82865524291992 3 39.32871246337891 3 45 C 3 50.67128753662109 4.110054016113281 56.17134475708008 6.299339294433594 61.34737396240234 C 8.414573669433594 66.34834289550781 11.44334411621094 70.84031677246094 15.301513671875 74.698486328125 C 19.15968322753906 78.55665588378906 23.65165710449219 81.58542633056641 28.65262985229492 83.70066070556641 C 33.82865524291992 85.88994598388672 39.32871246337891 87 45 87 C 50.67128753662109 87 56.17134475708008 85.88994598388672 61.34737396240234 83.70066070556641 C 66.34834289550781 81.58542633056641 70.84031677246094 78.55665588378906 74.698486328125 74.698486328125 C 78.55665588378906 70.84031677246094 81.58542633056641 66.34834289550781 83.70066070556641 61.34737396240234 C 85.88994598388672 56.17134475708008 87 50.67128753662109 87 45 C 87 39.32871246337891 85.88994598388672 33.82865524291992 83.70066070556641 28.65262985229492 C 81.58542633056641 23.65165710449219 78.55665588378906 19.15968322753906 74.698486328125 15.301513671875 C 70.84031677246094 11.44334411621094 66.34834289550781 8.414573669433594 61.34737396240234 6.299339294433594 C 56.17134475708008 4.110054016113281 50.67128753662109 3 45 3 M 45 0 C 69.85281372070312 0 90 20.14718627929688 90 45 C 90 69.85281372070312 69.85281372070312 90 45 90 C 20.14718627929688 90 0 69.85281372070312 0 45 C 0 20.14718627929688 20.14718627929688 0 45 0 Z" stroke="none" fill="#2f5b79"/>
            </g>
          </g>
        </g>
      </g>
    </g>
    <g id="controlar" transform="translate(220 348.103)">
      <g id="Group_1145601" data-name="Group 1145601" transform="translate(1.029 1.029)">
        <g id="Group_1145579" data-name="Group 1145579" transform="translate(9.261 57.621)">
          <path id="Path_979720" data-name="Path 979720" d="M33.666,59.058v2.058H10V57H33.666Z" transform="translate(-10 -57)" fill="#969faa"/>
        </g>
        <g id="Group_1145580" data-name="Group 1145580" transform="translate(13.376 51.447)">
          <path id="Path_979721" data-name="Path 979721" d="M14,51H35.906a7.213,7.213,0,0,0-.3,2.058H30.463a3.083,3.083,0,0,0-3.087,3.087v1.029H14Z" transform="translate(-14 -51)" fill="#aab2bd"/>
        </g>
        <g id="Group_1145581" data-name="Group 1145581" transform="translate(0 43.216)">
          <path id="Path_979722" data-name="Path 979722" d="M40.8,46.334a7.393,7.393,0,0,0-4.517,4.9H4.128A3.127,3.127,0,0,1,1,48.1V43H34.955a10.28,10.28,0,0,0,6.174,2.058h5.145a11.452,11.452,0,0,0-3.982.72Z" transform="translate(-1 -43)" fill="#ccd1d9"/>
        </g>
        <g id="Group_1145582" data-name="Group 1145582" transform="translate(56.592 24.695)">
          <path id="Path_979723" data-name="Path 979723" d="M57.029,28.087H56V25h4.116v6.174A3.083,3.083,0,0,0,57.029,28.087Z" transform="translate(-56 -25)" fill="#656d78"/>
        </g>
        <g id="Group_1145583" data-name="Group 1145583" transform="translate(25.724 24.695)">
          <path id="Path_979724" data-name="Path 979724" d="M26,25h4.116v3.087H29.087A3.091,3.091,0,0,0,26,31.174Z" transform="translate(-26 -25)" fill="#656d78"/>
        </g>
        <g id="Group_1145584" data-name="Group 1145584" transform="translate(0 20.569)">
          <path id="Path_979725" data-name="Path 979725" d="M30.839,35.406V34.377H29.81a3.076,3.076,0,0,1-2.562-1.358,3.114,3.114,0,0,1-.525-1.729V25.116a1.032,1.032,0,0,1-1.029-1.029V22.029A1.032,1.032,0,0,1,26.724,21H22.567l-.01-.01a.5.5,0,0,1-.113.144l-.731.731a2.129,2.129,0,0,1-1.5.628,2.164,2.164,0,0,1-.967-.237,2.09,2.09,0,0,0-1.77-.062l-.37.154a2.105,2.105,0,0,0-1.214,1.3,2.144,2.144,0,0,1-2.027,1.471H12.833a2.145,2.145,0,0,1-2.027-1.471,2.105,2.105,0,0,0-1.214-1.3l-.37-.154a2.015,2.015,0,0,0-.813-.165,2.078,2.078,0,0,0-.957.226,2.125,2.125,0,0,1-2.469-.391l-.731-.731a.5.5,0,0,1-.113-.144l-.01.01A3.127,3.127,0,0,0,1,24.128V43.637H34.955a10.28,10.28,0,0,1-4.116-8.232Z" transform="translate(-1 -20.99)" fill="#69d6f4"/>
        </g>
        <g id="Group_1145585" data-name="Group 1145585" transform="translate(34.984 45.274)">
          <path id="Path_979726" data-name="Path 979726" d="M42.378,46.2a4.142,4.142,0,0,0-1.2,2.912v4.116H35a7.213,7.213,0,0,1,.3-2.058,7.393,7.393,0,0,1,4.517-4.9l1.492-.556A11.452,11.452,0,0,1,45.289,45a4.142,4.142,0,0,0-2.912,1.2Z" transform="translate(-35 -45)" fill="#ff826e"/>
        </g>
        <g id="Group_1145586" data-name="Group 1145586" transform="translate(32.926 45.274)">
          <path id="Path_979727" data-name="Path 979727" d="M41.232,53.232V49.116a4.116,4.116,0,0,1,8.232,0v6.174a6.179,6.179,0,0,1-6.174,6.174H35.058A2.064,2.064,0,0,1,33,59.405V55.289a2.064,2.064,0,0,1,2.058-2.058Z" transform="translate(-33 -45)" fill="#ff826e"/>
        </g>
        <g id="Group_1145587" data-name="Group 1145587" transform="translate(26.753 53.505)">
          <path id="Path_979728" data-name="Path 979728" d="M33.174,55.058v2.058H27V56.087A3.083,3.083,0,0,1,30.087,53h5.145A2.064,2.064,0,0,0,33.174,55.058Z" transform="translate(-27 -53)" fill="#f0d0b4"/>
        </g>
        <g id="Group_1145588" data-name="Group 1145588" transform="translate(29.839 24.695)">
          <path id="Path_979729" data-name="Path 979729" d="M56.753,28.087v7.2A10.293,10.293,0,0,1,46.463,45.579H40.289A10.289,10.289,0,0,1,30,35.289V25H56.753Z" transform="translate(-30 -25)" fill="#f0d0b4"/>
        </g>
        <g id="Group_1145589" data-name="Group 1145589" transform="translate(56.592 27.782)">
          <path id="Path_979730" data-name="Path 979730" d="M57.029,28a3.087,3.087,0,0,1,0,6.174H56V28Z" transform="translate(-56 -28)" fill="#f0d0b4"/>
        </g>
        <g id="Group_1145590" data-name="Group 1145590" transform="translate(25.724 27.782)">
          <path id="Path_979731" data-name="Path 979731" d="M30.116,28v6.174H29.087a3.076,3.076,0,0,1-2.562-1.358A3.114,3.114,0,0,1,26,31.087,3.091,3.091,0,0,1,29.087,28Z" transform="translate(-26 -28)" fill="#f0d0b4"/>
        </g>
        <g id="Group_1145591" data-name="Group 1145591" transform="translate(39.1 37.042)">
          <path id="Path_979732" data-name="Path 979732" d="M39,37h8.232A4.116,4.116,0,1,1,39,37Z" transform="translate(-39 -37)" fill="#ff826e"/>
        </g>
        <g id="Group_1145592" data-name="Group 1145592" transform="translate(4.116 32.926)">
          <path id="Path_979733" data-name="Path 979733" d="M5,33h8.232v6.174H5Z" transform="translate(-5 -33)" fill="#ff826e"/>
        </g>
        <g id="Group_1145593" data-name="Group 1145593" transform="translate(0)">
          <path id="Path_979734" data-name="Path 979734" d="M22.608,18.286a2.078,2.078,0,0,0,.226.957,2.092,2.092,0,0,1-.278,2.325.5.5,0,0,1-.113.144l-.731.731a2.129,2.129,0,0,1-1.5.628,2.164,2.164,0,0,1-.967-.237,2.09,2.09,0,0,0-1.77-.062l-.37.154a2.105,2.105,0,0,0-1.214,1.3,2.144,2.144,0,0,1-2.027,1.471H12.833a2.145,2.145,0,0,1-2.027-1.471,2.105,2.105,0,0,0-1.214-1.3l-.37-.154a2.015,2.015,0,0,0-.813-.165,2.078,2.078,0,0,0-.957.226,2.125,2.125,0,0,1-2.469-.391l-.731-.731a.5.5,0,0,1-.113-.144,2.072,2.072,0,0,1-.514-1.358,2.164,2.164,0,0,1,.237-.967,2.09,2.09,0,0,0,.062-1.77l-.154-.37a2.105,2.105,0,0,0-1.3-1.214A2.144,2.144,0,0,1,1,13.862V12.833a2.144,2.144,0,0,1,1.471-2.027,2.105,2.105,0,0,0,1.3-1.214l.154-.37a2.015,2.015,0,0,0,.165-.813,2.078,2.078,0,0,0-.226-.957,2.125,2.125,0,0,1,.391-2.469l.731-.731a2.129,2.129,0,0,1,1.5-.628,2.164,2.164,0,0,1,.967.237,2.09,2.09,0,0,0,1.77.062l.37-.154a2.105,2.105,0,0,0,1.214-1.3A2.145,2.145,0,0,1,12.833,1h1.029a2.144,2.144,0,0,1,2.027,1.471,2.105,2.105,0,0,0,1.214,1.3l.37.154a2.015,2.015,0,0,0,.813.165,2.078,2.078,0,0,0,.957-.226,2.125,2.125,0,0,1,2.469.391l.731.731a2.129,2.129,0,0,1,.628,1.5,2.164,2.164,0,0,1-.237.967,2.09,2.09,0,0,0-.062,1.77l.154.37a2.105,2.105,0,0,0,1.3,1.214,2.144,2.144,0,0,1,1.471,2.027v1.029a2.144,2.144,0,0,1-1.471,2.027,2.105,2.105,0,0,0-1.3,1.214l-.154.37a2.015,2.015,0,0,0-.165.813Zm-3.087-4.939a6.174,6.174,0,1,0-6.174,6.174,6.179,6.179,0,0,0,6.174-6.174Z" transform="translate(-1 -1)" fill="#a0d468"/>
        </g>
        <g id="Group_1145594" data-name="Group 1145594" transform="translate(6.174 6.174)">
          <path id="Path_979735" data-name="Path 979735" d="M13.174,7A6.174,6.174,0,1,1,7,13.174,6.179,6.179,0,0,1,13.174,7Zm2.058,6.174a2.058,2.058,0,1,0-2.058,2.058A2.064,2.064,0,0,0,15.232,13.174Z" transform="translate(-7 -7)" fill="#b4dd7f"/>
        </g>
        <g id="Group_1145595" data-name="Group 1145595" transform="translate(45.274 6.174)">
          <path id="Path_979736" data-name="Path 979736" d="M59.405,21.405H53.232V14.2A1.032,1.032,0,0,0,52.2,13.174H50.145A1.032,1.032,0,0,0,49.116,14.2v7.2H45V7A14.408,14.408,0,0,1,59.405,21.405Z" transform="translate(-45 -7)" fill="#ffeaa7"/>
        </g>
        <g id="Group_1145596" data-name="Group 1145596" transform="translate(26.753 6.174)">
          <path id="Path_979737" data-name="Path 979737" d="M41.405,7V21.405H37.289V14.2a1.032,1.032,0,0,0-1.029-1.029H34.2A1.032,1.032,0,0,0,33.174,14.2v7.2H27A14.408,14.408,0,0,1,41.405,7Z" transform="translate(-27 -7)" fill="#ffeaa7"/>
        </g>
        <g id="Group_1145597" data-name="Group 1145597" transform="translate(49.389 12.347)">
          <path id="Path_979738" data-name="Path 979738" d="M53.116,14.029v7.2H49v-7.2A1.032,1.032,0,0,1,50.029,13h2.058A1.032,1.032,0,0,1,53.116,14.029Z" transform="translate(-49 -13)" fill="#fcd770"/>
        </g>
        <g id="Group_1145598" data-name="Group 1145598" transform="translate(41.158 4.116)">
          <path id="Path_979739" data-name="Path 979739" d="M45.116,7.058V21.463H41V6.029A1.032,1.032,0,0,1,42.029,5h2.058a1.032,1.032,0,0,1,1.029,1.029Z" transform="translate(-41 -5)" fill="#fcd770"/>
        </g>
        <g id="Group_1145599" data-name="Group 1145599" transform="translate(24.695 20.579)">
          <path id="Path_979740" data-name="Path 979740" d="M62.042,22.029v2.058a1.032,1.032,0,0,1-1.029,1.029H26.029A1.032,1.032,0,0,1,25,24.087V22.029A1.032,1.032,0,0,1,26.029,21H61.013A1.032,1.032,0,0,1,62.042,22.029Z" transform="translate(-25 -21)" fill="#fcd770"/>
        </g>
        <g id="Group_1145600" data-name="Group 1145600" transform="translate(32.926 12.347)">
          <path id="Path_979741" data-name="Path 979741" d="M37.116,14.029v7.2H33v-7.2A1.032,1.032,0,0,1,34.029,13h2.058A1.032,1.032,0,0,1,37.116,14.029Z" transform="translate(-33 -13)" fill="#fcd770"/>
        </g>
      </g>
      <g id="Group_1145602" data-name="Group 1145602" transform="translate(0)">
        <path id="Path_979742" data-name="Path 979742" d="M38,37.028a5.145,5.145,0,0,0,10.289,0V36H38Zm8.056,1.029a3.088,3.088,0,0,1-5.822,0Z" transform="translate(1.1 1.042)"/>
        <path id="Path_979743" data-name="Path 979743" d="M49.116,28A4.12,4.12,0,0,0,45,32.115h2.058a2.058,2.058,0,1,1,4.116,0h2.058A4.12,4.12,0,0,0,49.116,28Z" transform="translate(1.303 0.81)"/>
        <path id="Path_979744" data-name="Path 979744" d="M39.174,32.115h2.058a4.116,4.116,0,1,0-8.232,0h2.058a2.058,2.058,0,1,1,4.116,0Z" transform="translate(0.955 0.81)"/>
        <path id="Path_979745" data-name="Path 979745" d="M61.737,20.578h-.052A15.433,15.433,0,0,0,47.332,6.224V6.173a2.06,2.06,0,0,0-2.058-2.058H43.216a2.06,2.06,0,0,0-2.058,2.058v.052A15.432,15.432,0,0,0,26.805,20.578H24.1a3.155,3.155,0,0,0-.315-1.771,1.058,1.058,0,0,1-.039-.9c.058-.133.113-.268.166-.4a1.053,1.053,0,0,1,.667-.613,3.158,3.158,0,0,0,2.176-3.006V12.864a3.158,3.158,0,0,0-2.177-3.006,1.055,1.055,0,0,1-.665-.611c-.052-.136-.107-.271-.166-.4a1.06,1.06,0,0,1,.039-.9A3.156,3.156,0,0,0,23.2,4.28l-.725-.724a3.158,3.158,0,0,0-3.664-.586,1.058,1.058,0,0,1-.9.039c-.132-.058-.266-.112-.4-.166a1.056,1.056,0,0,1-.613-.667A3.158,3.158,0,0,0,13.889,0H12.864A3.158,3.158,0,0,0,9.858,2.177a1.061,1.061,0,0,1-.614.666c-.134.051-.269.107-.4.165a1.048,1.048,0,0,1-.9-.039,3.158,3.158,0,0,0-3.664.586l-.724.725A3.156,3.156,0,0,0,2.97,7.944a1.058,1.058,0,0,1,.039.9c-.058.133-.113.268-.166.4a1.053,1.053,0,0,1-.667.613A3.158,3.158,0,0,0,0,12.864v1.025a3.158,3.158,0,0,0,2.177,3.006,1.055,1.055,0,0,1,.665.611c.052.136.107.271.166.4a1.06,1.06,0,0,1-.039.9,3.154,3.154,0,0,0-.273,2.05A4.156,4.156,0,0,0,0,24.737v24.61a4.163,4.163,0,0,0,4.158,4.158h9.218v4.116H9.261v6.174H34.984v-.189a3.052,3.052,0,0,0,1.029.189h8.232a7.211,7.211,0,0,0,7.2-7.2V50.417A5.107,5.107,0,0,0,50.1,46.974,11.33,11.33,0,0,0,58.65,36.013,4.12,4.12,0,0,0,62.766,31.9V26.464a2.051,2.051,0,0,0,1.029-1.772V22.635a2.06,2.06,0,0,0-2.058-2.057Zm-31.9,13.377a2.058,2.058,0,1,1,0-4.116Zm0-6.174a4.073,4.073,0,0,0-2.058.572v-1.6h2.058Zm-3.087-3.088V22.637H61.737v2.058Zm10.289-4.116H34.984V14.4h2.058Zm16.463,0H51.447V14.4h2.058Zm5.145,6.174h2.058v1.6a4.064,4.064,0,0,0-2.058-.573Zm.976-6.174H55.563V14.4a2.06,2.06,0,0,0-2.058-2.058H51.447A2.06,2.06,0,0,0,49.389,14.4v6.174H47.332V8.282A13.38,13.38,0,0,1,59.626,20.578ZM45.274,6.173V20.578H43.216V6.173ZM41.158,8.282V20.577H39.1V14.4a2.06,2.06,0,0,0-2.058-2.058H34.984A2.06,2.06,0,0,0,32.926,14.4v6.174H28.863A13.38,13.38,0,0,1,41.158,8.282ZM2.818,14.939a1.1,1.1,0,0,1-.76-1.051V12.864a1.1,1.1,0,0,1,.76-1.051A3.1,3.1,0,0,0,4.76,9.99c.043-.11.088-.22.135-.327a3.107,3.107,0,0,0-.09-2.646,1.1,1.1,0,0,1,.206-1.281l.724-.724a1.1,1.1,0,0,1,1.281-.2,3.108,3.108,0,0,0,2.645.09c.109-.047.219-.093.329-.135a3.113,3.113,0,0,0,1.823-1.942,1.1,1.1,0,0,1,1.05-.761h1.025a1.1,1.1,0,0,1,1.051.761A3.107,3.107,0,0,0,16.762,4.76c.11.043.22.088.328.135a3.111,3.111,0,0,0,2.646-.09,1.1,1.1,0,0,1,1.281.2l.724.724a1.1,1.1,0,0,1,.2,1.281,3.1,3.1,0,0,0-.09,2.645q.069.162.136.33a3.107,3.107,0,0,0,1.942,1.822,1.1,1.1,0,0,1,.76,1.051v1.025a1.1,1.1,0,0,1-.761,1.051,3.1,3.1,0,0,0-1.941,1.823c-.043.11-.088.22-.135.327a3.107,3.107,0,0,0,.09,2.646,1.1,1.1,0,0,1-.2,1.28l-.725.725a1.1,1.1,0,0,1-1.28.2,3.112,3.112,0,0,0-2.645-.09q-.162.069-.33.136a3.107,3.107,0,0,0-1.822,1.942,1.1,1.1,0,0,1-1.051.76H12.864a1.1,1.1,0,0,1-1.051-.761A3.1,3.1,0,0,0,9.99,21.993c-.11-.043-.22-.088-.327-.135a3.046,3.046,0,0,0-1.22-.254,3.17,3.17,0,0,0-1.426.343,1.1,1.1,0,0,1-1.28-.2l-.725-.725a1.1,1.1,0,0,1-.2-1.28,3.1,3.1,0,0,0,.09-2.645q-.069-.162-.136-.33a3.105,3.105,0,0,0-1.942-1.821Zm.943,7.738.52.52a3.16,3.16,0,0,0,3.664.586,1.051,1.051,0,0,1,.9-.039c.133.058.268.113.4.166a1.053,1.053,0,0,1,.613.667,3.158,3.158,0,0,0,3.006,2.176h1.025a3.158,3.158,0,0,0,3.006-2.177,1.055,1.055,0,0,1,.611-.665c.136-.052.271-.107.4-.166a1.056,1.056,0,0,1,.9.039,3.159,3.159,0,0,0,3.664-.586l.561-.561h1.662v2.057a2.051,2.051,0,0,0,1.029,1.772V31.9a4.12,4.12,0,0,0,4.116,4.116,11.262,11.262,0,0,0,2.6,7.2H2.058V24.737a2.1,2.1,0,0,1,1.7-2.06Zm-1.7,26.67V45.274H34.672a11.245,11.245,0,0,0,4.629,1.89,8.5,8.5,0,0,0-3.7,4.284H4.158a2.1,2.1,0,0,1-2.1-2.1Zm39.1,4.158H37.131a6.425,6.425,0,0,1,4.062-4.958l.378-.142a5.127,5.127,0,0,0-.412,2.013Zm-8.233,4.116H28.81a2.06,2.06,0,0,1,2.058-2.058h2.247a3.057,3.057,0,0,0-.189,1.029ZM15.434,53.505H30.868a4.121,4.121,0,0,0-4.116,4.116H15.434Zm17.492,8.232H11.318V59.679H32.926v2.058Zm16.463-5.145a5.151,5.151,0,0,1-5.145,5.145H36.013a1.031,1.031,0,0,1-1.029-1.029V56.592a1.032,1.032,0,0,1,1.027-1.029h5.626l1.751,2.629L45.1,57.051l-1.884-2.828V50.418a3.081,3.081,0,0,1,3.058-3.085l.028,0h0a3.091,3.091,0,0,1,3.087,3.087ZM47.332,45.273H41.158A9.272,9.272,0,0,1,31.9,36.012V26.752H56.592v9.261A9.272,9.272,0,0,1,47.332,45.273ZM58.65,33.955V29.839a2.058,2.058,0,0,1,0,4.116Z" transform="translate(0)"/>
        <circle id="Ellipse_11649" data-name="Ellipse 11649" cx="1" cy="1" r="1" transform="translate(4 47)"/>
        <circle id="Ellipse_11650" data-name="Ellipse 11650" cx="1" cy="1" r="1" transform="translate(8 47)"/>
        <path id="Path_979746" data-name="Path 979746" d="M13.2,20.405A7.2,7.2,0,1,0,6,13.2,7.211,7.211,0,0,0,13.2,20.405Zm0-12.347A5.145,5.145,0,1,1,8.058,13.2,5.151,5.151,0,0,1,13.2,8.058Z" transform="translate(0.174 0.174)"/>
        <path id="Path_979747" data-name="Path 979747" d="M13.087,16.174A3.087,3.087,0,1,0,10,13.087,3.091,3.091,0,0,0,13.087,16.174Zm0-4.116a1.029,1.029,0,1,1-1.029,1.029A1.031,1.031,0,0,1,13.087,12.058Z" transform="translate(0.289 0.289)"/>
        <path id="Path_979748" data-name="Path 979748" d="M14.289,32H4v8.232H14.289Zm-2.058,6.174H6.058V34.058h6.174Z" transform="translate(0.116 0.926)"/>
        <path id="Path_979749" data-name="Path 979749" d="M28.347,38.347H26.289V34.232H24.232v4.116H22.174V29.087H20.116v9.261H18.058V26H16V40.405H28.347Z" transform="translate(0.463 0.753)"/>
        <path id="Path_979750" data-name="Path 979750" d="M4,28H6.058v2.058H4Z" transform="translate(0.116 0.81)"/>
        <path id="Path_979751" data-name="Path 979751" d="M8,28h6.174v2.058H8Z" transform="translate(0.232 0.81)"/>
      </g>
    </g>
  </g>
</svg>
