<svg xmlns="http://www.w3.org/2000/svg" xmlns:xlink="http://www.w3.org/1999/xlink" width="91" height="91" viewBox="0 0 91 91">
  <defs>
    <filter id="Ellipse_11513" x="0" y="0" width="91" height="91" filterUnits="userSpaceOnUse">
      <feOffset dy="3" input="SourceAlpha"/>
      <feGaussianBlur stdDeviation="3" result="blur"/>
      <feFlood flood-opacity="0.161"/>
      <feComposite operator="in" in2="blur"/>
      <feComposite in="SourceGraphic"/>
    </filter>
  </defs>
  <g id="Group_1145775" data-name="Group 1145775" transform="translate(-911 -10187)">
    <g id="Group_1145749" data-name="Group 1145749" transform="translate(-1 9462)">
      <g id="Group_1143813" data-name="Group 1143813" transform="translate(0 -199)">
        <g id="Group_1143702" data-name="Group 1143702" transform="translate(920.972 930)">
          <g id="Group_1143465" data-name="Group 1143465">
            <g transform="matrix(1, 0, 0, 1, -8.97, -6)" filter="url(#Ellipse_11513)">
              <g id="Ellipse_11513-2" data-name="Ellipse 11513" transform="translate(9 6)" fill="#f7eafc" stroke="#652180" stroke-width="3">
                <circle cx="36.5" cy="36.5" r="36.5" stroke="none"/>
                <circle cx="36.5" cy="36.5" r="35" fill="none"/>
              </g>
            </g>
          </g>
        </g>
      </g>
    </g>
    <g id="mitigacion-de-riesgos" transform="translate(903.713 10199.065)">
      <g id="Group_1145774" data-name="Group 1145774" transform="translate(26.585 1.26)">
        <g id="Group_1145768" data-name="Group 1145768" transform="translate(24.649)">
          <path id="Path_981347" data-name="Path 981347" d="M244.3,6.991a1.533,1.533,0,0,1,1.551,1.5V61.145a1.441,1.441,0,0,1-.143.631,8.88,8.88,0,0,1-2.856-.086,1.422,1.422,0,0,1-.106-.545V8.5a1.536,1.536,0,0,1,1.554-1.5Z" transform="translate(-242.748 -6.991)" fill="#1a5b96" fill-rule="evenodd"/>
        </g>
        <g id="Group_1145769" data-name="Group 1145769" transform="translate(0 4.291)">
          <path id="Path_981348" data-name="Path 981348" d="M58.564,43.614c14.357,0,26.017,9.664,26.2,21.647a11.87,11.87,0,0,0-7.758-2.72,11.244,11.244,0,0,0-9.223,4.321,11.232,11.232,0,0,0-9.219-4.321,11.244,11.244,0,0,0-9.223,4.321,11.232,11.232,0,0,0-9.219-4.321,11.886,11.886,0,0,0-7.761,2.72C32.546,53.278,44.206,43.614,58.564,43.614Z" transform="translate(-32.36 -43.614)" fill="#fe646f" fill-rule="evenodd"/>
        </g>
        <g id="Group_1145770" data-name="Group 1145770" transform="translate(16.496 4.291)">
          <path id="Path_981349" data-name="Path 981349" d="M182.865,43.614c5.36,0,9.7,9.82,9.7,21.936,0,.232,0,.465,0,.694a7.714,7.714,0,0,0-.482.618,12,12,0,0,0-18.442,0q-.224-.319-.478-.618c0-.229-.007-.462-.007-.694C173.157,53.434,177.5,43.614,182.865,43.614Z" transform="translate(-173.157 -43.614)" fill="#ffd54f" fill-rule="evenodd"/>
        </g>
        <g id="Group_1145771" data-name="Group 1145771" transform="translate(12.947 29.979)">
          <path id="Path_981350" data-name="Path 981350" d="M156.125,291.242c8.475-5.5,13.6-12.766,13.238-22.929-3.411-3.381-7.864-5.131-13.238-5.44-5.374.309-9.831,2.059-13.238,5.44C142.522,278.476,147.646,285.742,156.125,291.242Z" transform="translate(-142.869 -262.873)" fill="#26a6fe" fill-rule="evenodd"/>
        </g>
        <g id="Group_1145772" data-name="Group 1145772" transform="translate(18.436 33.779)">
          <path id="Path_981351" data-name="Path 981351" d="M197.48,295.3l3.882,6.729,3.886,6.729H189.712l3.882-6.729Z" transform="translate(-189.712 -295.302)" fill="#ffd54f" fill-rule="evenodd"/>
        </g>
        <g id="Group_1145773" data-name="Group 1145773" transform="translate(24.626 34.137)">
          <path id="Path_981352" data-name="Path 981352" d="M244.127,322.574c8.475-5.5,13.6-12.766,13.238-22.929a18.612,18.612,0,0,0-1.438-1.282c.183,10.166-4.945,17.522-13.377,23.138C243.061,321.867,243.589,322.222,244.127,322.574Z" transform="translate(-242.549 -298.363)" fill="#0593fc" fill-rule="evenodd"/>
        </g>
      </g>
      <path id="Path_981353" data-name="Path 981353" d="M71.69,11.287A29.219,29.219,0,0,0,55.156,4.87V2.82a2.369,2.369,0,0,0-4.736,0V4.87a29.222,29.222,0,0,0-16.531,6.417,21.019,21.019,0,0,0-8.069,15.9.819.819,0,0,0,1.354.632,11.124,11.124,0,0,1,7.21-2.515,10.433,10.433,0,0,1,8.532,3.965.819.819,0,0,0,1.338,0,9.832,9.832,0,0,1,6.166-3.733v5.122A19.342,19.342,0,0,0,39,36.086a.819.819,0,0,0-.242.552,24.118,24.118,0,0,0,3.414,13.641,31.573,31.573,0,0,0,10.17,9.958.818.818,0,0,0,.891,0A31.589,31.589,0,0,0,63.4,50.279a24.116,24.116,0,0,0,3.416-13.642.819.819,0,0,0-.242-.552,19.341,19.341,0,0,0-11.422-5.424V25.54a9.816,9.816,0,0,1,6.165,3.734.818.818,0,0,0,.669.347h0a.819.819,0,0,0,.669-.346,10.446,10.446,0,0,1,8.536-3.966A11.106,11.106,0,0,1,78.4,27.823a.819.819,0,0,0,1.354-.631,21.011,21.011,0,0,0-8.066-15.9ZM52.057,2.82a.719.719,0,0,1,.733-.683.708.708,0,0,1,.729.683V4.791q-.364-.008-.729-.009c-.245,0-.489,0-.733.009ZM34.384,23.671a13.023,13.023,0,0,0-6.818,1.845c1.073-9.473,9.786-17.17,20.889-18.784C44.943,10.086,42.5,17.444,42.3,26.286a12.879,12.879,0,0,0-7.912-2.614Zm18.405,34.9c-8.554-5.7-12.616-12.752-12.4-21.548a18.226,18.226,0,0,1,24.806,0c.212,8.794-3.849,15.85-12.4,21.548Zm.729-28.031q-.731-.026-1.462,0V25.331c.243-.014.487-.022.733-.022s.488.008.729.022Zm.988-6.761a.827.827,0,0,0-.143-.017,13.684,13.684,0,0,0-3.146,0,.82.82,0,0,0-.154.018,12.221,12.221,0,0,0-7.142,3.356C44.005,15.87,48.031,6.42,52.789,6.42s8.78,9.449,8.864,20.715a12.211,12.211,0,0,0-7.147-3.356Zm16.688-.107a12.888,12.888,0,0,0-7.916,2.616c-.2-8.843-2.646-16.2-6.157-19.555,11.1,1.614,19.817,9.31,20.888,18.783A13.009,13.009,0,0,0,71.194,23.671ZM52.08,34.621,48.2,41.336l-3.875,6.715a.819.819,0,0,0,.709,1.228H60.541a.819.819,0,0,0,.709-1.228l-3.878-6.715L53.5,34.621a.819.819,0,0,0-.709-.41h0a.819.819,0,0,0-.709.409Zm3.875,7.534,3.169,5.487H46.454l3.166-5.487,3.169-5.487ZM51.97,42.9V40.284a.819.819,0,1,1,1.637,0V42.9a.819.819,0,1,1-1.637,0Zm0,2.678v-.209a.819.819,0,1,1,1.637,0v.209a.819.819,0,1,1-1.637,0Z" transform="translate(0 0)"/>
    </g>
  </g>
</svg>
