<svg xmlns="http://www.w3.org/2000/svg" xmlns:xlink="http://www.w3.org/1999/xlink" width="108" height="108" viewBox="0 0 108 108">
  <defs>
    <filter id="Ellipse_11513" x="0" y="0" width="108" height="108" filterUnits="userSpaceOnUse">
      <feOffset dy="3" input="SourceAlpha"/>
      <feGaussianBlur stdDeviation="3" result="blur"/>
      <feFlood flood-opacity="0.161"/>
      <feComposite operator="in" in2="blur"/>
      <feComposite in="SourceGraphic"/>
    </filter>
  </defs>
  <g id="Group_1145639" data-name="Group 1145639" transform="translate(-616.622 -343.238)">
    <g id="Group_1144450" data-name="Group 1144450" transform="translate(625.622 349.238)">
      <g id="Group_1143830" data-name="Group 1143830">
        <g id="Group_1143731" data-name="Group 1143731">
          <g id="Group_1143472" data-name="Group 1143472">
            <g transform="matrix(1, 0, 0, 1, -9, -6)" filter="url(#Ellipse_11513)">
              <g id="Ellipse_11513-2" data-name="Ellipse 11513" transform="translate(9 6)" fill="#edf5fb" stroke="#2f5b79" stroke-width="3">
                <circle cx="45" cy="45" r="45" stroke="none"/>
                <circle cx="45" cy="45" r="43.5" fill="none"/>
              </g>
            </g>
          </g>
        </g>
      </g>
    </g>
    <g id="idea_3_" data-name="idea (3)" transform="translate(632.285 359.746)">
      <g id="Group_1145637" data-name="Group 1145637" transform="translate(14.803 1.019)">
        <g id="Group_1145635" data-name="Group 1145635">
          <g id="Group_1145633" data-name="Group 1145633" transform="translate(13.824)">
            <g id="Group_1145630" data-name="Group 1145630">
              <g id="Group_1145626" data-name="Group 1145626" transform="translate(15.484)">
                <path id="Path_979821" data-name="Path 979821" d="M321.927,21.207l-.176-3.488-3.473-.44a9.309,9.309,0,0,0-1.126-2.353l1.854-2.953L316.4,9.632l-2.772,2.129a9.454,9.454,0,0,0-2.472-.875L310.362,7.5l-3.514.178-.445,3.449a9.451,9.451,0,0,0-2.371,1.12l-2.973-1.838L298.7,13l2.142,2.751a9.307,9.307,0,0,0-.883,2.455l-3.411.788.176,3.488,3.473.44a9.308,9.308,0,0,0,1.126,2.353l-1.854,2.953,2.609,2.341,2.772-2.129a9.454,9.454,0,0,0,2.472.875l.791,3.386,3.514-.178.445-3.449a9.45,9.45,0,0,0,2.371-1.12l2.973,1.838,2.36-2.592-2.142-2.751a9.308,9.308,0,0,0,.883-2.455Zm-12.445,3.737a4.85,4.85,0,1,1,4.635-5.091A4.868,4.868,0,0,1,309.482,24.944Z" transform="translate(-296.548 -7.5)" fill="#7974e3"/>
              </g>
              <g id="Group_1145629" data-name="Group 1145629" transform="translate(0 8.361)">
                <g id="Group_1145628" data-name="Group 1145628">
                  <path id="Path_979822" data-name="Path 979822" d="M182.511,98.669l22.024,9.656,9.806-22.366-4.048-10.392-14.807-6.492Z" transform="translate(-182.511 -69.075)" fill="#f0f0ff"/>
                  <g id="Group_1145627" data-name="Group 1145627" transform="translate(17.468 10.349)">
                    <path id="Path_979823" data-name="Path 979823" d="M320.089,151.828l-8.93,20.368,4.556,2,9.806-22.366-2.546-6.535Z" transform="translate(-311.159 -145.293)" fill="#e8e8ff"/>
                  </g>
                  <path id="Path_979824" data-name="Path 979824" d="M366.875,116.886l-3.18,7.2,7.228,3.193Z" transform="translate(-339.093 -110.394)" fill="#cfcfff"/>
                </g>
              </g>
            </g>
            <g id="Group_1145632" data-name="Group 1145632" transform="translate(20.892 31.009)">
              <g id="Group_1145631" data-name="Group 1145631">
                <path id="Path_979825" data-name="Path 979825" d="M336.372,269.387h17.407v17.351H336.372Z" transform="translate(-336.372 -264.836)" fill="#96e1ff"/>
                <path id="Path_979826" data-name="Path 979826" d="M468.848,253.22l-4.28,4.551V240.42l4.28-4.551Z" transform="translate(-447.161 -235.869)" fill="#fdf486"/>
                <path id="Path_979827" data-name="Path 979827" d="M353.779,240.42H336.372l4.28-4.551h17.407Z" transform="translate(-336.372 -235.869)" fill="#fd6dc3"/>
              </g>
            </g>
            <path id="Path_979828" data-name="Path 979828" d="M278.143,368.109l2.011-2.013-1.633-2.339a7.583,7.583,0,0,0,.807-1.967l2.8-.494-.012-2.856-2.8-.511a7.7,7.7,0,0,0-.823-1.972l1.614-2.329-2.028-2.026-2.327,1.616a7.7,7.7,0,0,0-1.973-.821l-.514-2.8-2.856-.009-.491,2.8a7.582,7.582,0,0,0-1.966.808l-2.34-1.631-2.011,2.013,1.633,2.339a7.585,7.585,0,0,0-.807,1.967l-2.8.494.012,2.856,2.8.512a7.7,7.7,0,0,0,.823,1.972l-1.614,2.329,2.028,2.026L268,366.454a7.7,7.7,0,0,0,1.973.821l.514,2.8,2.856.009.491-2.8a7.583,7.583,0,0,0,1.966-.808Zm-8.795-5.744a3.587,3.587,0,1,1,5.091.016A3.6,3.6,0,0,1,269.348,362.366Z" transform="translate(-250.884 -303.138)" fill="#7974e3"/>
          </g>
          <g id="Group_1145634" data-name="Group 1145634" transform="translate(0 6.824)">
            <path id="Path_979829" data-name="Path 979829" d="M101.4,57.759c-.166,0-.333,0-.5.005a20.8,20.8,0,0,0-9.273,39.1v3.492a2.577,2.577,0,0,0,2.572,2.582h7.2Z" transform="translate(-80.698 -57.759)" fill="#fdf486"/>
            <path id="Path_979830" data-name="Path 979830" d="M187.339,390.46h-7.2v5.694a4.631,4.631,0,0,0,4.631,4.631h2.57Z" transform="translate(-166.636 -345.285)" fill="#cfcfff"/>
          </g>
        </g>
        <g id="Group_1145636" data-name="Group 1145636" transform="translate(36.796 48.464)">
          <path id="Path_979831" data-name="Path 979831" d="M357.161,374.614l2.8-.494-.012-2.856-2.8-.512a7.7,7.7,0,0,0-.823-1.972l1.614-2.329-2.028-2.026-2.327,1.616a7.7,7.7,0,0,0-1.894-.8,9.907,9.907,0,0,1,.851,14.587,7.533,7.533,0,0,0,1.1-.529l2.34,1.631,2.011-2.013-1.633-2.339a7.58,7.58,0,0,0,.807-1.967Z" transform="translate(-351.688 -364.426)" fill="#6b64e8"/>
        </g>
      </g>
      <g id="Group_1145638" data-name="Group 1145638" transform="translate(4.449 0)">
        <path id="Path_979832" data-name="Path 979832" d="M131.636,31.976a1.029,1.029,0,0,0-1.015-.968H118.9l1.9-4.336a1.032,1.032,0,0,0,.016-.779l-.973-2.5a10.468,10.468,0,0,0,1.57-.728l2.441,1.509A1.022,1.022,0,0,0,125.147,24l2.36-2.592a1.018,1.018,0,0,0,.051-1.311l-1.752-2.25a10.328,10.328,0,0,0,.532-1.479l2.8-.646a1.018,1.018,0,0,0,.788-1.044l-.176-3.488a1.018,1.018,0,0,0-.889-.959l-2.849-.361a10.321,10.321,0,0,0-.678-1.417l1.517-2.415a1.018,1.018,0,0,0-.182-1.3l-2.609-2.341a1.018,1.018,0,0,0-1.3-.05l-2.276,1.748a10.468,10.468,0,0,0-1.5-.531L118.333.787A1.017,1.017,0,0,0,117.29,0l-3.514.177a1.018,1.018,0,0,0-.959.887l-.365,2.824a10.459,10.459,0,0,0-1.438.68L108.574,3.06a1.019,1.019,0,0,0-1.289.181l-2.36,2.592a1.018,1.018,0,0,0-.05,1.311l1.752,2.25a10.355,10.355,0,0,0-.431,1.144l-4.77-2.091a1.018,1.018,0,0,0-1.342.524L96.036,18.2V2.385a1.019,1.019,0,0,0-2.037,0V6.846a21.736,21.736,0,0,0-17.282,9.927,1.019,1.019,0,0,0,1.708,1.11A19.7,19.7,0,0,1,94,8.884V52H87.72a1.56,1.56,0,0,1-1.553-1.563V46.945a1.019,1.019,0,0,0-.536-.9,19.783,19.783,0,0,1-9.5-23.283,1.019,1.019,0,0,0-1.944-.607A21.821,21.821,0,0,0,84.13,47.543v2.893A3.6,3.6,0,0,0,86.7,53.888v4.824a5.656,5.656,0,0,0,5.65,5.65H94v3.6a1.019,1.019,0,0,0,2.037,0V43.59l10.377,4.55-.233,1.33a8.6,8.6,0,0,0-1,.412l-1.829-1.274a1.018,1.018,0,0,0-1.3.116l-2.011,2.013a1.018,1.018,0,0,0-.115,1.3l1.276,1.827a8.606,8.606,0,0,0-.411,1l-2.178.384a1.019,1.019,0,0,0-.841,1.007l.012,2.856a1.019,1.019,0,0,0,.835,1l2.191.4a8.711,8.711,0,0,0,.423,1.015L99.97,63.344a1.018,1.018,0,0,0,.117,1.3l2.028,2.026a1.018,1.018,0,0,0,1.3.116l1.814-1.259a8.719,8.719,0,0,0,1.016.422l.4,2.19a1.018,1.018,0,0,0,1,.835l2.856.009h0a1.018,1.018,0,0,0,1-.842l.382-2.178a8.592,8.592,0,0,0,1-.412l1.828,1.274a1.018,1.018,0,0,0,1.3-.116l2.011-2.013a1.018,1.018,0,0,0,.115-1.3l-1.276-1.827a8.608,8.608,0,0,0,.411-1l2.178-.384a1.019,1.019,0,0,0,.841-1.007l-.012-2.856a1.019,1.019,0,0,0-.835-1l-2.059-.376c2.915-.013,5.875-.013,8.753-.013a1.039,1.039,0,0,0,.934-.3l4.28-4.551a1.019,1.019,0,0,0,.277-.7V32.027C131.639,32.01,131.636,31.993,131.636,31.976Zm-3.37,1.069-2.32,2.467H111.334l2.321-2.467ZM116.773,15.5a1.037,1.037,0,0,0-.54-.563l-3.865-1.695a3.865,3.865,0,1,1,5.086,4Zm-1.008,3.024,1.1,2.824,1.164,2.987-4.041-1.785Zm-7.141-9.882-1.615-2.074,1.213-1.332,2.253,1.394a1.019,1.019,0,0,0,1.094-.014,8.429,8.429,0,0,1,2.116-1,1.019,1.019,0,0,0,.707-.842l.336-2.6,1.814-.092.6,2.558a1.019,1.019,0,0,0,.789.766,8.427,8.427,0,0,1,2.206.781,1.019,1.019,0,0,0,1.09-.1l2.1-1.614,1.341,1.2-1.4,2.226a1.019,1.019,0,0,0,.014,1.1,8.3,8.3,0,0,1,1,2.1,1.018,1.018,0,0,0,.843.7l2.627.333.09,1.785-2.58.6a1.018,1.018,0,0,0-.768.786,8.285,8.285,0,0,1-.786,2.186,1.019,1.019,0,0,0,.1,1.1l1.615,2.074L124.21,22l-2.253-1.394a1.019,1.019,0,0,0-1.094.014,8.434,8.434,0,0,1-1.755.877l-.915-2.35a5.874,5.874,0,1,0-7.751-6.747l-2.368-1.038a8.318,8.318,0,0,1,.647-1.617,1.018,1.018,0,0,0-.1-1.1ZM92.352,62.325a3.617,3.617,0,0,1-3.613-3.613V54.036H94v8.289Zm3.685-39.048,5.505-12.556,12.938,5.673-2.768,6.265a1.018,1.018,0,0,0,.52,1.343l6.3,2.783-1.852,4.224h-3.466a1.018,1.018,0,0,0-.742.321l-4.28,4.551a1.87,1.87,0,0,0-.294,1.139v9.431h-.267L96.036,41.366Zm22.226,35.046-1.953.345a1.018,1.018,0,0,0-.81.752,6.562,6.562,0,0,1-.7,1.7,1.018,1.018,0,0,0,.044,1.1l1.145,1.64-.806.806-1.641-1.143a1.018,1.018,0,0,0-1.1-.042,6.565,6.565,0,0,1-1.7.7,1.018,1.018,0,0,0-.751.811l-.343,1.953-1.153,0-.361-1.969a1.018,1.018,0,0,0-.744-.8,6.687,6.687,0,0,1-1.712-.712,1.018,1.018,0,0,0-1.1.04l-1.629,1.131-.824-.823,1.129-1.63a1.018,1.018,0,0,0,.039-1.1,6.693,6.693,0,0,1-.714-1.711,1.019,1.019,0,0,0-.8-.744l-1.969-.36,0-1.152,1.952-.345a1.018,1.018,0,0,0,.81-.752,6.563,6.563,0,0,1,.7-1.7,1.019,1.019,0,0,0-.043-1.1l-1.145-1.64.806-.806,1.641,1.143a1.018,1.018,0,0,0,1.1.042,6.571,6.571,0,0,1,1.7-.7,1.018,1.018,0,0,0,.751-.811l.343-1.953,1.153,0,.361,1.969a1.018,1.018,0,0,0,.744.8,6.683,6.683,0,0,1,1.712.712,1.018,1.018,0,0,0,1.1-.04l1.628-1.131.824.823-1.129,1.63a1.018,1.018,0,0,0-.039,1.1,6.693,6.693,0,0,1,.714,1.711,1.019,1.019,0,0,0,.8.744l1.97.36Zm9.1-6.966c0-1,0-3.48,0-3.48a1.019,1.019,0,0,0-2.037,0v5.016c-2.571,0-5.2,0-7.789.013l.566-.817a1.018,1.018,0,0,0-.117-1.3l-2.028-2.026a1.018,1.018,0,0,0-1.3-.116l-1.814,1.259a8.72,8.72,0,0,0-1.016-.422l-.4-2.19a1.211,1.211,0,0,0-1.474-.836c-.017-1.131.106-7.045,0-8.86h15.374V42.56a1.019,1.019,0,0,0,2.037,0s0-3.829,0-5.581L129.6,34.6V48.975Z" transform="translate(-63.865 0)" fill="#060606"/>
        <path id="Path_979833" data-name="Path 979833" d="M307.764,390.994h-.015a4.587,4.587,0,0,0-4.592,4.611,4.65,4.65,0,0,0,4.63,4.626h.015a4.587,4.587,0,0,0,4.592-4.611,4.65,4.65,0,0,0-4.63-4.625Zm1.847,6.452a2.519,2.519,0,0,1-1.818.748,2.613,2.613,0,0,1-2.6-2.6,2.55,2.55,0,0,1,2.564-2.566,2.613,2.613,0,0,1,2.6,2.6A2.539,2.539,0,0,1,309.611,397.446Z" transform="translate(-262.598 -337.904)" fill="#060606"/>
        <path id="Path_979834" data-name="Path 979834" d="M73.094,51.24a1.043,1.043,0,0,0,.72-1.738l-3.473-3.473a1.019,1.019,0,0,0-1.44,1.44l3.472,3.473A1.015,1.015,0,0,0,73.094,51.24Z" transform="translate(-59.889 -39.518)" fill="#060606"/>
        <path id="Path_979835" data-name="Path 979835" d="M10.347,204.487H5.437a1.019,1.019,0,0,0,0,2.037h4.911A1.019,1.019,0,0,0,10.347,204.487Z" transform="translate(-4.449 -176.721)" fill="#060606"/>
        <path id="Path_979836" data-name="Path 979836" d="M74.662,336.98l-3.472,3.473a1.019,1.019,0,0,0,1.44,1.44L76.1,338.42A1.019,1.019,0,0,0,74.662,336.98Z" transform="translate(-61.867 -290.963)" fill="#060606"/>
      </g>
    </g>
  </g>
</svg>
