<svg xmlns="http://www.w3.org/2000/svg" xmlns:xlink="http://www.w3.org/1999/xlink" width="91" height="91" viewBox="0 0 91 91">
  <defs>
    <filter id="Ellipse_11513" x="0" y="0" width="91" height="91" filterUnits="userSpaceOnUse">
      <feOffset dy="3" input="SourceAlpha"/>
      <feGaussianBlur stdDeviation="3" result="blur"/>
      <feFlood flood-opacity="0.161"/>
      <feComposite operator="in" in2="blur"/>
      <feComposite in="SourceGraphic"/>
    </filter>
  </defs>
  <g id="Group_1145777" data-name="Group 1145777" transform="translate(-1221 -10187)">
    <g id="Group_1145750" data-name="Group 1145750" transform="translate(-6 9462)">
      <g id="Group_1143817" data-name="Group 1143817" transform="translate(0 -199)">
        <g id="Group_1143705" data-name="Group 1143705" transform="translate(1236.024 930)">
          <g id="Group_1143465" data-name="Group 1143465">
            <g transform="matrix(1, 0, 0, 1, -9.02, -6)" filter="url(#Ellipse_11513)">
              <g id="Ellipse_11513-2" data-name="Ellipse 11513" transform="translate(9 6)" fill="#f7eafc" stroke="#652180" stroke-width="3">
                <circle cx="36.5" cy="36.5" r="36.5" stroke="none"/>
                <circle cx="36.5" cy="36.5" r="35" fill="none"/>
              </g>
            </g>
          </g>
        </g>
      </g>
    </g>
    <g id="layer1" transform="translate(1243.978 10206.978)">
      <path id="path7833" d="M3.434.265A2.107,2.107,0,0,0,1.323,2.376v23.93a2.107,2.107,0,0,0,2.111,2.111h36.6a2.107,2.107,0,0,0,2.111-2.111V2.376A2.107,2.107,0,0,0,40.033.265Z" transform="translate(2.196 0.439)" fill="#549ad4"/>
      <path id="path7863" d="M37.818.265C39.983,27.085,2.388,27.714,2.388,27.714l-.434.658a2.129,2.129,0,0,0,.434.045h36.6A2.107,2.107,0,0,0,41.1,26.306V2.376A2.107,2.107,0,0,0,38.987.265Z" transform="translate(3.243 0.439)" fill="#3588cb"/>
      <path id="path7838" d="M4.056,1.359A1.671,1.671,0,0,0,2.381,3.034V22.013a1.671,1.671,0,0,0,1.675,1.675H35.9a1.671,1.671,0,0,0,1.675-1.675V3.034A1.671,1.671,0,0,0,35.9,1.359Z" transform="translate(3.953 2.257)" fill="#e4eff8"/>
      <path id="path7858" d="M35.38,1.36C34.6,18.228,13.093,22,2.465,22.839a1.665,1.665,0,0,0,1.45.848H35.758a1.67,1.67,0,0,0,1.674-1.674V3.034A1.67,1.67,0,0,0,35.758,1.36Z" transform="translate(4.093 2.257)" fill="#c4dcf0"/>
      <path id="path7816" d="M15.809,26.5,10.617,16.1a1.8,1.8,0,0,1,.644-2.4,1.756,1.756,0,0,1,2.4.644l2.144,3.714V7.493a1.408,1.408,0,1,1,2.815,0v6.334a1.408,1.408,0,1,1,2.815,0v.7a1.408,1.408,0,0,1,2.815,0v.7a1.408,1.408,0,1,1,2.815,0V21.57c0,2.111-1.408,3.519-1.408,4.927Z" transform="translate(17.27 10.103)" fill="#ffd1b5"/>
      <path id="path7828" d="M21.26,9c.263,10.47-7.255,12.46-8.148,12.659h8.053c0-1.408,1.408-2.815,1.408-4.927V10.4A1.4,1.4,0,0,0,21.26,9Z" transform="translate(21.768 14.94)" fill="#ffb98d"/>
      <path id="path7825" d="M12.264,8.86a1.756,1.756,0,0,0-1,.232,1.8,1.8,0,0,0-.643,2.4l5.192,10.4h1.408L12.025,11.5a1.8,1.8,0,0,1,.643-2.4,1.74,1.74,0,0,1,.183-.082A1.758,1.758,0,0,0,12.264,8.86Z" transform="translate(17.27 14.702)" fill="#f5f9fb"/>
      <path id="path7790" d="M3.052,5.671A3.527,3.527,0,0,0,.265,9.347v5.988c0,2,2.111,6.219,2.111,7.627v2.815H13.059c0-1.4,1.5-3.509,1.508-6.334h-5.2c-.351-2.909-2.77-3.619-2.77-4.927V11.5C6.524,9,4.788,7.928,3.784,8.265V6.544Z" transform="translate(0.439 9.415)" fill="#ffd1b5"/>
      <path id="path7820" d="M3.052,5.671A3.527,3.527,0,0,0,.265,9.347v5.988c0,2,2.111,6.219,2.111,7.627v2.815H3.784V22.961c0-1.408-2.111-5.631-2.111-7.627V9.347A3.712,3.712,0,0,1,3.384,6.065Z" transform="translate(0.439 9.415)" fill="#f5f9fb"/>
      <path id="path7810" d="M11.672,10.848C9.244,15.733,1.058,17.182,1.058,17.182H11.741c0-1.4,1.5-3.509,1.508-6.334Z" transform="translate(1.757 18.009)" fill="#ffb98d"/>
      <path id="rect7783" d="M13.314,13.758h9.854a1.4,1.4,0,0,1,1.408,1.408v4.927A1.4,1.4,0,0,1,23.167,21.5H13.314a1.4,1.4,0,0,1-1.408-1.408V15.166a1.4,1.4,0,0,1,1.408-1.408Z" transform="translate(19.766 22.841)" fill="#549ad4"/>
      <path id="path7785" d="M23.662,13.8c-1.3,5.2-8.277,6.631-11.731,6.631a1.4,1.4,0,0,0,1.343,1h9.854a1.4,1.4,0,0,0,1.408-1.408V15.1a1.4,1.4,0,0,0-.873-1.3Z" transform="translate(19.806 22.907)" fill="#3588cb"/>
      <path id="path7787" d="M13.314,13.841a1.4,1.4,0,0,0-1.408,1.408v4.707a1.4,1.4,0,0,0,1.408,1.408h1.408a1.4,1.4,0,0,1-1.408-1.408V15.249a1.4,1.4,0,0,1,1.408-1.408Z" transform="translate(19.766 22.978)" fill="#f5f9fb"/>
      <path id="rect7771" d="M2.2,13.229h9.854a1.4,1.4,0,0,1,1.408,1.408v6.334a1.4,1.4,0,0,1-1.408,1.408H2.2A1.4,1.4,0,0,1,.794,20.971V14.637A1.4,1.4,0,0,1,2.2,13.229Z" transform="translate(1.318 21.962)" fill="#549ad4"/>
      <path id="path7773" d="M12.549,13.269c-1.3,5.2-8.62,7.344-11.731,8.039a1.4,1.4,0,0,0,1.343,1h9.854a1.4,1.4,0,0,0,1.408-1.408V14.571a1.4,1.4,0,0,0-.873-1.3Z" transform="translate(1.358 22.028)" fill="#3588cb"/>
      <path id="rect7780" d="M2.2,13.229A1.4,1.4,0,0,0,.794,14.637v6.334A1.4,1.4,0,0,0,2.2,22.379H3.609A1.4,1.4,0,0,1,2.2,20.971V14.637a1.4,1.4,0,0,1,1.408-1.408Z" transform="translate(1.318 21.962)" fill="#f5f9fb"/>
      <path id="path7803" d="M6.053,10.848c-.008,2.825-1.508,4.931-1.508,6.334H5.953c0-1.4,1.5-3.509,1.508-6.334Z" transform="translate(7.545 18.009)" fill="#ffb98d"/>
      <path id="path7808" d="M3.434,9.916v3.723c0,1.308,2.419,2.017,2.77,4.927H7.612c-.351-2.909-2.77-4.323-2.77-5.631V9.916c-.075-2.5-1.811-3.569-3.519-3.232.3-.337,2.036.736,2.111,3.232Z" transform="translate(2.196 10.996)" fill="#ffb98d"/>
      <path id="path7844" d="M3.44,10.213a7.038,7.038,0,0,1,14.077,0v2.815H3.44Z" transform="translate(5.71 5.271)" fill="#ff5151"/>
      <g id="Group_1145776" data-name="Group 1145776" transform="translate(14.077 6.334)">
        <path id="path7856" d="M5.292,8.636v-.7a2.111,2.111,0,0,1,4.223,0v.7Z" transform="translate(-5.292 3.329)" fill="#ffca28"/>
        <path id="rect7840" d="M1.408,4.223A1.4,1.4,0,0,0,2.815,2.815V1.408A1.408,1.408,0,1,0,0,1.408V2.815A1.4,1.4,0,0,0,1.408,4.223Z" transform="translate(21.819 4.223) rotate(180)" fill="#ffca28"/>
        <path id="rect7842" d="M11.726,4.233a1.4,1.4,0,0,1,1.408,1.408V7.049a1.408,1.408,0,1,1-2.815,0V5.641A1.4,1.4,0,0,1,11.726,4.233Z" transform="translate(3.054 0.693)" fill="#ffca28"/>
      </g>
      <path id="path7848" d="M6.964,3.175a7.07,7.07,0,0,0-1.408.142,7.04,7.04,0,0,1,5.631,6.9v2.815H14V10.213A7.038,7.038,0,0,0,6.964,3.175Z" transform="translate(9.224 5.271)" fill="#ff2929"/>
      <path id="path7853" d="M10.478,3.175A7.038,7.038,0,0,0,3.44,10.213v2.815H4.847V10.213a7.04,7.04,0,0,1,6.334-7q-.348-.035-.7-.034Z" transform="translate(5.71 5.271)" fill="#f5f9fb"/>
      <path id="rect820" d="M5.632,0A2.826,2.826,0,0,0,2.817,2.817V14.54A3.937,3.937,0,0,0,.68,16.225,4.9,4.9,0,0,0,0,18.761v5.989a14.287,14.287,0,0,0,1.1,4.266c.265.744.527,1.465.718,2.067a6.011,6.011,0,0,1,.3,1.288v2.66a2.106,2.106,0,0,0-.7,1.564v6.333a2.125,2.125,0,0,0,2.11,2.116h9.856a2.124,2.124,0,0,0,2.109-2.116V36.6a2.119,2.119,0,0,0-1.206-1.9c.12-.481.365-1.142.639-1.911a12.528,12.528,0,0,0,.764-3.221h13.1l3.294,6.592A2.117,2.117,0,0,0,30.97,38v4.925a2.124,2.124,0,0,0,2.109,2.116h9.851a2.13,2.13,0,0,0,2.116-2.116V38a2.123,2.123,0,0,0-1.316-1.951,12.065,12.065,0,0,1,.551-1.369,7.241,7.241,0,0,0,.764-3.013V2.817A2.827,2.827,0,0,0,42.228,0Zm0,1.408h36.6a1.391,1.391,0,0,1,1.408,1.409V23.347a1.954,1.954,0,0,0-.707-.124,1.843,1.843,0,0,0-.7.128V4.925a2.118,2.118,0,0,0-2.109-2.109H7.741A2.118,2.118,0,0,0,5.632,4.925V17.15c-.043-.019-.086-.039-.129-.056a2.269,2.269,0,0,0-1.278-.151V2.817A1.391,1.391,0,0,1,5.632,1.408ZM7.04,18.43V4.925a.683.683,0,0,1,.7-.7H40.12a.683.683,0,0,1,.7.7V22.649a1.866,1.866,0,0,0-.7-.126,2.033,2.033,0,0,0-1.043.271,2.093,2.093,0,0,0-1.773-.977,2.237,2.237,0,0,0-.707.122V19.006h2.1a.7.7,0,0,0,0-1.409H36.6a2.112,2.112,0,1,0-4.224,0H26.039a.7.7,0,0,0,0,1.409h6.333v6.519l-.83-1.438a2.472,2.472,0,0,0-3.362-.9,2.44,2.44,0,0,0-1.2,2.155H8.834c-.324-.356-.618-.644-.811-.878-.219-.266-.282-.41-.282-.528V20.9a4.852,4.852,0,0,0-.7-2.471Zm27.448-12.8a2.124,2.124,0,0,0-2.116,2.109H26.039a.7.7,0,0,0,0,1.409h6.333a2.112,2.112,0,0,0,4.224,0H38.71a.7.7,0,0,0,0-1.409H36.6a2.118,2.118,0,0,0-2.109-2.109Zm0,1.408a.683.683,0,0,1,.7.7V9.15a.7.7,0,1,1-1.409,0V7.741A.689.689,0,0,1,34.487,7.04Zm-18.3.7a7.752,7.752,0,0,0-7.741,7.742V18.3a.7.7,0,0,0,.7.708H23.222a.7.7,0,0,0,.708-.708V15.483a7.752,7.752,0,0,0-7.741-7.742Zm-.707,1.448v.668a.7.7,0,0,0,1.408,0V9.188a6.3,6.3,0,0,1,3.254,1.342L19.67,11a.706.706,0,0,0,1,1l.474-.474a6.3,6.3,0,0,1,1.34,3.254h-.661a.7.7,0,1,0,0,1.408h.7V17.6H19.006a2.8,2.8,0,0,0-.69-1.839L19.5,14.574a.7.7,0,1,0-.993-.993l-1.372,1.365a2.785,2.785,0,0,0-.946-.165A2.826,2.826,0,0,0,13.374,17.6H9.856V16.189h.7a.7.7,0,0,0,0-1.408H9.895a6.3,6.3,0,0,1,1.342-3.254l.474.474a.7.7,0,0,0,.993-1l-.472-.472a6.3,6.3,0,0,1,3.251-1.344Zm13.371,1.369a2.118,2.118,0,0,0-2.109,2.109h-.707a.7.7,0,0,0,0,1.409h.707a2.112,2.112,0,1,0,4.224,0H38.71a.7.7,0,0,0,0-1.409H30.97a2.124,2.124,0,0,0-2.116-2.109Zm0,1.408a.689.689,0,0,1,.708.7v1.409a.7.7,0,1,1-1.409,0V12.666A.683.683,0,0,1,28.854,11.965ZM2.817,16.056v7.878a.7.7,0,0,0,1.408,0V18.8c0-.338.076-.387.166-.436a.726.726,0,0,1,.581.036,2.649,2.649,0,0,1,1.361,2.535v3a2.256,2.256,0,0,0,.6,1.428c.307.373.656.7.982,1.065A4.288,4.288,0,0,1,9.15,29.562a.7.7,0,0,0,1.408,0h3.71a11.4,11.4,0,0,1-.676,2.748,14.387,14.387,0,0,0-.6,2.177H3.518V32.372a5.8,5.8,0,0,0-.359-1.714c-.205-.648-.476-1.372-.738-2.109a15.707,15.707,0,0,1-1.013-3.8V18.761a3.613,3.613,0,0,1,.473-1.808,2.376,2.376,0,0,1,.936-.9Zm13.373.133A1.4,1.4,0,0,1,17.6,17.6H14.782a1.4,1.4,0,0,1,1.408-1.408Zm19,1.408v9.148a.7.7,0,0,0,1.408,0V23.93a.7.7,0,1,1,1.408,0v2.815a.7.7,0,0,0,1.408,0V24.631a.7.7,0,0,1,1.409,0v2.114a.7.7,0,0,0,1.408,0V25.338a.7.7,0,1,1,1.408,0v6.333a5.9,5.9,0,0,1-.643,2.441,9.138,9.138,0,0,0-.687,1.783H33.514l-5-10.012A1.071,1.071,0,0,1,28.88,24.4a1.041,1.041,0,0,1,1.445.385L32.471,28.5a.7.7,0,0,0,1.309-.348c0-3.517,0-7.042,0-10.556a.7.7,0,1,1,1.409,0ZM9.862,26.745H27.371l.7,1.408H10.4a5.663,5.663,0,0,0-.535-1.408ZM3.518,35.9h9.856a.683.683,0,0,1,.7.7v6.333a.687.687,0,0,1-.7.707H3.518a.687.687,0,0,1-.7-.707V36.6a.683.683,0,0,1,.7-.7ZM33.078,37.3h9.851a.687.687,0,0,1,.707.7v4.925a.692.692,0,0,1-.707.707H33.078a.692.692,0,0,1-.707-.707V38a.687.687,0,0,1,.707-.7Z" fill="#333"/>
    </g>
  </g>
</svg>
